<svg width="53" height="54" viewBox="0 0 53 54" fill="none" xmlns="http://www.w3.org/2000/svg">
<path d="M35.895 16.5555H17.1161C18.7075 7.11298 22.3148 0.428952 26.5586 0.428952C30.6964 0.428952 34.4097 7.11298 35.895 16.5555ZM16.3734 26.7407C16.3734 24.4066 16.4795 22.1786 16.6917 19.9506H36.3194C36.5316 22.1786 36.6377 24.4066 36.6377 26.7407C36.6377 29.1809 36.5316 31.4089 36.3194 33.5308H16.6917C16.4795 31.4089 16.3734 29.1809 16.3734 26.7407ZM50.7485 16.5555H39.2901C38.3352 10.6141 36.6377 5.20326 33.9853 1.59601C41.6242 3.82402 47.7778 9.44709 50.7485 16.5555ZM19.0258 1.59601C16.3734 5.20326 14.6759 10.6141 13.721 16.5555H2.26269C5.23337 9.44709 11.3869 3.82402 19.0258 1.59601ZM51.9155 19.9506C52.446 22.1786 52.7643 24.4066 52.7643 26.7407C52.7643 29.1809 52.446 31.4089 51.9155 33.5308H39.7145C39.9267 31.3028 40.1389 29.0748 40.1389 26.7407C40.1389 24.5127 39.9267 22.1786 39.7145 19.9506H51.9155ZM12.9784 26.7407C12.9784 29.0748 13.0845 31.3028 13.2966 33.5308H1.09564C0.565159 31.4089 0.246872 29.1809 0.246872 26.7407C0.246872 24.4066 0.565159 22.1786 1.09564 19.9506H13.2966C13.0845 22.1786 12.9784 24.5127 12.9784 26.7407ZM17.1161 36.9259H35.895C34.4097 46.4745 30.6964 53.0524 26.5586 53.0524C22.3148 53.0524 18.7075 46.4745 17.1161 36.9259ZM33.9853 51.9915C36.6377 48.3842 38.4413 42.9733 39.2901 36.9259H50.7485C47.7778 44.1404 41.6242 49.7635 33.9853 51.9915ZM2.26269 36.9259H13.721C14.6759 42.9733 16.3734 48.3842 19.0258 51.9915C11.3869 49.7635 5.23337 44.1404 2.26269 36.9259Z" fill="#AA946C"/>
</svg>
