<svg width="38" height="49" viewBox="0 0 38 49" fill="none" xmlns="http://www.w3.org/2000/svg">
<path d="M35.164 2.71797e-05C36.4053 2.71797e-05 37.4557 1.05038 37.4557 2.2917V3.81947C37.4557 5.15628 36.4053 6.11114 35.164 6.11114C35.164 14.8004 30.1987 22.1528 23.6102 24.4445C30.1987 26.8316 35.164 34.1841 35.164 42.7778C36.4053 42.7778 37.4557 43.8282 37.4557 45.0695V46.5973C37.4557 47.9341 36.4053 48.8889 35.164 48.8889H3.08063C1.74382 48.8889 0.788961 47.9341 0.788961 46.5973V45.0695C0.788961 43.8282 1.74382 42.7778 3.08063 42.7778C3.08063 34.1841 7.95042 26.8316 14.539 24.4445C7.95042 22.1528 3.08063 14.8004 3.08063 6.11114C1.74382 6.11114 0.788961 5.15628 0.788961 3.81947V2.2917C0.788961 1.05038 1.74382 2.71797e-05 3.08063 2.71797e-05H35.164ZM27.907 36.6667C26.2838 32.2744 22.9418 29.0278 19.1223 29.0278C15.2074 29.0278 11.8654 32.2744 10.2421 36.6667H27.907ZM27.907 12.2223C28.6709 10.408 29.0529 8.30732 29.0529 6.11114H9.19174C9.19174 8.30732 9.4782 10.408 10.2421 12.2223H27.907Z" fill="#AA946C"/>
</svg>
