<svg width="38" height="51" viewBox="0 0 38 51" fill="none" xmlns="http://www.w3.org/2000/svg">
<path d="M10.0511 35.6615C11.2924 36.9983 13.1067 37.6667 14.9209 37.6667C16.1622 37.6667 17.3081 37.3803 18.3584 36.8073L13.2976 49.0296C12.9157 49.9844 11.5789 50.2709 10.815 49.4115L7.37751 45.783L2.31674 45.974C1.26639 46.0695 0.407017 44.9237 0.884448 43.8733L5.18133 33.2744C5.94521 33.8473 6.7091 34.3247 7.66397 34.5157C9.57369 35.0886 9.19174 34.8021 10.0511 35.6615ZM37.2647 43.8733C37.7421 44.9237 36.8827 46.0695 35.8324 45.974L30.7716 45.783L27.3341 49.4115C26.5702 50.2709 25.2334 49.9844 24.8515 49.0296L19.7907 36.8073C20.8411 37.3803 21.9869 37.6667 23.2282 37.6667C25.0424 37.6667 26.8567 36.9983 28.098 35.6615C28.9574 34.8021 28.48 35.0886 30.5806 34.5157C31.44 34.3247 32.2039 33.8473 32.9678 33.2744L37.2647 43.8733ZM25.9018 33.4653C24.565 34.8021 22.6553 34.9931 21.1275 34.0382C20.5546 33.6563 19.7907 33.4653 19.0268 33.4653C18.3584 33.4653 17.5945 33.6563 17.0216 34.0382C15.4938 34.9931 13.5841 34.8021 12.3428 33.4653C10.9105 32.033 10.7195 32.1285 8.61883 31.5556C7.28202 31.2691 6.23167 30.2188 5.84973 28.7865C5.18133 26.1129 5.3723 26.3993 3.36709 24.4896C2.41223 23.4393 2.03028 22.007 2.41223 20.6702C3.08063 17.9966 3.08063 18.3785 2.41223 15.6094C2.03028 14.2726 2.41223 12.8403 3.36709 11.8855C5.3723 9.88024 5.18133 10.1667 5.84973 7.49309C6.23167 6.15628 7.28202 5.10593 8.61883 4.72399C11.2924 3.9601 10.9105 4.15107 12.9157 2.14586C13.8706 1.191 15.3029 0.809055 16.6397 1.191C19.2178 1.8594 18.9313 1.8594 21.5095 1.191C22.8463 0.809055 24.2786 1.191 25.2334 2.14586C27.2386 4.15107 26.8567 3.9601 29.5303 4.72399C30.8671 5.10593 31.9175 6.15628 32.2994 7.49309C32.9678 10.1667 32.7768 9.88024 34.782 11.8855C35.7369 12.8403 36.1188 14.2726 35.7369 15.6094C35.0685 18.3785 35.0685 17.9966 35.7369 20.6702C36.1188 22.007 35.7369 23.4393 34.782 24.4896C32.7768 26.3993 32.9678 26.1129 32.2994 28.7865C31.9175 30.2188 30.8671 31.2691 29.5303 31.5556C27.5251 32.1285 27.3341 32.033 25.9018 33.4653ZM10.0511 17.8056C10.0511 22.8664 14.0615 26.9723 19.1223 26.9723C24.0876 26.9723 28.098 22.8664 28.098 17.8056C28.098 12.7448 24.0876 8.63892 19.1223 8.63892C14.0615 8.63892 10.0511 12.7448 10.0511 17.8056Z" fill="#AA946C"/>
</svg>
