<svg width="44" height="49" viewBox="0 0 44 49" fill="none" xmlns="http://www.w3.org/2000/svg">
<path d="M22.1222 24.4445C15.3427 24.4445 9.89996 19.0018 9.89996 12.2223C9.89996 5.53823 15.3427 2.71797e-05 22.1222 2.71797e-05C28.8062 2.71797e-05 34.3444 5.53823 34.3444 12.2223C34.3444 19.0018 28.8062 24.4445 22.1222 24.4445ZM31.1934 27.5955C38.0684 27.882 43.5111 33.5157 43.5111 40.3907V44.3056C43.5111 46.8837 41.4104 48.8889 38.9278 48.8889H5.31663C2.7385 48.8889 0.733292 46.8837 0.733292 44.3056V40.3907C0.733292 33.5157 6.08052 27.882 12.9555 27.5955L17.5389 45.8334L20.5944 32.8473L17.5389 27.5H26.7055L23.65 32.8473L26.7055 45.8334L31.1934 27.5955Z" fill="#AA946C"/>
</svg>
