<svg width="50" height="49" viewBox="0 0 50 49" fill="none" xmlns="http://www.w3.org/2000/svg">
<path d="M10.6084 21.3889C11.8498 21.3889 12.9001 22.4393 12.9001 23.6806V46.5973C12.9001 47.9341 11.8498 48.8889 10.6084 48.8889H2.96954C1.63274 48.8889 0.677874 47.9341 0.677874 46.5973V23.6806C0.677874 22.4393 1.63274 21.3889 2.96954 21.3889H10.6084ZM6.78899 45.0695C8.03031 45.0695 9.08066 44.1146 9.08066 42.7778C9.08066 41.5365 8.03031 40.4862 6.78899 40.4862C5.45218 40.4862 4.49732 41.5365 4.49732 42.7778C4.49732 44.1146 5.45218 45.0695 6.78899 45.0695ZM37.3446 7.82989C37.3446 11.8403 34.8619 14.132 34.098 16.8056H43.8376C46.9887 16.8056 49.4713 19.4792 49.4713 22.4393C49.5668 24.158 48.8029 25.9723 47.6571 27.1181C48.6119 29.3143 48.421 32.4653 46.7977 34.6615C47.5616 37.1441 46.7977 40.1997 45.1744 41.823C45.6519 43.5417 45.4609 44.974 44.6015 46.1198C42.6918 48.8889 37.822 48.8889 33.7161 48.8889H33.4296C28.8463 48.8889 25.1223 47.2657 22.0668 45.9289C20.539 45.2605 18.5338 44.4011 17.006 44.4011C16.4331 44.3056 15.9557 43.8282 15.9557 43.2553V22.8212C15.9557 22.5348 16.0511 22.2483 16.2421 21.9618C20.0616 18.2379 21.6848 14.323 24.7404 11.1719C26.1727 9.73962 26.6501 7.63892 27.223 5.53823C27.605 3.81947 28.4643 2.71797e-05 30.4696 2.71797e-05C32.7612 2.71797e-05 37.3446 0.763917 37.3446 7.82989Z" fill="#AA946C"/>
</svg>
