<svg width="32" height="43" viewBox="0 0 32 43" fill="none" xmlns="http://www.w3.org/2000/svg">
<path d="M30.2541 6.1667H23.2836C23.8565 7.12156 24.2385 8.17191 24.6204 9.22226H30.2541C30.827 9.22226 31.4 9.79517 31.4 10.3681V14.1875C31.4 14.8559 30.827 15.3334 30.2541 15.3334H25.1934C24.525 22.4948 19.2732 27.3646 11.9208 27.5556L26.3392 40.9237C27.1031 41.5921 26.6256 42.8334 25.5753 42.8334H17.7454C17.3635 42.8334 17.1725 42.7379 16.8861 42.5469L1.13084 28.033C0.939868 27.8421 0.844382 27.4601 0.844382 27.1737V22.1129C0.844382 21.54 1.32181 20.9671 1.99022 20.9671H10.0111C13.926 20.9671 16.5041 18.8664 17.077 15.3334H1.99022C1.32181 15.3334 0.844382 14.8559 0.844382 14.1875V10.3681C0.844382 9.79517 1.32181 9.22226 1.99022 9.22226H15.9312C14.6899 7.59899 12.6847 6.64413 10.1065 6.64413H1.99022C1.32181 6.64413 0.844382 6.1667 0.844382 5.4983V1.20142C0.844382 0.628502 1.32181 0.0555847 1.99022 0.0555847H30.2541C30.827 0.0555847 31.4 0.628502 31.4 1.20142V5.02087C31.4 5.68927 30.827 6.1667 30.2541 6.1667Z" fill="#AA946C"/>
</svg>
