<svg width="100" height="95" viewBox="0 0 100 95" fill="none" xmlns="http://www.w3.org/2000/svg">
<path fill-rule="evenodd" clip-rule="evenodd" d="M35.7155 14.1175C34.8359 12.0566 35.7934 9.67282 37.8544 8.79316C39.9153 7.9135 42.2991 8.87116 43.1787 10.932C44.0583 12.9929 43.1008 15.3767 41.0398 16.2564C38.9789 17.136 36.5951 16.1784 35.7155 14.1175ZM48.686 20.4534C51.6044 17.0474 52.5219 12.1512 50.6419 7.7466C48.003 1.56389 40.8518 -1.30903 34.6689 1.32995C28.486 3.96893 25.6134 11.1202 28.2523 17.3029C30.1322 21.7075 34.3023 24.4323 38.7808 24.6811L39.8981 49.6921L23.4073 46.6131C24.6839 43.657 24.7922 40.2029 23.4283 37.0075C20.7894 30.8248 13.6381 27.952 7.45536 30.5909C1.27265 33.2298 -1.60019 40.3812 1.03871 46.5639C3.23157 51.7015 8.54035 54.5538 13.8199 53.8567L31.7775 77.5581L33.4369 87.9441C34.2699 93.1571 39.7801 96.1995 44.6354 94.1271L94.7822 72.7235C99.6378 70.651 101.253 64.5674 98.0646 60.3597L91.713 51.9764L87.0214 22.6129C91.1769 19.2829 92.7901 13.4762 90.5973 8.33852C87.9584 2.15581 80.8072 -0.717115 74.6243 1.92187C68.4414 4.56085 65.5687 11.7121 68.2076 17.8949C69.5715 21.0902 72.1408 23.4014 75.1581 24.5248L65.9732 38.5627L48.686 20.4534ZM80.9937 16.8489C80.9933 16.8491 80.994 16.8488 80.9937 16.8489C83.0546 15.9693 84.0137 13.5849 83.1341 11.524C82.2544 9.46307 79.8707 8.50542 77.8097 9.38508C75.7488 10.2647 74.7912 12.6485 75.6708 14.7094C76.5502 16.7698 78.9331 17.7274 80.9937 16.8489ZM15.9651 40.193C16.8445 42.2533 15.8877 44.6364 13.8279 45.5166C11.767 46.3962 9.38155 45.4393 8.50192 43.3784C7.62229 41.3175 8.57991 38.9337 10.6408 38.0541C12.7017 37.1745 15.0855 38.1321 15.9651 40.193ZM41.4499 86.6639L40.1303 78.4044L86.5455 58.5934L91.5968 65.2603L41.4499 86.6639ZM80.237 31.5831L83.3601 51.1302L36.9448 70.9411L24.9906 55.1634L43.4349 58.6076C44.6519 58.8345 45.9063 58.4937 46.8408 57.6815C47.7754 56.8692 48.2881 55.675 48.2327 54.4379L47.1686 30.6156L63.6344 47.8641C64.4893 48.76 65.7064 49.2159 66.9393 49.103C68.1726 48.99 69.2864 48.32 69.9644 47.2842L80.237 31.5831Z" fill="#39404C"/>
</svg>
