<svg width="105" height="106" viewBox="0 0 105 106" fill="none" xmlns="http://www.w3.org/2000/svg">
<path fill-rule="evenodd" clip-rule="evenodd" d="M72.613 3.29109C71.7856 1.31744 69.5148 0.388212 67.5412 1.21564L53.2465 7.20844C51.2729 8.03586 50.3437 10.3066 51.1711 12.2803L53.4184 17.6408C53.8321 18.6276 53.3675 19.763 52.3807 20.1767C51.3938 20.5904 50.2584 20.1258 49.8447 19.139L47.5974 13.7785C46.77 11.8048 44.4992 10.8756 42.5256 11.703L28.2309 17.6958C26.2572 18.5233 25.3281 20.794 26.1555 22.7677L28.4028 28.1282C28.8165 29.115 28.3517 30.2505 27.3651 30.6641C26.3784 31.0778 25.2428 30.6132 24.8291 29.6264L22.5818 24.2659C21.7544 22.2922 19.4837 21.363 17.51 22.1904L3.21535 28.1832C1.24161 29.0107 0.312466 31.2814 1.13989 33.2551L5.63449 43.9761C8.4269 50.6368 15.3289 54.3234 22.1595 53.3258L34.3339 82.3653L30.7602 83.8635C29.2221 84.5084 28.2689 86.0652 28.3943 87.7286L29.1052 97.1626L28.1075 97.5809C26.1338 98.4084 25.2046 100.679 26.032 102.653C26.8595 104.626 29.1302 105.556 31.1039 104.728L34.6775 103.23L99.0034 76.2624L102.577 74.7642C104.551 73.9368 105.48 71.6661 104.652 69.6924C103.825 67.7186 101.554 66.7895 99.5806 67.6169L98.5827 68.0353L92.3534 60.9147C91.2552 59.6591 89.4769 59.2475 87.9387 59.8923L84.365 61.3905L72.1907 32.351C77.6907 28.1792 79.9 20.6728 77.1076 14.0121L72.613 3.29109ZM65.2321 35.7977L77.2177 64.3869L41.4812 79.3689L29.4956 50.7797L65.2321 35.7977ZM91.0488 71.1938L36.6392 94.0041L36.3325 89.931L40.9039 88.0145L83.7878 70.0361L88.3594 68.1195L91.0488 71.1938ZM66.9639 9.86115L69.9603 17.0085C71.6152 20.9558 69.7567 25.4973 65.8094 27.1522L22.9255 45.1306C18.9781 46.7855 14.4367 44.927 12.7818 40.9797L9.78541 33.8323L16.9327 30.8359L17.6818 32.6228C19.7504 37.557 25.4273 39.88 30.3615 37.8114C35.2956 35.7429 37.6187 30.066 35.5501 25.1318L34.801 23.3449L41.9483 20.3485L42.6974 22.1354C44.766 27.0696 50.4429 29.3926 55.3771 27.324C60.3112 25.2554 62.6343 19.5786 60.5657 14.6444L59.8166 12.8576L66.9639 9.86115Z" fill="#B39B6B"/>
</svg>
