<svg width="25" height="24" viewBox="0 0 25 24" fill="none" xmlns="http://www.w3.org/2000/svg">
<path d="M23.3969 16.9688C23.7719 17.1562 24.0531 17.5781 24.0531 18.0469C24.0531 18.0938 24.0531 18.1875 24.0531 18.2812L22.9281 23.1562C22.7875 23.6719 22.3656 24 21.85 24C9.80313 24 0.1 14.2969 0.1 2.25C0.1 1.73438 0.428125 1.3125 0.94375 1.17188L5.81875 0.046875C5.9125 0.046875 6.00625 0 6.05313 0C6.52188 0 6.94375 0.28125 7.13125 0.703125L9.38125 5.95312C9.42813 6.09375 9.475 6.23438 9.475 6.375C9.475 6.75 9.2875 7.07812 9.05313 7.26562L6.19375 9.60938C7.92813 13.2656 10.8344 16.1719 14.4906 17.9062L16.8344 15.0469C17.0219 14.8125 17.35 14.625 17.6781 14.625C17.8656 14.625 18.0063 14.6719 18.1469 14.7188L23.3969 16.9688Z" fill="white"/>
</svg>
