<svg width="19" height="25" viewBox="0 0 19 25" fill="none" xmlns="http://www.w3.org/2000/svg">
<path d="M8.1625 23.8315C1.31875 13.9878 0.1 12.9565 0.1 9.30029C0.1 4.33154 4.08438 0.300293 9.1 0.300293C14.0688 0.300293 18.1 4.33154 18.1 9.30029C18.1 12.9565 16.8344 13.9878 9.99063 23.8315C9.56875 24.4878 8.58438 24.4878 8.1625 23.8315ZM9.1 13.0503C11.1625 13.0503 12.85 11.4097 12.85 9.30029C12.85 7.23779 11.1625 5.55029 9.1 5.55029C6.99063 5.55029 5.35 7.23779 5.35 9.30029C5.35 11.4097 6.99063 13.0503 9.1 13.0503Z" fill="white"/>
</svg>
