<svg width="25" height="18" viewBox="0 0 25 18" fill="none" xmlns="http://www.w3.org/2000/svg">
<path d="M23.6313 5.95312C23.8188 5.8125 24.1 5.95312 24.1 6.1875V15.75C24.1 17.0156 23.0688 18 21.85 18H2.35C1.08438 18 0.1 17.0156 0.1 15.75V6.1875C0.1 5.95312 0.334375 5.8125 0.521875 5.95312C1.6 6.79688 2.95938 7.82812 7.74063 11.2969C8.725 12 10.4125 13.5469 12.1 13.5469C13.7406 13.5469 15.475 12 16.4125 11.2969C21.1938 7.82812 22.5531 6.79688 23.6313 5.95312ZM12.1 12C10.975 12.0469 9.42813 10.6406 8.63125 10.0781C2.39688 5.57812 1.92813 5.15625 0.521875 4.03125C0.240625 3.84375 0.1 3.51562 0.1 3.14062V2.25C0.1 1.03125 1.08438 0 2.35 0H21.85C23.0688 0 24.1 1.03125 24.1 2.25V3.14062C24.1 3.51562 23.9125 3.84375 23.6313 4.03125C22.225 5.15625 21.7563 5.57812 15.5219 10.0781C14.725 10.6406 13.1781 12.0469 12.1 12Z" fill="white"/>
</svg>
