<?xml version="1.0" encoding="UTF-8" standalone="no"?>
<!-- Uploaded to: SVG Repo, www.svgrepo.com, Generator: SVG Repo Mixer Tools -->

<svg
   fill="#000000"
   width="500"
   height="500"
   viewBox="0 0 15 15"
   version="1.1"
   id="svg193"
   sodipodi:docname="facebook-white1.svg"
   inkscape:version="1.2 (dc2aedaf03, 2022-05-15)"
   xmlns:inkscape="http://www.inkscape.org/namespaces/inkscape"
   xmlns:sodipodi="http://sodipodi.sourceforge.net/DTD/sodipodi-0.dtd"
   xmlns="http://www.w3.org/2000/svg"
   xmlns:svg="http://www.w3.org/2000/svg">
  <defs
     id="defs197" />
  <sodipodi:namedview
     id="namedview195"
     pagecolor="#ffffff"
     bordercolor="#666666"
     borderopacity="1.0"
     inkscape:showpageshadow="2"
     inkscape:pageopacity="0.0"
     inkscape:pagecheckerboard="0"
     inkscape:deskcolor="#d1d1d1"
     showgrid="false"
     inkscape:window-width="1920"
     inkscape:window-height="1051"
     inkscape:window-x="-9"
     inkscape:window-y="-9"
     inkscape:window-maximized="1"
     inkscape:current-layer="svg193" />
  <path
     d="M 7.4999903,0 C 3.3749956,0 0,3.3810207 0,7.5451881 0,11.310245 2.7449965,14.435241 6.3299918,15 V 9.7289209 H 4.4249943 V 7.5451881 h 1.9049975 v -1.66417 c 0,-1.8900583 1.1174986,-2.9292139 2.8349964,-2.9292139 0.8174989,0 1.6724978,0.1430722 1.6724978,0.1430722 V 4.9548143 H 9.8924872 c -0.9299988,0 -1.2224984,0.5798186 -1.2224984,1.1747126 V 7.5451881 H 10.754986 L 10.417487,9.7289209 H 8.6699888 V 15 C 10.437287,14.719729 12.046634,13.814384 13.207408,12.447292 14.368181,11.080275 15.004031,9.3415719 14.999981,7.5451881 14.999981,3.3810207 11.624985,0 7.4999903,0 Z"
     id="path191"
     style="stroke-width:0.751504;fill:#ffffff;fill-opacity:1" />
</svg>
