<svg width="113" height="113" viewBox="0 0 113 113" fill="none" xmlns="http://www.w3.org/2000/svg">
<g clip-path="url(#clip0_592_990)">
<path d="M34.0786 34.2801C34.0786 42.1545 28.6735 48.5383 22.0062 48.5383C15.3395 48.5383 9.93555 42.1545 9.93555 34.2801C9.93555 26.4062 15.3395 20.0229 22.0062 20.0229C28.6735 20.0229 34.0786 26.4062 34.0786 34.2801Z" fill="white"/>
<path d="M35.7664 59.4227C36.6382 58.8911 37.6029 58.5447 38.6019 58.3793C36.5735 55.5173 35.1364 52.4472 34.3061 48.7729C34.0789 47.4302 32.2406 47.2727 30.8737 48.3865C28.3166 50.4711 25.3337 51.8661 22.0059 51.8661C18.614 51.8661 15.4939 50.5167 12.9924 48.2582C12.1942 47.5371 11.018 47.428 10.0995 47.9888C5.35029 50.8902 1.75535 55.4948 0.187099 60.964C-0.234213 62.4293 0.061668 64.0127 0.980793 65.2322C1.90104 66.4506 3.3388 67.1689 4.86542 67.1689H26.6162C29.22 64.1651 32.2929 61.5428 35.7664 59.4227Z" fill="white"/>
<path d="M78.4219 34.2801C78.4219 42.1545 83.8263 48.5383 90.4937 48.5383C97.1615 48.5383 102.565 42.1545 102.565 34.2801C102.565 26.4062 97.1615 20.0229 90.4937 20.0229C83.8263 20.0229 78.4219 26.4062 78.4219 34.2801Z" fill="white"/>
<path d="M76.734 59.4227C75.8621 58.8911 74.8969 58.5447 73.8984 58.3793C75.9268 55.5173 77.364 52.4472 78.1942 48.7729C78.422 47.4302 80.2603 47.2727 81.6272 48.3865C84.1843 50.4711 87.1667 51.8661 90.4945 51.8661C93.8858 51.8661 97.0065 50.5167 99.5085 48.2582C100.307 47.5371 101.482 47.428 102.401 47.9888C107.151 50.8902 110.746 55.4948 112.313 60.964C112.734 62.4293 112.439 64.0127 111.52 65.2322C110.599 66.4506 109.162 67.1689 107.636 67.1689H85.8842C83.2804 64.1651 80.208 61.5428 76.734 59.4227Z" fill="white"/>
<path d="M89.1422 82.9412C86.7808 74.6983 81.4247 67.7284 74.3338 63.2582C72.9349 62.3773 71.1191 62.5196 69.8783 63.6131C66.0724 66.9651 61.3631 68.9602 56.25 68.9602C51.0362 68.9602 46.2426 66.8869 42.3979 63.4168C41.1705 62.3081 39.3643 62.1411 37.953 63.0039C30.6534 67.4612 25.1286 74.5374 22.7194 82.9417C22.0719 85.1962 22.5259 87.6262 23.9378 89.5016C25.353 91.3747 27.5619 92.4778 29.9087 92.4778H81.9528C84.3002 92.4778 86.5108 91.3781 87.9255 89.5016C89.3379 87.6257 89.7896 85.1979 89.1422 82.9412Z" fill="white"/>
<path d="M74.8017 41.9329C74.8017 54.0339 66.4958 63.8451 56.2499 63.8451C46.0045 63.8451 37.6992 54.0339 37.6992 41.9329C37.6992 29.8307 46.0045 20.0229 56.2499 20.0229C66.4964 20.0229 74.8017 29.8313 74.8017 41.9329Z" fill="white"/>
</g>
<defs>
<clipPath id="clip0_592_990">
<rect width="112.5" height="112.5" fill="white"/>
</clipPath>
</defs>
</svg>
