<svg width="64" height="67" viewBox="0 0 64 67" fill="none" xmlns="http://www.w3.org/2000/svg">
<path d="M31.5262 14.4808C31.5347 14.4808 31.5432 14.4808 31.5601 14.4808C31.5687 14.4808 31.5771 14.4808 31.5941 14.4808C35.6156 14.4808 38.8719 11.2563 38.8719 7.27403C38.8719 6.6426 38.7869 6.028 38.6339 5.44708C37.8262 2.34043 34.978 0.0420086 31.5856 0.0420086C31.577 0.0420086 31.5686 0.0420086 31.5516 0.0420086C31.5431 0.0420086 31.5346 0.0420086 31.5176 0.0420086C27.4961 0.0335895 24.2397 3.26653 24.2397 7.24036C24.2397 7.87179 24.3248 8.48638 24.4778 9.0673C25.2855 12.1824 28.1337 14.4808 31.5262 14.4808Z" fill="white"/>
<path d="M31.5942 14.523H31.5261C28.1832 14.523 25.2679 12.2838 24.4366 9.07783C24.2778 8.47494 24.1973 7.85664 24.1973 7.24044C24.1973 3.24801 27.4742 0 31.5019 0H31.5856C34.9276 0 37.8428 2.23561 38.6751 5.43665C38.8338 6.03971 38.9143 6.65801 38.9143 7.27412C38.9144 11.2711 35.6306 14.523 31.5942 14.523ZM31.5019 0.0841912C27.5209 0.0841912 24.2823 3.29449 24.2823 7.24044C24.2823 7.84948 24.362 8.46054 24.519 9.05678C25.3406 12.2257 28.2221 14.4388 31.5262 14.4388H31.5942C35.5837 14.4388 38.8295 11.2247 38.8295 7.27412C38.8295 6.66516 38.7498 6.05402 38.593 5.45778C37.7702 2.29387 34.8887 0.0841912 31.5856 0.0841912H31.5019Z" fill="white"/>
<path d="M39.2203 17.5034H37.4008L35.5814 26.495H33.4302L32.8691 20.4585C33.0391 19.5408 33.4388 18.6821 33.8639 17.7812C33.8639 17.7812 33.9403 17.6213 33.9828 17.5371C33.9743 17.5371 33.9659 17.5371 33.9574 17.5371C33.9659 17.5287 33.9659 17.5118 33.9743 17.5034C31.4236 17.5034 31.6278 17.5034 29.128 17.5034C29.1365 17.5118 29.1365 17.5203 29.145 17.5371H29.1365C29.179 17.6213 29.2555 17.7812 29.2555 17.7812C29.6296 18.5642 29.9782 19.3135 30.1737 20.1049C30.1992 20.2144 30.2248 20.3238 30.2417 20.4333L29.6806 26.5035H27.5295L25.7101 17.5118H23.8909C21.1277 17.5118 18.8916 19.7261 18.8916 22.4623V36.8842C18.8916 39.6204 21.1277 41.8347 23.8909 41.8347H24.5285V62.7899C24.5285 64.7178 26.1099 66.2838 28.0569 66.2838C29.8679 66.2838 31.3642 64.9283 31.5597 63.1771C31.7553 64.9199 33.2517 66.2838 35.0627 66.2838C37.0097 66.2838 38.5911 64.7178 38.5911 62.7899V41.8178H39.2288C41.992 41.8178 44.228 39.6035 44.228 36.8673V22.4454C44.2111 19.7176 41.9749 17.5034 39.2203 17.5034Z" fill="white"/>
<path d="M50.4095 14.4808C50.418 14.4808 50.4264 14.4808 50.4435 14.4808C50.452 14.4808 50.4604 14.4808 50.4773 14.4808C54.4989 14.4808 57.7554 11.2563 57.7554 7.27402C57.7554 6.64258 57.6703 6.02799 57.5172 5.44707C56.7095 2.34041 53.8613 0.0419922 50.4689 0.0419922C50.4604 0.0419922 50.452 0.0419922 50.4349 0.0419922C50.4264 0.0419922 50.418 0.0419922 50.4011 0.0419922C46.3795 0.0419922 43.123 3.26652 43.123 7.24876C43.123 7.88019 43.2081 8.49479 43.3612 9.07571C44.1689 12.1824 47.0171 14.4808 50.4095 14.4808Z" fill="white"/>
<path d="M50.4775 14.5231H50.4095C47.0676 14.5231 44.1523 12.2875 43.32 9.08633C43.1612 8.48352 43.0806 7.86522 43.0806 7.24886C43.0806 3.2518 46.3645 0 50.4011 0H50.469C53.811 0 56.7263 2.23561 57.5586 5.43665C57.7174 6.03945 57.798 6.65775 57.798 7.27412C57.7979 11.2712 54.5139 14.5231 50.4775 14.5231ZM50.401 0.0842754C46.4114 0.0842754 43.1655 3.29827 43.1655 7.24894C43.1655 7.85815 43.2452 8.46921 43.4022 9.06529C44.2249 12.2293 47.1063 14.439 50.4094 14.439H50.4774C54.467 14.439 57.7129 11.2249 57.7129 7.27429C57.7129 6.66508 57.6332 6.05402 57.4762 5.45795C56.6535 2.29396 53.7721 0.0842754 50.469 0.0842754H50.401Z" fill="white"/>
<path d="M58.1037 17.5034H56.2842L54.4648 26.495H52.3137L51.7524 20.4585C51.9225 19.5408 52.3221 18.6821 52.7473 17.7812C52.7473 17.7812 52.8238 17.6213 52.8663 17.5371C52.8576 17.5371 52.8492 17.5371 52.8407 17.5371C52.8492 17.5287 52.8492 17.5118 52.8576 17.5034C50.307 17.5034 50.511 17.5034 48.0114 17.5034C48.0201 17.5118 48.0201 17.5203 48.0285 17.5371H48.02C48.0625 17.6213 48.1388 17.7812 48.1388 17.7812C48.5129 18.5642 48.8615 19.3135 49.0571 20.1049C49.0827 20.2144 49.1082 20.3238 49.1252 20.4333L48.5639 26.5035H46.6084V36.8842C46.6084 39.3764 45.3418 41.5821 43.4116 42.8955V62.7899C43.4116 64.7178 44.993 66.2838 46.94 66.2838C48.7511 66.2838 50.2474 64.9283 50.443 63.1771C50.6385 64.9199 52.1349 66.2838 53.9458 66.2838C55.8928 66.2838 57.4742 64.7178 57.4742 62.7899V41.8178H58.1119C60.8751 41.8178 63.1112 39.6035 63.1112 36.8673V22.4454C63.0944 19.7176 60.8584 17.5034 58.1037 17.5034Z" fill="white"/>
<path d="M12.6428 14.4808C12.6513 14.4808 12.6598 14.4808 12.6768 14.4808C12.6853 14.4808 12.6938 14.4808 12.7108 14.4808C16.7323 14.4808 19.9887 11.2563 19.9887 7.27402C19.9887 6.64258 19.9037 6.02799 19.7506 5.44707C18.9429 2.34041 16.0947 0.0419922 12.7023 0.0419922C12.6938 0.0419922 12.6853 0.0419922 12.6683 0.0419922C12.6598 0.0419922 12.6513 0.0419922 12.6343 0.0419922C8.61278 0.0419922 5.35645 3.26652 5.35645 7.24876C5.35645 7.88019 5.44147 8.49479 5.59451 9.07571C6.40221 12.1824 9.25044 14.4808 12.6428 14.4808Z" fill="white"/>
<path d="M12.7108 14.523H12.6428C9.30089 14.523 6.38566 12.2874 5.55339 9.08625C5.39448 8.48336 5.31396 7.86514 5.31396 7.24886C5.31396 3.2518 8.59784 0 12.6343 0H12.7023C16.0443 0 18.9596 2.23561 19.7919 5.43665C19.9507 6.03962 20.0312 6.65784 20.0312 7.27412C20.0312 11.2711 16.7473 14.523 12.7108 14.523ZM12.6343 0.0841912C8.64469 0.0841912 5.39899 3.29819 5.39899 7.24886C5.39899 7.85798 5.47865 8.46913 5.63569 9.0652C6.45827 12.2291 9.33974 14.4388 12.6428 14.4388H12.7108C16.7004 14.4388 19.9462 11.2247 19.9462 7.27412C19.9462 6.66508 19.8665 6.05394 19.7095 5.45778C18.8869 2.29387 16.0054 0.0841912 12.7023 0.0841912H12.6343Z" fill="white"/>
<path d="M16.5027 36.8758V26.495H14.5472L13.9861 20.4585C14.1561 19.5408 14.5557 18.6821 14.9808 17.7812C14.9808 17.7812 15.0573 17.6213 15.0998 17.5371C15.0913 17.5371 15.0828 17.5371 15.0743 17.5371C15.0828 17.5287 15.0828 17.5118 15.0913 17.5034C12.5407 17.5034 12.7447 17.5034 10.2451 17.5034C10.2536 17.5118 10.2536 17.5203 10.2621 17.5371H10.2536C10.2961 17.6213 10.3726 17.7812 10.3726 17.7812C10.7467 18.5642 11.0953 19.3135 11.2909 20.1049C11.3164 20.2144 11.3419 20.3238 11.3589 20.4333L10.7978 26.5035H8.6467L6.82724 17.5118H4.99927C2.23607 17.5118 0 19.7261 0 22.4623V36.8842C0 39.6204 2.23607 41.8347 4.99927 41.8347H5.63694V62.7899C5.63694 64.7178 7.21834 66.2838 9.16534 66.2838C10.9763 66.2838 12.4727 64.9283 12.6682 63.1771C12.8638 64.9199 14.3602 66.2838 16.1711 66.2838C18.1181 66.2838 19.6995 64.7178 19.6995 62.7899V42.8871C17.7695 41.5653 16.5027 39.3679 16.5027 36.8758Z" fill="white"/>
</svg>
