<svg width="255" height="488" viewBox="0 0 255 488" fill="none" xmlns="http://www.w3.org/2000/svg">
<path fill-rule="evenodd" clip-rule="evenodd" d="M284.789 149.117C258.784 133.511 230.769 121.845 201.371 114.33C173.624 107.263 144.976 103.925 116.059 104.136H115.639H114.648H114.168L113.207 104.166L111.796 104.198H111.225L110.355 104.226C85.0105 115.652 63.57 134.233 48.5556 157.354C33.9014 179.935 25.3733 206.905 25.3733 235.889C25.3733 240.73 25.5831 245.388 26.0355 249.899C26.4562 254.471 27.1459 259.071 28.0476 263.64C28.198 264.392 28.1366 265.233 27.7467 265.985L0 324.195C4.14378 327.112 8.19855 329.487 12.1622 331.441C16.8453 333.725 21.5008 335.441 26.0652 336.674C27.6269 337.094 28.767 338.536 28.767 340.251C28.767 379.699 31.0195 399.693 40.8391 408.832C50.449 417.792 68.7956 417.191 100.627 415.207L101.107 415.177C103.148 415.177 104.801 416.832 104.801 418.876V488L266.114 484.663L266.954 344.099C266.924 343.076 267.286 342.026 268.095 341.274C282.419 327.834 294.011 311.536 301.907 293.288C309.505 275.727 313.738 256.305 313.738 235.89C313.738 219.141 310.887 203.085 305.662 188.173C300.735 174.012 293.618 160.873 284.789 149.117ZM211.789 53.684C184.705 46.7384 156.027 45.145 125.698 49.2346L119.182 73.6189L119.152 73.708V73.7971L112.997 96.799H113.837L114.408 96.7704H115.31H115.849H116.78H117.291C145.996 96.6187 173.985 99.5965 201.1 106.242C229.748 113.278 257.404 124.344 283.891 140.007C284.279 139.886 284.701 139.797 285.121 139.827C286.801 132.761 288.064 125.877 289.294 119.05C290.794 110.964 292.267 102.875 294.367 94.5446C267.042 74.3392 239.477 60.9891 211.789 53.684ZM119.211 44.9636L119.242 44.9042L119.272 44.8437V44.7821L119.302 44.7524V44.7238V44.693L119.331 44.6644V44.6039H119.361V44.5424V44.5127L119.391 44.484V44.4533L119.42 44.4246V44.3939L119.452 44.3334L119.482 44.3037V44.274L119.512 44.2146L119.541 44.1828V44.1541L119.571 44.1244V44.0947L119.601 44.0661L119.632 44.0353V44.0045L119.662 43.9759V43.9409L119.692 43.9122L119.721 43.8825V43.8528L119.751 43.8242L119.781 43.7923V43.7605L119.81 43.7319H119.842L119.872 43.6714L119.901 43.6109L119.961 43.5494L119.99 43.5197L120.02 43.4603H120.052L120.082 43.3988L120.111 43.3691L120.141 43.3394L120.171 43.3107H120.2L120.232 43.2799V43.2513L120.262 43.2216H120.291L120.321 43.1898L120.351 43.1611L120.38 43.1314V43.1017H120.41L120.442 43.0731L120.472 43.0434L120.501 43.0115H120.531L120.561 42.9829L120.622 42.9224L120.681 42.8938L120.741 42.863L120.8 42.8344L120.832 42.7718H120.861L120.891 42.7431H120.921L120.95 42.7134H120.98L121.01 42.6837H121.042L121.071 42.6551H121.101L121.131 42.6254H121.16L121.19 42.5936H121.222L121.251 42.5649L121.311 42.5352H121.34L121.4 42.5055L121.461 42.4758H121.52L121.55 42.4461H121.58H121.609L121.641 42.4153H121.671H121.701L121.73 42.3856H121.79H121.821L121.851 42.3559H121.881H121.91L121.94 42.3273H121.97H122.031H122.061L122.09 42.2976H122.12H122.15H122.179H122.211L122.271 42.2679H122.3H122.36H122.451L123.502 42.0875C153.259 37.5767 182.838 38.6291 212.206 46.1761L214.162 46.6779L216.924 47.4301C246.592 55.5171 274.459 69.8602 300.613 90.0338C300.882 90.1844 301.122 90.3956 301.302 90.6353L301.333 90.664L301.393 90.7265L301.604 90.996V91.0247L301.632 91.0554L301.662 91.0862C301.843 91.3556 301.963 91.6559 302.052 91.9572H302.082C302.291 92.6181 302.324 93.3405 302.111 94.0301C300.941 98.4518 300.19 102.511 299.44 106.57L298.659 110.838L331.421 89.9415L226.952 8.63918L95.9097 26.7441L114.528 62.5242L119.211 44.9636ZM150.561 204.439C141.402 197.194 132.545 191.359 124.556 187.242C111.194 180.296 100.834 178.069 96.6609 182.25C92.4875 186.429 94.7082 196.802 101.646 210.181C105.76 218.149 111.615 227.019 118.821 236.219C123.476 230.719 128.581 225.186 134.046 219.712C139.542 214.21 145.066 209.1 150.561 204.439ZM162.212 279.638C171.371 286.882 180.229 292.716 188.187 296.866C201.549 303.812 211.94 306.006 216.085 301.827C220.257 297.648 218.066 287.273 211.129 273.894C206.985 265.927 201.16 257.057 193.923 247.886C189.268 253.359 184.193 258.921 178.697 264.393C173.232 269.895 167.708 274.975 162.212 279.638ZM139.272 259.162C144.945 264.875 150.711 270.135 156.387 274.916C162.061 270.135 167.797 264.875 173.503 259.162C179.178 253.479 184.433 247.735 189.207 242.053C184.433 236.37 179.178 230.597 173.503 224.914C167.796 219.233 162.061 213.94 156.387 209.189C150.711 213.941 144.946 219.233 139.272 224.914C133.596 230.597 128.31 236.37 123.565 242.053C128.31 247.705 133.565 253.479 139.272 259.162ZM162.212 204.439C167.708 209.1 173.232 214.21 178.697 219.683C184.194 225.155 189.269 230.719 193.923 236.219C201.16 227.019 206.985 218.149 211.129 210.181C217.975 196.983 220.228 186.67 216.234 182.399L216.083 182.249C211.939 178.068 201.548 180.295 188.186 187.241C180.229 191.359 171.371 197.194 162.212 204.439ZM114.047 242.053C106.059 232.04 99.6339 222.298 95.0992 213.549C86.6305 197.223 84.7403 183.753 91.4354 177.017C98.1623 170.312 111.615 172.177 127.95 180.687C136.687 185.227 146.387 191.661 156.387 199.628C166.387 191.66 176.086 185.227 184.823 180.687C201.16 172.177 214.611 170.312 221.309 177.017L221.549 177.29C227.976 184.084 226.025 197.434 217.677 213.579C213.142 222.298 206.686 232.039 198.728 242.053C206.686 252.066 213.141 261.777 217.677 270.527C226.144 286.853 228.006 300.323 221.31 307.027C214.613 313.793 201.161 311.898 184.825 303.42C176.087 298.85 166.388 292.415 156.388 284.447C146.388 292.415 136.688 298.85 127.951 303.42C111.616 311.898 98.1623 313.793 91.4364 307.058C84.7414 300.353 86.6326 286.853 95.1003 270.527C99.6043 261.777 106.059 252.066 114.047 242.053ZM134.046 264.393C128.582 258.922 123.476 253.36 118.821 247.857C111.614 257.057 105.79 265.927 101.646 273.924C94.7093 287.273 92.4875 297.647 96.6609 301.827C100.834 306.007 111.194 303.812 124.556 296.866C132.545 292.716 141.373 286.882 150.561 279.638C145.066 274.975 139.542 269.895 134.046 264.393ZM234.311 229.546C234.641 229.214 234.852 228.734 234.852 228.222C234.852 227.742 234.641 227.26 234.311 226.928C233.98 226.598 233.501 226.388 232.989 226.388C232.51 226.388 232.029 226.598 231.698 226.928C231.368 227.26 231.157 227.71 231.157 228.222C231.157 228.735 231.368 229.215 231.698 229.516C232.029 229.846 232.51 230.057 232.989 230.057C233.532 230.056 233.98 229.876 234.311 229.546ZM242.208 228.222C242.208 230.748 241.187 233.063 239.505 234.747C237.823 236.429 235.543 237.451 232.989 237.451C230.466 237.451 228.156 236.429 226.473 234.747C224.822 233.093 223.802 230.778 223.802 228.222C223.802 225.696 224.823 223.382 226.473 221.727C228.186 220.044 230.468 218.993 232.989 218.993C235.543 218.993 237.856 220.044 239.505 221.698C241.187 223.382 242.208 225.696 242.208 228.222ZM77.5017 253.209C76.6911 253.99 76.2112 255.072 76.2112 256.305C76.2112 257.447 76.6318 258.499 77.3215 259.251L77.5017 259.403C78.2825 260.214 79.394 260.694 80.5944 260.694C81.7959 260.694 82.9063 260.214 83.6861 259.403C84.4669 258.621 84.9776 257.507 84.9776 256.305C84.9776 255.101 84.4669 253.99 83.6861 253.209C82.9052 252.397 81.7948 251.914 80.5944 251.914C79.3632 251.914 78.2825 252.397 77.5017 253.209ZM68.8231 256.305C68.8231 253.057 70.1454 250.14 72.2772 248.008C74.4397 245.842 77.3512 244.52 80.5955 244.52C83.8386 244.52 86.7809 245.842 88.9137 247.976C91.0444 250.113 92.3656 253.059 92.3656 256.306C92.3656 259.554 91.0434 262.53 88.9137 264.634C86.7809 266.77 83.8376 268.093 80.5955 268.093C77.3512 268.093 74.41 266.77 72.2772 264.634L72.0377 264.364C70.0564 262.257 68.8231 259.403 68.8231 256.305ZM166.235 232.19C163.715 229.664 160.231 228.101 156.387 228.101C152.512 228.101 149.031 229.665 146.538 232.161C144.015 234.687 142.454 238.174 142.454 242.053C142.454 245.901 144.014 249.39 146.538 251.914C149.06 254.411 152.543 255.975 156.387 255.975C160.23 255.975 163.715 254.441 166.235 251.914C168.758 249.39 170.29 245.901 170.29 242.053C170.29 238.174 168.758 234.687 166.235 232.19ZM156.387 220.705C162.242 220.705 167.558 223.111 171.431 226.96C175.304 230.836 177.677 236.16 177.677 242.053C177.677 247.915 175.305 253.238 171.431 257.115C167.558 260.995 162.242 263.37 156.387 263.37C150.501 263.37 145.156 260.996 141.312 257.115C137.468 253.268 135.065 247.945 135.065 242.053C135.065 236.161 137.467 230.837 141.312 226.99C145.186 223.08 150.531 220.705 156.387 220.705ZM168.248 159.398C169.84 158.165 172.18 158.437 173.414 160.061C174.644 161.655 174.343 164 172.751 165.233L158.848 175.966C158.188 176.566 157.316 176.928 156.386 176.928C155.425 176.928 154.555 176.566 153.893 175.966L140.02 165.233C138.399 164 138.099 161.655 139.36 160.061C140.591 158.437 142.904 158.165 144.525 159.398L152.693 165.712V121.154C152.693 119.109 154.345 117.455 156.386 117.455C158.428 117.455 160.078 119.11 160.078 121.154V165.712L168.248 159.398ZM172.751 318.333C174.343 319.565 174.644 321.91 173.414 323.504C172.18 325.097 169.84 325.398 168.248 324.165L160.079 317.852V362.411C160.079 364.456 158.428 366.109 156.387 366.109C154.346 366.109 152.694 364.455 152.694 362.411V317.852L144.526 324.165C142.905 325.398 140.592 325.097 139.361 323.504C138.101 321.91 138.4 319.565 140.021 318.333L153.894 307.599C154.556 306.999 155.426 306.637 156.387 306.637C157.316 306.637 158.189 306.999 158.849 307.599L172.751 318.333ZM130.833 475.702C128.821 475.732 127.138 474.109 127.108 472.095C127.049 470.082 128.67 468.366 130.682 468.337L235.512 466.262C237.523 466.232 239.204 467.825 239.234 469.871C239.296 471.884 237.673 473.568 235.66 473.629L130.833 475.702ZM130.833 451.771C128.821 451.801 127.138 450.207 127.108 448.162C127.049 446.149 128.67 444.465 130.682 444.403L235.512 442.329C237.523 442.301 239.204 443.923 239.234 445.937C239.296 447.982 237.673 449.666 235.66 449.695L130.833 451.771ZM238.035 6.56729C236.443 5.30591 236.173 2.99002 237.434 1.39658C238.696 -0.196853 241.007 -0.467375 242.599 0.795067L331.605 71.1216C333.196 72.384 333.468 74.6999 332.205 76.2933C330.973 77.8868 328.661 78.1573 327.069 76.8938L238.035 6.56729Z" fill="#39404D"/>
</svg>
