<svg width="277" height="528" viewBox="0 0 277 528" fill="none" xmlns="http://www.w3.org/2000/svg">
<g filter="url(#filter0_d_796_998)">
<path fill-rule="evenodd" clip-rule="evenodd" d="M306.789 163.117C280.784 147.511 252.769 135.845 223.371 128.33C195.624 121.263 166.976 117.925 138.059 118.136H137.639H136.648H136.168L135.207 118.166L133.796 118.198H133.225L132.355 118.226C107.01 129.652 85.57 148.233 70.5556 171.354C55.9014 193.935 47.3733 220.905 47.3733 249.889C47.3733 254.73 47.5831 259.388 48.0355 263.899C48.4562 268.471 49.1459 273.071 50.0476 277.64C50.198 278.392 50.1366 279.233 49.7467 279.985L22 338.195C26.1438 341.112 30.1986 343.487 34.1622 345.441C38.8453 347.725 43.5008 349.441 48.0652 350.674C49.6269 351.094 50.767 352.536 50.767 354.251C50.767 393.699 53.0195 413.693 62.8391 422.832C72.449 431.792 90.7956 431.191 122.627 429.207L123.107 429.177C125.148 429.177 126.801 430.832 126.801 432.876V502L288.114 498.663L288.954 358.099C288.924 357.076 289.286 356.026 290.095 355.274C304.419 341.834 316.011 325.536 323.907 307.288C331.505 289.727 335.738 270.305 335.738 249.89C335.738 233.141 332.887 217.085 327.662 202.173C322.735 188.012 315.618 174.873 306.789 163.117ZM233.789 67.684C206.705 60.7384 178.027 59.145 147.698 63.2346L141.182 87.6189L141.152 87.708V87.7971L134.997 110.799H135.837L136.408 110.77H137.31H137.849H138.78H139.291C167.996 110.619 195.985 113.597 223.1 120.242C251.748 127.278 279.404 138.344 305.891 154.007C306.279 153.886 306.701 153.797 307.121 153.827C308.801 146.761 310.064 139.877 311.294 133.05C312.794 124.964 314.267 116.875 316.367 108.545C289.042 88.3392 261.477 74.9891 233.789 67.684ZM141.211 58.9636L141.242 58.9042L141.272 58.8437V58.7821L141.302 58.7524V58.7238V58.693L141.331 58.6644V58.6039H141.361V58.5424V58.5127L141.391 58.484V58.4533L141.42 58.4246V58.3939L141.452 58.3334L141.482 58.3037V58.274L141.512 58.2146L141.541 58.1828V58.1541L141.571 58.1244V58.0947L141.601 58.0661L141.632 58.0353V58.0045L141.662 57.9759V57.9409L141.692 57.9122L141.721 57.8825V57.8528L141.751 57.8242L141.781 57.7923V57.7605L141.81 57.7319H141.842L141.872 57.6714L141.901 57.6109L141.961 57.5494L141.99 57.5197L142.02 57.4603H142.052L142.082 57.3988L142.111 57.3691L142.141 57.3394L142.171 57.3107H142.2L142.232 57.2799V57.2513L142.262 57.2216H142.291L142.321 57.1898L142.351 57.1611L142.38 57.1314V57.1017H142.41L142.442 57.0731L142.472 57.0434L142.501 57.0115H142.531L142.561 56.9829L142.622 56.9224L142.681 56.8938L142.741 56.863L142.8 56.8344L142.832 56.7718H142.861L142.891 56.7431H142.921L142.95 56.7134H142.98L143.01 56.6837H143.042L143.071 56.6551H143.101L143.131 56.6254H143.16L143.19 56.5936H143.222L143.251 56.5649L143.311 56.5352H143.34L143.4 56.5055L143.461 56.4758H143.52L143.55 56.4461H143.58H143.609L143.641 56.4153H143.671H143.701L143.73 56.3856H143.79H143.821L143.851 56.3559H143.881H143.91L143.94 56.3273H143.97H144.031H144.061L144.09 56.2976H144.12H144.15H144.179H144.211L144.271 56.2679H144.3H144.36H144.451L145.502 56.0875C175.259 51.5767 204.838 52.6291 234.206 60.1761L236.162 60.6779L238.924 61.4301C268.592 69.5171 296.459 83.8602 322.613 104.034C322.882 104.184 323.122 104.396 323.302 104.635L323.333 104.664L323.393 104.727L323.604 104.996V105.025L323.632 105.055L323.662 105.086C323.843 105.356 323.963 105.656 324.052 105.957H324.082C324.291 106.618 324.324 107.341 324.111 108.03C322.941 112.452 322.19 116.511 321.44 120.57L320.659 124.838L353.421 103.941L248.952 22.6392L117.91 40.7441L136.528 76.5242L141.211 58.9636ZM172.561 218.439C163.402 211.194 154.545 205.359 146.556 201.242C133.194 194.296 122.834 192.069 118.661 196.25C114.487 200.429 116.708 210.802 123.646 224.181C127.76 232.149 133.615 241.019 140.821 250.219C145.476 244.719 150.581 239.186 156.046 233.712C161.542 228.21 167.066 223.1 172.561 218.439ZM184.212 293.638C193.371 300.882 202.229 306.716 210.187 310.866C223.549 317.812 233.94 320.006 238.085 315.827C242.257 311.648 240.066 301.273 233.129 287.894C228.985 279.927 223.16 271.057 215.923 261.886C211.268 267.359 206.193 272.921 200.697 278.393C195.232 283.895 189.708 288.975 184.212 293.638ZM161.272 273.162C166.945 278.875 172.711 284.135 178.387 288.916C184.061 284.135 189.797 278.875 195.503 273.162C201.178 267.479 206.433 261.735 211.207 256.053C206.433 250.37 201.178 244.597 195.503 238.914C189.796 233.233 184.061 227.94 178.387 223.189C172.711 227.941 166.946 233.233 161.272 238.914C155.596 244.597 150.31 250.37 145.565 256.053C150.31 261.705 155.565 267.479 161.272 273.162ZM184.212 218.439C189.708 223.1 195.232 228.21 200.697 233.683C206.194 239.155 211.269 244.719 215.923 250.219C223.16 241.019 228.985 232.149 233.129 224.181C239.975 210.983 242.228 200.67 238.234 196.399L238.083 196.249C233.939 192.068 223.548 194.295 210.186 201.241C202.229 205.359 193.371 211.194 184.212 218.439ZM136.047 256.053C128.059 246.04 121.634 236.298 117.099 227.549C108.63 211.223 106.74 197.753 113.435 191.017C120.162 184.312 133.615 186.177 149.95 194.687C158.687 199.227 168.387 205.661 178.387 213.628C188.387 205.66 198.086 199.227 206.823 194.687C223.16 186.177 236.611 184.312 243.309 191.017L243.549 191.29C249.976 198.084 248.025 211.434 239.677 227.579C235.142 236.298 228.686 246.039 220.728 256.053C228.686 266.066 235.141 275.777 239.677 284.527C248.144 300.853 250.006 314.323 243.31 321.027C236.613 327.793 223.161 325.898 206.825 317.42C198.087 312.85 188.388 306.415 178.388 298.447C168.388 306.415 158.688 312.85 149.951 317.42C133.616 325.898 120.162 327.793 113.436 321.058C106.741 314.353 108.633 300.853 117.1 284.527C121.604 275.777 128.059 266.066 136.047 256.053ZM156.046 278.393C150.582 272.922 145.476 267.36 140.821 261.857C133.614 271.057 127.79 279.927 123.646 287.924C116.709 301.273 114.487 311.647 118.661 315.827C122.834 320.007 133.194 317.812 146.556 310.866C154.545 306.716 163.373 300.882 172.561 293.638C167.066 288.975 161.542 283.895 156.046 278.393ZM256.311 243.546C256.641 243.214 256.852 242.734 256.852 242.222C256.852 241.742 256.641 241.26 256.311 240.928C255.98 240.598 255.501 240.388 254.989 240.388C254.51 240.388 254.029 240.598 253.698 240.928C253.368 241.26 253.157 241.71 253.157 242.222C253.157 242.735 253.368 243.215 253.698 243.516C254.029 243.846 254.51 244.057 254.989 244.057C255.532 244.056 255.98 243.876 256.311 243.546ZM264.208 242.222C264.208 244.748 263.187 247.063 261.505 248.747C259.823 250.429 257.543 251.451 254.989 251.451C252.466 251.451 250.156 250.429 248.473 248.747C246.822 247.093 245.802 244.778 245.802 242.222C245.802 239.696 246.823 237.382 248.473 235.727C250.186 234.044 252.468 232.993 254.989 232.993C257.543 232.993 259.856 234.044 261.505 235.698C263.187 237.382 264.208 239.696 264.208 242.222ZM99.5017 267.209C98.6911 267.99 98.2112 269.072 98.2112 270.305C98.2112 271.447 98.6318 272.499 99.3215 273.251L99.5017 273.403C100.283 274.214 101.394 274.694 102.594 274.694C103.796 274.694 104.906 274.214 105.686 273.403C106.467 272.621 106.978 271.507 106.978 270.305C106.978 269.101 106.467 267.99 105.686 267.209C104.905 266.397 103.795 265.914 102.594 265.914C101.363 265.914 100.283 266.397 99.5017 267.209ZM90.8231 270.305C90.8231 267.057 92.1454 264.14 94.2772 262.008C96.4397 259.842 99.3512 258.52 102.595 258.52C105.839 258.52 108.781 259.842 110.914 261.976C113.044 264.113 114.366 267.059 114.366 270.306C114.366 273.554 113.043 276.53 110.914 278.634C108.781 280.77 105.838 282.093 102.595 282.093C99.3512 282.093 96.41 280.77 94.2772 278.634L94.0377 278.364C92.0564 276.257 90.8231 273.403 90.8231 270.305ZM188.235 246.19C185.715 243.664 182.231 242.101 178.387 242.101C174.512 242.101 171.031 243.665 168.538 246.161C166.015 248.687 164.454 252.174 164.454 256.053C164.454 259.901 166.014 263.39 168.538 265.914C171.06 268.411 174.543 269.975 178.387 269.975C182.23 269.975 185.715 268.441 188.235 265.914C190.758 263.39 192.29 259.901 192.29 256.053C192.29 252.174 190.758 248.687 188.235 246.19ZM178.387 234.705C184.242 234.705 189.558 237.111 193.431 240.96C197.304 244.836 199.677 250.16 199.677 256.053C199.677 261.915 197.305 267.238 193.431 271.115C189.558 274.995 184.242 277.37 178.387 277.37C172.501 277.37 167.156 274.996 163.312 271.115C159.468 267.268 157.065 261.945 157.065 256.053C157.065 250.161 159.467 244.837 163.312 240.99C167.186 237.08 172.531 234.705 178.387 234.705ZM190.248 173.398C191.84 172.165 194.18 172.437 195.414 174.061C196.644 175.655 196.343 178 194.751 179.233L180.848 189.966C180.188 190.566 179.316 190.928 178.386 190.928C177.425 190.928 176.555 190.566 175.893 189.966L162.02 179.233C160.399 178 160.099 175.655 161.36 174.061C162.591 172.437 164.904 172.165 166.525 173.398L174.693 179.712V135.154C174.693 133.109 176.345 131.455 178.386 131.455C180.428 131.455 182.078 133.11 182.078 135.154V179.712L190.248 173.398ZM194.751 332.333C196.343 333.565 196.644 335.91 195.414 337.504C194.18 339.097 191.84 339.398 190.248 338.165L182.079 331.852V376.411C182.079 378.456 180.428 380.109 178.387 380.109C176.346 380.109 174.694 378.455 174.694 376.411V331.852L166.526 338.165C164.905 339.398 162.592 339.097 161.361 337.504C160.101 335.91 160.4 333.565 162.021 332.333L175.894 321.599C176.556 320.999 177.426 320.637 178.387 320.637C179.316 320.637 180.189 320.999 180.849 321.599L194.751 332.333ZM152.833 489.702C150.821 489.732 149.138 488.109 149.108 486.095C149.049 484.082 150.67 482.366 152.682 482.337L257.512 480.262C259.523 480.232 261.204 481.825 261.234 483.871C261.296 485.884 259.673 487.568 257.66 487.629L152.833 489.702ZM152.833 465.771C150.821 465.801 149.138 464.207 149.108 462.162C149.049 460.149 150.67 458.465 152.682 458.403L257.512 456.329C259.523 456.301 261.204 457.923 261.234 459.937C261.296 461.982 259.673 463.666 257.66 463.695L152.833 465.771ZM260.035 20.5673C258.443 19.3059 258.173 16.99 259.434 15.3966C260.696 13.8031 263.007 13.5326 264.599 14.7951L353.605 85.1216C355.196 86.384 355.468 88.6999 354.205 90.2933C352.973 91.8868 350.661 92.1573 349.069 90.8938L260.035 20.5673Z" fill="#39404D"/>
</g>
<defs>
<filter id="filter0_d_796_998" x="0" y="0" width="373" height="528" filterUnits="userSpaceOnUse" color-interpolation-filters="sRGB">
<feFlood flood-opacity="0" result="BackgroundImageFix"/>
<feColorMatrix in="SourceAlpha" type="matrix" values="0 0 0 0 0 0 0 0 0 0 0 0 0 0 0 0 0 0 127 0" result="hardAlpha"/>
<feOffset dx="-2" dy="6"/>
<feGaussianBlur stdDeviation="10"/>
<feComposite in2="hardAlpha" operator="out"/>
<feColorMatrix type="matrix" values="0 0 0 0 0 0 0 0 0 0 0 0 0 0 0 0 0 0 0.41 0"/>
<feBlend mode="normal" in2="BackgroundImageFix" result="effect1_dropShadow_796_998"/>
<feBlend mode="normal" in="SourceGraphic" in2="effect1_dropShadow_796_998" result="shape"/>
</filter>
</defs>
</svg>
