<svg width="58" height="58" viewBox="0 0 58 58" fill="none" xmlns="http://www.w3.org/2000/svg">
<path d="M34.8946 50.752C34.1778 51.2905 33.4155 51.8577 32.768 52.4201H38.24C38.8737 52.4201 39.4815 52.6711 39.9296 53.118C40.3777 53.5649 40.6295 54.171 40.6295 54.803C40.6295 55.4351 40.3777 56.0412 39.9296 56.4881C39.4815 56.935 38.8737 57.186 38.24 57.186H28.6819C28.0481 57.186 27.4404 56.935 26.9922 56.4881C26.5441 56.0412 26.2924 55.4351 26.2924 54.803C26.2924 51.2286 29.339 48.9504 32.0272 46.9392C33.8193 45.5999 35.8504 44.0796 35.8504 42.8881C35.8504 42.2561 35.5987 41.65 35.1506 41.2031C34.7024 40.7562 34.0947 40.5051 33.4609 40.5051C32.8272 40.5051 32.2194 40.7562 31.7713 41.2031C31.3232 41.65 31.0714 42.2561 31.0714 42.8881C31.0714 43.5201 30.8197 44.1262 30.3715 44.5731C29.9234 45.02 29.3156 45.2711 28.6819 45.2711C28.0481 45.2711 27.4404 45.02 26.9922 44.5731C26.5441 44.1262 26.2924 43.5201 26.2924 42.8881C26.2924 40.9921 27.0476 39.1737 28.392 37.833C29.7364 36.4923 31.5597 35.7391 33.4609 35.7391C35.3621 35.7391 37.1855 36.4923 38.5299 37.833C39.8742 39.1737 40.6295 40.9921 40.6295 42.8881C40.6295 46.4626 37.5828 48.7407 34.8946 50.752ZM54.9666 35.7391C54.3328 35.7391 53.725 35.9902 53.2769 36.4371C52.8288 36.884 52.577 37.4901 52.577 38.1221V45.2711H50.1875C49.5538 45.2711 48.946 45.02 48.4979 44.5731C48.0498 44.1262 47.798 43.5201 47.798 42.8881V38.1221C47.798 37.4901 47.5463 36.884 47.0981 36.4371C46.65 35.9902 46.0422 35.7391 45.4085 35.7391C44.7748 35.7391 44.167 35.9902 43.7189 36.4371C43.2707 36.884 43.019 37.4901 43.019 38.1221V42.8881C43.019 44.7841 43.7742 46.6025 45.1186 47.9432C46.463 49.2839 48.2863 50.0371 50.1875 50.0371H52.577V54.803C52.577 55.4351 52.8288 56.0412 53.2769 56.4881C53.725 56.935 54.3328 57.186 54.9666 57.186C55.6003 57.186 56.2081 56.935 56.6562 56.4881C57.1043 56.0412 57.3561 55.4351 57.3561 54.803V38.1221C57.3561 37.4901 57.1043 36.884 56.6562 36.4371C56.2081 35.9902 55.6003 35.7391 54.9666 35.7391ZM31.0714 28.5902V16.6752C31.0714 16.0432 30.8197 15.4371 30.3715 14.9902C29.9234 14.5433 29.3156 14.2922 28.6819 14.2922C28.0481 14.2922 27.4404 14.5433 26.9922 14.9902C26.5441 15.4371 26.2924 16.0432 26.2924 16.6752V26.2072H19.1238C18.4901 26.2072 17.8823 26.4582 17.4342 26.9051C16.9861 27.352 16.7343 27.9582 16.7343 28.5902C16.7343 29.2222 16.9861 29.8283 17.4342 30.2752C17.8823 30.7221 18.4901 30.9732 19.1238 30.9732H28.6819C29.3156 30.9732 29.9234 30.7221 30.3715 30.2752C30.8197 29.8283 31.0714 29.2222 31.0714 28.5902ZM54.9666 4.76028C54.3328 4.76028 53.725 5.01134 53.2769 5.45824C52.8288 5.90513 52.577 6.51126 52.577 7.14326V12.8005C50.0873 9.0534 46.7469 5.94443 42.8268 3.72583C38.9068 1.50722 34.5174 0.241472 30.015 0.0312829C25.5126 -0.178906 21.0239 0.672384 16.9131 2.51608C12.8024 4.35978 9.18532 7.14395 6.35549 10.6427C3.52566 14.1414 1.56275 18.2562 0.626038 22.6531C-0.310678 27.05 -0.194819 31.6052 0.964215 35.9491C2.12325 40.293 4.29281 44.3032 7.29686 47.6544C10.3009 51.0055 14.0548 53.6033 18.254 55.2367C18.5315 55.3435 18.8264 55.3984 19.1238 55.3988C19.6814 55.3997 20.2218 55.206 20.6513 54.8514C21.0808 54.4968 21.3725 54.0035 21.4757 53.457C21.579 52.9105 21.4873 52.3453 21.2166 51.8591C20.946 51.3729 20.5133 50.9964 19.9936 50.7949C16.4285 49.4201 13.2461 47.2124 10.7136 44.3572C8.18115 41.5021 6.37243 38.0826 5.43932 34.3861C4.50622 30.6895 4.47595 26.8236 5.35107 23.113C6.22619 19.4023 7.98114 15.9551 10.4686 13.0609C12.9561 10.1666 16.1035 7.90967 19.6467 6.47954C23.1898 5.04941 27.0253 4.48781 30.8311 4.84188C34.6369 5.19596 38.302 6.45538 41.5188 8.51442C44.7355 10.5735 47.41 13.372 49.3177 16.6752H43.019C42.3852 16.6752 41.7775 16.9263 41.3293 17.3732C40.8812 17.8201 40.6295 18.4262 40.6295 19.0582C40.6295 19.6902 40.8812 20.2963 41.3293 20.7432C41.7775 21.1901 42.3852 21.4412 43.019 21.4412H50.1875C52.577 21.4412 55.3118 22.0839 56.6562 20.7432C58.0006 19.4025 57.3561 16.1883 57.3561 14.2922V7.14326C57.3561 6.51126 57.1043 5.90513 56.6562 5.45824C56.2081 5.01134 55.6003 4.76028 54.9666 4.76028Z" fill="white"/>
</svg>
