<?xml version="1.0" encoding="UTF-8" standalone="no"?>
<!-- Uploaded to: SVG Repo, www.svgrepo.com, Generator: SVG Repo Mixer Tools -->

<svg
   width="500"
   height="500"
   viewBox="0 0 15 15"
   fill="none"
   version="1.1"
   id="svg4"
   sodipodi:docname="linkedin-white.svg"
   inkscape:version="1.2 (dc2aedaf03, 2022-05-15)"
   xmlns:inkscape="http://www.inkscape.org/namespaces/inkscape"
   xmlns:sodipodi="http://sodipodi.sourceforge.net/DTD/sodipodi-0.dtd"
   xmlns="http://www.w3.org/2000/svg"
   xmlns:svg="http://www.w3.org/2000/svg">
  <defs
     id="defs8" />
  <sodipodi:namedview
     id="namedview6"
     pagecolor="#ffffff"
     bordercolor="#666666"
     borderopacity="1.0"
     inkscape:showpageshadow="2"
     inkscape:pageopacity="0.0"
     inkscape:pagecheckerboard="0"
     inkscape:deskcolor="#d1d1d1"
     showgrid="false"
     inkscape:window-width="1920"
     inkscape:window-height="1051"
     inkscape:window-x="-9"
     inkscape:window-y="-9"
     inkscape:window-maximized="1"
     inkscape:current-layer="svg4" />
  <path
     d="M 13.799683,0.00134524 H 1.2843455 C 1.1230336,-0.00621032 0.96180605,0.01811558 0.80990641,0.07294493 0.65800677,0.12777428 0.51841623,0.2120197 0.39911271,0.32085348 0.27981858,0.42969664 0.18315517,0.56100024 0.11467237,0.70723685 0.04618956,0.85348284 0.00721858,1.0117934 0,1.173113 v 12.54263 c 0.00944978,0.337562 0.14780286,0.658814 0.38664425,0.897574 C 0.62548564,14.85217 0.94670327,14.990532 1.2843455,15 H 13.799683 c 0.328211,-0.01462 0.637673,-0.157298 0.862012,-0.39737 0.224338,-0.240072 0.345648,-0.558417 0.337961,-0.886887 V 1.173113 C 15.002356,1.0160961 14.972936,0.86019472 14.913216,0.71495177 14.853496,0.56971819 14.76472,0.43820836 14.652316,0.32848403 14.540006,0.21876908 14.406415,0.13316442 14.259794,0.07691019 14.113172,0.02065597 13.956613,-0.0050573 13.799679,0.00134524 Z M 4.6873924,12.506478 H 2.5030675 V 5.8227154 H 4.6873924 Z M 3.6467913,4.81028 C 3.4943667,4.8155951 3.3424858,4.7893288 3.2007015,4.7331402 3.0589079,4.6769515 2.9302671,4.5920499 2.8228696,4.4837692 2.7154627,4.3754885 2.6316052,4.2461722 2.5765752,4.1039384 2.5215362,3.9617045 2.4965142,3.8096278 2.5030672,3.6572605 2.4963272,3.5032434 2.5218542,3.3495262 2.5780192,3.2059612 2.6341832,3.0623869 2.7197378,2.9321426 2.8291884,2.8235806 2.9386484,2.7150093 3.069586,2.6305202 3.2136108,2.5755315 3.357645,2.5205334 3.511579,2.4962543 3.6655411,2.5042411 c 0.1524246,-0.00531 0.3043055,0.020951 0.4460897,0.07714 0.1417937,0.056189 0.2704344,0.1410902 0.377832,0.2493709 0.1074069,0.1082807 0.1912643,0.237597 0.2462943,0.3798309 0.055039,0.1422338 0.080061,0.2943105 0.073508,0.4466778 C 4.8160051,3.8112779 4.7904781,3.9649951 4.7343141,4.10856 4.6781501,4.2521342 4.5925955,4.3823785 4.4831449,4.4909405 4.3736849,4.5995118 4.2427473,4.6840009 4.0987225,4.7389896 3.9546883,4.7939877 3.8007543,4.8182667 3.6467913,4.81028 Z m 8.8591717,7.696198 h -2.1937 V 8.8505631 c 0,-0.8717951 -0.309368,-1.4717402 -1.0874747,-1.4717402 C 8.9831063,7.3808852 8.747893,7.4576594 8.551585,7.5986465 8.3551832,7.7396336 8.2072491,7.9378967 8.1279384,8.1662508 8.0670024,8.3374226 8.0415024,8.5191872 8.0529404,8.7005769 V 12.506478 H 5.8967397 V 5.8227154 H 8.0529402 V 6.7601296 C 8.2446545,6.4079431 8.5299292,6.1156573 8.8773587,5.9154256 9.2247883,5.7152877 9.6207792,5.6150594 10.021645,5.6258303 c 1.415592,0 2.484318,0.9374423 2.484318,2.9341345 z"
     fill="#000000"
     id="path2"
     style="stroke-width:0.937447;fill:#ffffff;fill-opacity:1" />
</svg>
