<svg width="174" height="174" viewBox="0 0 174 174" fill="none" xmlns="http://www.w3.org/2000/svg">
<path d="M169.218 71.661L152.309 68.9402C150.842 63.6517 148.737 58.5799 146.027 53.7962L156.061 39.9179C157.454 37.9928 157.241 35.3424 155.56 33.6632L140.482 18.5935C138.8 16.9122 136.148 16.7017 134.223 18.0926L120.335 28.1203C115.549 25.4122 110.473 23.3097 105.182 21.843L102.458 4.94374C102.08 2.59893 100.055 0.875 97.6781 0.875H76.3516C73.9748 0.875 71.9498 2.59877 71.5716 4.94374L68.8479 21.8421C63.558 23.3088 58.4829 25.4115 53.6951 28.1201L39.8076 18.0925C37.8817 16.702 35.2296 16.9132 33.5488 18.5926L18.4693 33.6623C16.7888 35.3422 16.5763 37.9925 17.9684 39.9178L28.0023 53.7961C25.2921 58.581 23.1881 63.6528 21.7204 68.9401L4.81072 71.6608C2.46437 72.039 0.739014 74.0625 0.739014 76.4377V97.7509C0.739014 100.126 2.46406 102.15 4.81041 102.528L21.7204 105.249C23.1889 110.537 25.2924 115.608 28.0023 120.393L17.9684 134.271C16.5763 136.196 16.7887 138.846 18.4693 140.526L33.5488 155.596C35.2292 157.275 37.8811 157.486 39.8076 156.096L53.6951 146.068C58.4826 148.776 63.5577 150.878 68.8479 152.346L71.5716 169.245C71.9495 171.59 73.9748 173.313 76.3516 173.313H97.6781C100.055 173.313 102.08 171.59 102.458 169.245L105.182 152.345C110.473 150.878 115.548 148.776 120.334 146.068L134.223 156.096C136.149 157.487 138.801 157.276 140.482 155.596L155.561 140.527C157.242 138.847 157.454 136.197 156.062 134.272L146.027 120.393C148.737 115.61 150.841 110.538 152.309 105.249L169.219 102.528C171.565 102.15 173.291 100.126 173.291 97.7509V76.4377C173.291 74.0625 171.565 72.039 169.218 71.661ZM163.608 93.6297L147.622 96.2027C145.67 96.5172 144.105 97.9866 143.67 99.9151C142.216 106.358 139.683 112.462 136.143 118.058C135.086 119.729 135.153 121.875 136.311 123.478L145.798 136.598L136.551 145.839L123.421 136.359C121.817 135.201 119.67 135.134 117.998 136.191C112.398 139.729 106.29 142.259 99.8441 143.711C97.9151 144.146 96.444 145.71 96.1292 147.661L93.5545 163.637H80.4755L77.9008 147.662C77.5861 145.711 76.1153 144.147 74.186 143.712C67.7408 142.26 61.6323 139.729 56.0302 136.191C54.3581 135.134 52.211 135.201 50.6082 136.359L37.4793 145.839L28.232 136.598L37.7176 123.478C38.876 121.875 38.9429 119.73 37.8861 118.059C34.3453 112.46 31.8133 106.356 30.3599 99.9151C29.9246 97.9866 28.3597 96.5172 26.4069 96.2027L10.422 93.6297V80.5592L26.4069 77.987C28.36 77.6725 29.9252 76.2024 30.3603 74.2739C31.8127 67.8339 34.3448 61.7299 37.8864 56.1302C38.9432 54.4589 38.8763 52.3138 37.7179 50.7115L28.2323 37.5911L37.4796 28.3497L50.6085 37.8302C52.2116 38.9878 54.3592 39.0546 56.0308 37.9983C61.6338 34.4582 67.742 31.9278 74.1856 30.4766C76.1153 30.0418 77.5864 28.4773 77.9011 26.5258L80.4758 10.5515H93.5548L96.1295 26.5264C96.4444 28.4778 97.9155 30.0424 99.8444 30.477C106.291 31.929 112.398 34.4595 117.999 37.9981C119.671 39.0544 121.818 38.9877 123.421 37.83L136.551 28.3495L145.798 37.591L136.312 50.7121C135.153 52.3145 135.086 54.4601 136.143 56.1314C139.685 61.7279 142.217 67.8316 143.67 74.2737C144.105 76.2022 145.67 77.6724 147.623 77.9868L163.608 80.5591V93.6297H163.608Z" fill="#39404C"/>
<path d="M87.0143 39.5869C60.8017 39.5869 39.4766 60.8981 39.4766 87.0936C39.4766 113.289 60.8017 134.6 87.0143 134.6C113.228 134.6 134.553 113.289 134.553 87.0936C134.553 60.8981 113.228 39.5869 87.0143 39.5869ZM87.0143 124.924C66.141 124.924 49.1594 107.953 49.1594 87.0936C49.1594 66.2338 66.141 49.2634 87.0143 49.2634C107.888 49.2634 124.871 66.2338 124.871 87.0936C124.871 107.953 107.888 124.924 87.0143 124.924Z" fill="#39404C"/>
</svg>
