<svg width="74" height="56" viewBox="0 0 74 56" fill="none" xmlns="http://www.w3.org/2000/svg">
<path d="M72.498 19.8966L53.6266 1.02486C52.7463 0.144382 51.3185 0.144382 50.438 1.02486L41.2795 10.1833C40.399 11.0638 40.399 12.4915 41.2795 13.372L43.0043 15.0968L38.1809 15.5194C37.6489 15.5661 37.1311 15.6755 36.6313 15.8423C36.1327 15.676 35.6138 15.5659 35.084 15.5194L30.2605 15.0968L31.9853 13.372C32.8658 12.4915 32.8658 11.0638 31.9853 10.1833L22.8268 1.02486C21.9465 0.144382 20.5187 0.144382 19.6382 1.02486L0.766804 19.8966C-0.113674 20.7769 -0.113674 22.2047 0.766804 23.0852L9.92529 32.2437C10.8053 33.1237 12.2336 33.124 13.1139 32.2437L15.1539 30.2036L15.5757 35.0261C15.7138 36.6078 16.4087 38.0974 17.5314 39.2201L31.111 52.798C34.8385 56.5255 38.7745 56.1775 41.3223 53.6301C42.5295 52.4227 55.6847 39.2692 55.7345 39.2193C56.857 38.0965 57.5513 36.6075 57.6894 35.0261L58.1112 30.2035L60.1512 32.2435C61.0312 33.1236 62.4595 33.1239 63.3398 32.2435L72.4983 23.085C73.3786 22.2047 73.3786 20.7769 72.498 19.8966ZM11.5196 27.4607L5.54972 21.4909L21.2328 5.80792L27.2025 11.7776C8.27305 30.7071 13.1079 25.8723 11.5196 27.4607ZM50.4989 38.0703C50.4986 38.0706 50.4983 38.0709 50.498 38.0711C49.6709 38.8993 48.3314 38.8995 47.5023 38.0704C47.5009 38.069 47.4992 38.0677 47.4978 38.0663L43.8975 34.4659C43.0169 33.5854 41.5894 33.5856 40.7089 34.4659C39.8284 35.3464 39.8284 36.774 40.7089 37.6545L44.3137 41.2593C44.3144 41.26 44.3153 41.2606 44.316 41.2613C45.1417 42.0894 45.1437 43.4275 44.313 44.2565C43.4859 45.0844 42.1461 45.0849 41.3169 44.2557C41.3159 44.2547 41.3147 44.2539 41.3139 44.253L37.7121 40.6512C36.8317 39.7707 35.4039 39.7707 34.5235 40.6512C33.643 41.5317 33.643 42.9594 34.5235 43.8398L38.1283 47.4446C38.1287 47.4451 38.1291 47.4455 38.1297 47.4461C38.9528 48.271 38.9619 49.6092 38.126 50.4433C37.6307 50.94 36.9201 51.1566 36.2249 51.0233C35.4674 50.8781 35.199 50.5091 34.2992 49.6092L20.7195 36.0312C20.3452 35.657 20.1136 35.1605 20.0675 34.6331L19.3162 26.0415C20.2585 25.0991 24.5939 20.7626 26.0983 19.2589L34.6901 20.0117C35.217 20.0578 35.713 20.2891 36.0868 20.6626C39.3867 23.9612 49.649 34.2239 50.4979 35.0731C51.3244 35.9 51.3247 37.2446 50.4989 38.0703ZM53.4575 31.6551C52.7517 30.9491 45.0177 23.2149 41.553 19.7509L47.166 19.2591C48.7693 20.8612 53.4741 25.5675 53.9483 26.0416L53.4575 31.6551ZM61.7454 27.4607C59.6336 25.3489 46.5288 12.2442 46.0624 11.7778L52.0321 5.80806L67.7152 21.4907L61.7454 27.4607Z" fill="white"/>
</svg>
