<svg width="154" height="154" viewBox="0 0 154 154" fill="none" xmlns="http://www.w3.org/2000/svg">
<g filter="url(#filter0_d_793_980)">
<path d="M145.874 89.6924L134.3 81.9261C134.965 77.6169 135.136 73.2639 134.811 68.9204L146.951 62.0796C149.021 60.9124 149.937 58.417 149.114 56.189L142.892 39.3535C142.068 37.1246 139.749 35.826 137.417 36.2816L123.742 38.9673C121.164 35.456 118.202 32.2593 114.895 29.4162L118.638 15.9961C119.276 13.708 118.158 11.2962 116 10.3026L99.6905 2.79476C97.5312 1.79853 94.9698 2.51939 93.6454 4.49167L85.8732 16.059C81.5702 15.3988 77.2084 15.2246 72.8605 15.5486L66.0145 3.41721C64.8461 1.34776 62.3496 0.431778 60.1194 1.25524L43.2729 7.47322C41.0428 8.29606 39.7411 10.6145 40.1997 12.9453L42.888 26.6097C39.3738 29.1861 36.1743 32.146 33.3293 35.4519L19.902 31.7104C17.6124 31.0752 15.1984 32.1904 14.2041 34.3469L6.69064 50.6457C5.6964 52.8029 6.41633 55.3625 8.38866 56.6868L19.9621 64.4539C19.2983 68.7637 19.1266 73.1166 19.4522 77.4587L7.31349 84.2998C5.24331 85.4669 4.32673 87.9629 5.15011 90.1904L11.3722 107.026C12.1955 109.255 14.5184 110.559 16.8479 110.098L30.5212 107.412C33.0973 110.922 36.0582 114.118 39.3687 116.964L35.6247 130.383C34.9871 132.67 36.1042 135.084 38.2628 136.077L54.5729 143.585C56.7322 144.579 59.2928 143.859 60.618 141.887L68.3908 130.321C72.6926 130.982 77.055 131.155 81.4035 130.831L88.2497 142.964C89.1282 144.521 90.7622 145.426 92.4669 145.426C93.0263 145.426 93.5935 145.329 94.1432 145.125L110.991 138.907C113.221 138.084 114.523 135.766 114.064 133.435L111.376 119.769C114.888 117.194 118.087 114.234 120.934 110.928L134.362 114.669C136.652 115.304 139.066 114.19 140.06 112.033L147.572 95.7333C148.566 93.5763 147.848 91.0168 145.874 89.6924ZM132.99 104.242L120.478 100.756C118.571 100.226 116.536 100.906 115.334 102.475C111.993 106.836 107.971 110.556 103.379 113.534C101.719 114.61 100.881 116.587 101.263 118.527L103.768 131.258L94.658 134.621L88.2804 123.318C87.4146 121.784 85.7949 120.857 84.0644 120.857C83.853 120.857 83.6396 120.87 83.4256 120.899C78.0316 121.616 72.4863 121.397 67.1477 120.261C65.2147 119.848 63.2228 120.654 62.1199 122.296L54.8779 133.071L46.0598 129.013L49.5476 116.508C50.0785 114.604 49.3976 112.569 47.8266 111.367C43.4632 108.029 39.7404 104.01 36.7604 99.4206C35.6845 97.762 33.7075 96.9259 31.765 97.3066L19.0264 99.8087L15.6615 90.7046L26.9709 84.3314C28.6939 83.3602 29.6524 81.4397 29.3916 79.4804C28.6716 74.0542 28.8864 68.5814 30.0305 63.2139C30.4426 61.2802 29.6361 59.291 27.9948 58.1887L17.211 50.9522L21.2735 42.139L33.7852 45.6252C35.6901 46.1537 37.7278 45.4746 38.93 43.9047C42.2664 39.547 46.2894 35.8265 50.8856 32.8457C52.5453 31.7698 53.3826 29.7934 53.0004 27.8535L50.4961 15.1233L59.6061 11.7605L65.9834 23.0624C66.9548 24.7843 68.8748 25.7434 70.8384 25.4822C76.2324 24.7668 81.7763 24.9841 87.1163 26.1206C89.0485 26.5317 91.0404 25.7265 92.144 24.0856L99.3853 13.3081L108.204 17.3674L104.716 29.8727C104.185 31.7775 104.866 33.8134 106.437 35.0142C110.796 38.3486 114.519 42.3675 117.501 46.9599C118.579 48.6185 120.556 49.4527 122.496 49.0741L135.237 46.5719L138.602 55.6753L127.292 62.0485C125.569 63.0199 124.61 64.9402 124.871 66.8996C125.592 72.3278 125.377 77.8007 124.232 83.166C123.819 85.0998 124.625 87.0896 126.268 88.1918L137.052 95.4284L132.99 104.242Z" fill="#39404C"/>
</g>
<g filter="url(#filter1_d_793_980)">
<path d="M77.1272 32.4106C72.3081 32.4106 67.5545 33.2631 62.9972 34.9453C41.895 42.7332 31.0679 66.2261 38.8609 87.3153C44.7519 103.257 60.1327 113.968 77.1345 113.97C77.1359 113.97 77.1359 113.97 77.1373 113.97C81.9546 113.97 86.708 113.117 91.2645 111.435C112.366 103.647 123.194 80.1544 115.401 59.0664C109.509 43.1227 94.1282 32.4106 77.1272 32.4106ZM87.9102 102.358C84.4306 103.642 80.8063 104.293 77.1373 104.293C77.1373 104.293 77.1359 104.293 77.1351 104.293C64.169 104.293 52.4376 96.1224 47.9438 83.9633C42.0001 67.8791 50.2579 49.9617 66.3521 44.0224C69.8311 42.7379 73.4561 42.0872 77.1271 42.0872C90.0933 42.0872 101.824 50.2579 106.318 62.4183C112.262 78.5012 104.003 96.418 87.9102 102.358Z" fill="#39404C"/>
</g>
<defs>
<filter id="filter0_d_793_980" x="0.849609" y="0.95459" width="152.565" height="152.471" filterUnits="userSpaceOnUse" color-interpolation-filters="sRGB">
<feFlood flood-opacity="0" result="BackgroundImageFix"/>
<feColorMatrix in="SourceAlpha" type="matrix" values="0 0 0 0 0 0 0 0 0 0 0 0 0 0 0 0 0 0 127 0" result="hardAlpha"/>
<feOffset dy="4"/>
<feGaussianBlur stdDeviation="2"/>
<feComposite in2="hardAlpha" operator="out"/>
<feColorMatrix type="matrix" values="0 0 0 0 0 0 0 0 0 0 0 0 0 0 0 0 0 0 0.25 0"/>
<feBlend mode="normal" in2="BackgroundImageFix" result="effect1_dropShadow_793_980"/>
<feBlend mode="normal" in="SourceGraphic" in2="effect1_dropShadow_793_980" result="shape"/>
</filter>
<filter id="filter1_d_793_980" x="32.3323" y="32.4106" width="89.5977" height="89.5591" filterUnits="userSpaceOnUse" color-interpolation-filters="sRGB">
<feFlood flood-opacity="0" result="BackgroundImageFix"/>
<feColorMatrix in="SourceAlpha" type="matrix" values="0 0 0 0 0 0 0 0 0 0 0 0 0 0 0 0 0 0 127 0" result="hardAlpha"/>
<feOffset dy="4"/>
<feGaussianBlur stdDeviation="2"/>
<feComposite in2="hardAlpha" operator="out"/>
<feColorMatrix type="matrix" values="0 0 0 0 0 0 0 0 0 0 0 0 0 0 0 0 0 0 0.25 0"/>
<feBlend mode="normal" in2="BackgroundImageFix" result="effect1_dropShadow_793_980"/>
<feBlend mode="normal" in="SourceGraphic" in2="effect1_dropShadow_793_980" result="shape"/>
</filter>
</defs>
</svg>
