<svg width="66" height="66" viewBox="0 0 66 66" fill="none" xmlns="http://www.w3.org/2000/svg">
<path d="M46.2817 17.209C51.7172 20.9866 55.4676 26.9928 56.2286 33.9228" stroke="white" stroke-width="4.07657" stroke-linecap="round" stroke-linejoin="round"/>
<path d="M9.67432 34.059C10.3809 27.1559 14.077 21.1498 19.4581 17.345" stroke="white" stroke-width="4.07657" stroke-linecap="round" stroke-linejoin="round"/>
<path d="M22.4478 57.3496C25.6003 58.9531 29.1877 59.8499 32.9653 59.8499C36.607 59.8499 40.0314 59.0346 43.1024 57.5398" stroke="white" stroke-width="4.07657" stroke-linecap="round" stroke-linejoin="round"/>
<path d="M32.9653 21.3671C37.1381 21.3671 40.5206 17.9845 40.5206 13.8118C40.5206 9.63919 37.1381 6.25659 32.9653 6.25659C28.7928 6.25659 25.4102 9.63919 25.4102 13.8118C25.4102 17.9845 28.7928 21.3671 32.9653 21.3671Z" stroke="white" stroke-width="4.07657" stroke-linecap="round" stroke-linejoin="round"/>
<path d="M13.316 54.5775C17.4886 54.5775 20.8712 51.1948 20.8712 47.0223C20.8712 42.8495 17.4886 39.467 13.316 39.467C9.14334 39.467 5.76074 42.8495 5.76074 47.0223C5.76074 51.1948 9.14334 54.5775 13.316 54.5775Z" stroke="white" stroke-width="4.07657" stroke-linecap="round" stroke-linejoin="round"/>
<path d="M52.2882 54.5775C56.4609 54.5775 59.8434 51.1948 59.8434 47.0223C59.8434 42.8495 56.4609 39.467 52.2882 39.467C48.1156 39.467 44.7329 42.8495 44.7329 47.0223C44.7329 51.1948 48.1156 54.5775 52.2882 54.5775Z" stroke="white" stroke-width="4.07657" stroke-linecap="round" stroke-linejoin="round"/>
</svg>
