<svg width="72" height="72" viewBox="0 0 72 72" fill="none" xmlns="http://www.w3.org/2000/svg">
<path d="M35.0428 49.7033L33.5147 47.6658C30.9678 44.1002 18.2334 26.272 18.2334 20.6688C18.2334 11.5 25.8741 3.85938 35.0428 3.85938C44.2116 3.85938 51.8523 11.5 51.8523 20.6688C51.8523 26.7813 39.1179 44.1002 36.0616 47.6658L35.0428 49.7033ZM35.0428 7.42501C27.9116 7.42501 21.799 13.0282 21.799 20.6688C21.799 23.7251 28.9303 34.9314 35.0428 43.0814C41.1554 34.9314 48.2866 23.7251 48.2866 20.6688C48.2866 13.0282 42.1741 7.42501 35.0428 7.42501Z" fill="white"/>
<path d="M65.096 57.3444H7.53635C4.48009 57.3444 1.42383 54.7976 1.42383 51.2319C1.42383 47.6663 3.97071 45.1194 7.53635 45.1194H17.2145C18.2333 45.1194 19.252 46.1381 19.252 47.1569C19.252 48.1756 18.7426 49.1944 17.7239 49.1944H7.53635C6.5176 49.1944 5.49885 50.2132 5.49885 51.2319C5.49885 52.2507 6.5176 53.2694 7.53635 53.2694H64.5866C65.6053 53.2694 66.6241 54.2882 66.6241 55.3069C66.6241 56.3257 66.1147 57.3444 65.096 57.3444Z" fill="white"/>
<path d="M65.0961 65.4941H16.1959C15.1772 65.4941 14.1584 64.4753 14.1584 63.4566C14.1584 62.4378 15.1772 61.4191 16.1959 61.4191H64.5868C65.6055 61.4191 66.6243 60.4003 66.6243 59.3816C66.6243 58.3628 65.6055 57.3441 64.5868 57.3441H7.53653C6.51778 57.3441 5.49902 56.3253 5.49902 55.3066C5.49902 54.2878 6.51778 53.269 7.53653 53.269H64.5868C67.643 53.269 70.6993 55.8159 70.6993 59.3816C70.6993 62.9472 68.1524 65.4941 65.0961 65.4941Z" fill="white"/>
<path d="M29.4399 18.6321C29.4399 19.368 29.5847 20.0966 29.8663 20.7765C30.1478 21.4564 30.5605 22.0742 31.0808 22.5945C31.6012 23.1149 32.2189 23.5277 32.8987 23.8093C33.5786 24.0909 34.3072 24.2359 35.0431 24.2359C35.779 24.2359 36.5076 24.0909 37.1875 23.8093C37.8673 23.5277 38.485 23.1149 39.0053 22.5945C39.5256 22.0742 39.9384 21.4564 40.2199 20.7765C40.5015 20.0966 40.6463 19.368 40.6462 18.6321C40.6463 17.8962 40.5015 17.1675 40.2199 16.4877C39.9384 15.8078 39.5256 15.19 39.0053 14.6697C38.485 14.1493 37.8673 13.7365 37.1875 13.4549C36.5076 13.1733 35.779 13.0283 35.0431 13.0283C34.3072 13.0283 33.5786 13.1733 32.8987 13.4549C32.2189 13.7365 31.6012 14.1493 31.0808 14.6697C30.5605 15.19 30.1478 15.8078 29.8663 16.4877C29.5847 17.1675 29.4399 17.8962 29.4399 18.6321Z" fill="#FDFBFB"/>
<path d="M35.0429 25.763C30.9679 25.763 27.9116 22.7068 27.9116 18.6318C27.9116 14.5568 30.9679 11.5005 35.0429 11.5005C39.1179 11.5005 42.1742 14.5568 42.1742 18.6318C42.1742 22.7068 39.1179 25.763 35.0429 25.763ZM35.0429 15.0661C33.0054 15.0661 31.4773 16.5943 31.4773 18.6318C31.4773 20.6693 33.0054 22.1974 35.0429 22.1974C37.0804 22.1974 38.6085 20.6693 38.6085 18.6318C38.6085 16.5943 37.0804 15.0661 35.0429 15.0661Z" fill="white"/>
</svg>
