<svg width="108" height="103" viewBox="0 0 108 103" fill="none" xmlns="http://www.w3.org/2000/svg">
<g filter="url(#filter0_d_796_993)">
<path fill-rule="evenodd" clip-rule="evenodd" d="M39.7155 14.1175C38.8359 12.0566 39.7934 9.67282 41.8544 8.79316C43.9153 7.9135 46.2991 8.87116 47.1787 10.932C48.0583 12.9929 47.1008 15.3767 45.0398 16.2564C42.9789 17.136 40.5951 16.1784 39.7155 14.1175ZM52.686 20.4534C55.6044 17.0474 56.5219 12.1512 54.6419 7.7466C52.003 1.56389 44.8518 -1.30903 38.6689 1.32995C32.486 3.96893 29.6134 11.1202 32.2523 17.3029C34.1322 21.7075 38.3023 24.4323 42.7808 24.6811L43.8981 49.6921L27.4073 46.6131C28.6839 43.657 28.7922 40.2029 27.4283 37.0075C24.7894 30.8248 17.6381 27.952 11.4554 30.5909C5.27265 33.2298 2.39981 40.3812 5.03871 46.5639C7.23157 51.7015 12.5404 54.5538 17.8199 53.8567L35.7775 77.5581L37.4369 87.944C38.2699 93.1571 43.7801 96.1995 48.6354 94.1271L98.7822 72.7235C103.638 70.651 105.253 64.5674 102.065 60.3597L95.713 51.9764L91.0214 22.6129C95.1769 19.2829 96.7901 13.4762 94.5973 8.33852C91.9584 2.15581 84.8072 -0.717114 78.6243 1.92187C72.4414 4.56085 69.5687 11.7121 72.2076 17.8949C73.5715 21.0902 76.1408 23.4014 79.1581 24.5248L69.9732 38.5627L52.686 20.4534ZM84.9937 16.8489C84.9933 16.8491 84.994 16.8488 84.9937 16.8489C87.0546 15.9693 88.0137 13.5849 87.1341 11.524C86.2544 9.46307 83.8707 8.50542 81.8097 9.38508C79.7488 10.2647 78.7912 12.6485 79.6708 14.7094C80.5502 16.7698 82.9331 17.7274 84.9937 16.8489ZM19.9651 40.193C20.8445 42.2533 19.8877 44.6364 17.8279 45.5166C15.767 46.3962 13.3816 45.4393 12.5019 43.3784C11.6223 41.3175 12.5799 38.9337 14.6408 38.0541C16.7017 37.1745 19.0855 38.1321 19.9651 40.193ZM45.4499 86.6639L44.1303 78.4044L90.5455 58.5934L95.5968 65.2603L45.4499 86.6639ZM84.237 31.5831L87.3601 51.1302L40.9448 70.9411L28.9906 55.1634L47.4349 58.6076C48.6519 58.8345 49.9063 58.4937 50.8408 57.6815C51.7754 56.8692 52.2881 55.675 52.2327 54.4379L51.1686 30.6156L67.6344 47.8641C68.4893 48.76 69.7064 49.2159 70.9393 49.103C72.1726 48.99 73.2864 48.32 73.9644 47.2843L84.237 31.5831Z" fill="#39404C"/>
</g>
<defs>
<filter id="filter0_d_796_993" x="0.0585938" y="0.349609" width="107.655" height="102.434" filterUnits="userSpaceOnUse" color-interpolation-filters="sRGB">
<feFlood flood-opacity="0" result="BackgroundImageFix"/>
<feColorMatrix in="SourceAlpha" type="matrix" values="0 0 0 0 0 0 0 0 0 0 0 0 0 0 0 0 0 0 127 0" result="hardAlpha"/>
<feOffset dy="4"/>
<feGaussianBlur stdDeviation="2"/>
<feComposite in2="hardAlpha" operator="out"/>
<feColorMatrix type="matrix" values="0 0 0 0 0 0 0 0 0 0 0 0 0 0 0 0 0 0 0.25 0"/>
<feBlend mode="normal" in2="BackgroundImageFix" result="effect1_dropShadow_796_993"/>
<feBlend mode="normal" in="SourceGraphic" in2="effect1_dropShadow_796_993" result="shape"/>
</filter>
</defs>
</svg>
