<svg width="182" height="182" viewBox="0 0 182 182" fill="none" xmlns="http://www.w3.org/2000/svg">
<g filter="url(#filter0_d_793_981)">
<path d="M173.218 71.661L156.309 68.9402C154.842 63.6517 152.737 58.5799 150.027 53.7962L160.061 39.9179C161.454 37.9928 161.241 35.3424 159.56 33.6632L144.482 18.5935C142.8 16.9122 140.148 16.7017 138.223 18.0926L124.335 28.1203C119.549 25.4122 114.473 23.3097 109.182 21.843L106.458 4.94374C106.08 2.59893 104.055 0.875 101.678 0.875H80.3516C77.9748 0.875 75.9498 2.59877 75.5716 4.94374L72.8479 21.8421C67.558 23.3088 62.4829 25.4115 57.6951 28.1201L43.8076 18.0925C41.8817 16.702 39.2296 16.9132 37.5488 18.5926L22.4693 33.6623C20.7888 35.3422 20.5763 37.9925 21.9684 39.9178L32.0023 53.7961C29.2921 58.581 27.1881 63.6528 25.7204 68.9401L8.81072 71.6608C6.46437 72.039 4.73901 74.0625 4.73901 76.4377V97.7509C4.73901 100.126 6.46406 102.15 8.81041 102.528L25.7204 105.249C27.1889 110.537 29.2924 115.608 32.0023 120.393L21.9684 134.271C20.5763 136.196 20.7887 138.846 22.4693 140.526L37.5488 155.596C39.2292 157.275 41.8811 157.486 43.8076 156.096L57.6951 146.068C62.4826 148.776 67.5577 150.878 72.8479 152.346L75.5716 169.245C75.9495 171.59 77.9748 173.313 80.3516 173.313H101.678C104.055 173.313 106.08 171.59 106.458 169.245L109.182 152.345C114.473 150.878 119.548 148.776 124.334 146.068L138.223 156.096C140.149 157.487 142.801 157.276 144.482 155.596L159.561 140.527C161.242 138.847 161.454 136.197 160.062 134.272L150.027 120.393C152.737 115.61 154.841 110.538 156.309 105.249L173.219 102.528C175.565 102.15 177.291 100.126 177.291 97.7509V76.4377C177.291 74.0625 175.565 72.039 173.218 71.661ZM167.608 93.6297L151.622 96.2027C149.67 96.5172 148.105 97.9866 147.67 99.9151C146.216 106.358 143.683 112.462 140.143 118.058C139.086 119.729 139.153 121.875 140.311 123.478L149.798 136.598L140.551 145.839L127.421 136.359C125.817 135.201 123.67 135.134 121.998 136.191C116.398 139.729 110.29 142.259 103.844 143.711C101.915 144.146 100.444 145.71 100.129 147.661L97.5545 163.637H84.4755L81.9008 147.662C81.5861 145.711 80.1153 144.147 78.186 143.712C71.7408 142.26 65.6323 139.729 60.0302 136.191C58.3581 135.134 56.211 135.201 54.6082 136.359L41.4793 145.839L32.232 136.598L41.7176 123.478C42.876 121.875 42.9429 119.73 41.8861 118.059C38.3453 112.46 35.8133 106.356 34.3599 99.9151C33.9246 97.9866 32.3597 96.5172 30.4069 96.2027L14.422 93.6297V80.5592L30.4069 77.987C32.36 77.6725 33.9252 76.2024 34.3603 74.2739C35.8127 67.8339 38.3448 61.7299 41.8864 56.1302C42.9432 54.4589 42.8763 52.3138 41.7179 50.7115L32.2323 37.5911L41.4796 28.3497L54.6085 37.8302C56.2116 38.9878 58.3592 39.0546 60.0308 37.9983C65.6338 34.4582 71.742 31.9278 78.1856 30.4766C80.1153 30.0418 81.5864 28.4773 81.9011 26.5258L84.4758 10.5515H97.5548L100.13 26.5264C100.444 28.4778 101.915 30.0424 103.844 30.477C110.291 31.929 116.398 34.4595 121.999 37.9981C123.671 39.0544 125.818 38.9877 127.421 37.83L140.551 28.3495L149.798 37.591L140.312 50.7121C139.153 52.3145 139.086 54.4601 140.143 56.1314C143.685 61.7279 146.217 67.8316 147.67 74.2737C148.105 76.2022 149.67 77.6724 151.623 77.9868L167.608 80.5591V93.6297H167.608Z" fill="#39404C"/>
</g>
<g filter="url(#filter1_d_793_981)">
<path d="M91.0143 39.5869C64.8017 39.5869 43.4766 60.8981 43.4766 87.0936C43.4766 113.289 64.8017 134.6 91.0143 134.6C117.228 134.6 138.553 113.289 138.553 87.0936C138.553 60.8981 117.228 39.5869 91.0143 39.5869ZM91.0143 124.924C70.141 124.924 53.1594 107.953 53.1594 87.0936C53.1594 66.2338 70.141 49.2634 91.0143 49.2634C111.888 49.2634 128.871 66.2338 128.871 87.0936C128.871 107.953 111.888 124.924 91.0143 124.924Z" fill="#39404C"/>
</g>
<defs>
<filter id="filter0_d_793_981" x="0.739014" y="0.875" width="180.552" height="180.438" filterUnits="userSpaceOnUse" color-interpolation-filters="sRGB">
<feFlood flood-opacity="0" result="BackgroundImageFix"/>
<feColorMatrix in="SourceAlpha" type="matrix" values="0 0 0 0 0 0 0 0 0 0 0 0 0 0 0 0 0 0 127 0" result="hardAlpha"/>
<feOffset dy="4"/>
<feGaussianBlur stdDeviation="2"/>
<feComposite in2="hardAlpha" operator="out"/>
<feColorMatrix type="matrix" values="0 0 0 0 0 0 0 0 0 0 0 0 0 0 0 0 0 0 0.25 0"/>
<feBlend mode="normal" in2="BackgroundImageFix" result="effect1_dropShadow_793_981"/>
<feBlend mode="normal" in="SourceGraphic" in2="effect1_dropShadow_793_981" result="shape"/>
</filter>
<filter id="filter1_d_793_981" x="39.4766" y="39.5869" width="103.077" height="103.013" filterUnits="userSpaceOnUse" color-interpolation-filters="sRGB">
<feFlood flood-opacity="0" result="BackgroundImageFix"/>
<feColorMatrix in="SourceAlpha" type="matrix" values="0 0 0 0 0 0 0 0 0 0 0 0 0 0 0 0 0 0 127 0" result="hardAlpha"/>
<feOffset dy="4"/>
<feGaussianBlur stdDeviation="2"/>
<feComposite in2="hardAlpha" operator="out"/>
<feColorMatrix type="matrix" values="0 0 0 0 0 0 0 0 0 0 0 0 0 0 0 0 0 0 0.25 0"/>
<feBlend mode="normal" in2="BackgroundImageFix" result="effect1_dropShadow_793_981"/>
<feBlend mode="normal" in="SourceGraphic" in2="effect1_dropShadow_793_981" result="shape"/>
</filter>
</defs>
</svg>
