<svg width="783" height="588" viewBox="0 0 783 588" fill="none" xmlns="http://www.w3.org/2000/svg">
<path d="M782.017 36.3693L762.728 61.8606L699.593 92.8216L687.661 66.608L750.797 35.6469L782.017 36.3693ZM769.39 42.5615L753.804 42.2528L759.769 55.3596L769.39 42.5615ZM747.466 45.2965L709.585 63.8731L715.55 76.9799L753.432 58.4033L747.466 45.2965Z" fill="#39404C"/>
<path fill-rule="evenodd" clip-rule="evenodd" d="M647.613 484.291C646.786 482.317 644.515 481.388 642.541 482.216L628.247 488.208C626.273 489.036 625.344 491.307 626.171 493.28L628.418 498.641C628.832 499.628 628.367 500.763 627.381 501.177C626.394 501.59 625.258 501.126 624.845 500.139L622.597 494.778C621.77 492.805 619.499 491.876 617.526 492.703L603.231 498.696C601.257 499.523 600.328 501.794 601.155 503.768L603.403 509.128C603.816 510.115 603.352 511.25 602.365 511.664C601.378 512.078 600.243 511.613 599.829 510.626L597.582 505.266C596.754 503.292 594.484 502.363 592.51 503.19L578.215 509.183C576.242 510.011 575.312 512.281 576.14 514.255L580.634 524.976C583.427 531.637 590.329 535.323 597.159 534.326L609.334 563.365L605.76 564.864C604.222 565.508 603.269 567.065 603.394 568.729L604.105 578.163L603.107 578.581C601.134 579.408 600.205 581.679 601.032 583.653C601.859 585.626 604.13 586.556 606.104 585.728L609.678 584.23L674.003 557.262L677.577 555.764C679.551 554.937 680.48 552.666 679.652 550.692C678.825 548.719 676.554 547.789 674.581 548.617L673.583 549.035L667.353 541.915C666.255 540.659 664.477 540.247 662.939 540.892L659.365 542.391L647.191 513.351C652.691 509.179 654.9 501.673 652.108 495.012L647.613 484.291ZM640.232 516.798L652.218 545.387L616.481 560.369L604.496 531.78L640.232 516.798ZM666.049 552.194L611.639 575.004L611.332 570.931L615.904 569.014L658.788 551.036L663.359 549.12L666.049 552.194ZM641.964 490.861L644.96 498.008C646.615 501.956 644.757 506.497 640.809 508.152L597.926 526.131C593.978 527.785 589.437 525.927 587.782 521.98L584.785 514.832L591.933 511.836L592.682 513.623C594.75 518.557 600.427 520.88 605.361 518.811C610.296 516.743 612.619 511.066 610.55 506.132L609.801 504.345L616.948 501.349L617.697 503.135C619.766 508.07 625.443 510.393 630.377 508.324C635.311 506.255 637.634 500.579 635.566 495.644L634.817 493.858L641.964 490.861Z" fill="#B39B6B"/>
<path fill-rule="evenodd" clip-rule="evenodd" d="M46.7155 32.1175C45.8359 30.0566 46.7934 27.6728 48.8544 26.7932C50.9153 25.9135 53.2991 26.8712 54.1787 28.932C55.0583 30.9929 54.1008 33.3767 52.0398 34.2564C49.9789 35.136 47.5951 34.1784 46.7155 32.1175ZM59.686 38.4534C62.6044 35.0474 63.5219 30.1512 61.6419 25.7466C59.003 19.5639 51.8518 16.691 45.6689 19.33C39.486 21.9689 36.6134 29.1202 39.2523 35.3029C41.1322 39.7075 45.3023 42.4323 49.7808 42.6811L50.8981 67.6921L34.4073 64.6131C35.6839 61.657 35.7922 58.2029 34.4283 55.0075C31.7894 48.8248 24.6381 45.952 18.4554 48.5909C12.2726 51.2298 9.39981 58.3812 12.0387 64.5639C14.2316 69.7015 19.5404 72.5538 24.8199 71.8567L42.7775 95.5581L44.4369 105.944C45.2699 111.157 50.7801 114.199 55.6354 112.127L105.782 90.7235C110.638 88.651 112.253 82.5674 109.065 78.3597L102.713 69.9764L98.0214 40.6129C102.177 37.2829 103.79 31.4762 101.597 26.3385C98.9584 20.1558 91.8072 17.2829 85.6243 19.9219C79.4414 22.5609 76.5687 29.7121 79.2076 35.8949C80.5715 39.0902 83.1408 41.4014 86.1581 42.5248L76.9732 56.5627L59.686 38.4534ZM91.9937 34.8489C91.9933 34.8491 91.994 34.8488 91.9937 34.8489C94.0546 33.9693 95.0137 31.5849 94.1341 29.524C93.2544 27.4631 90.8707 26.5054 88.8097 27.3851C86.7488 28.2647 85.7912 30.6485 86.6708 32.7094C87.5502 34.7698 89.9331 35.7274 91.9937 34.8489ZM26.9651 58.193C27.8445 60.2533 26.8877 62.6364 24.8279 63.5166C22.767 64.3962 20.3816 63.4393 19.5019 61.3784C18.6223 59.3175 19.5799 56.9337 21.6408 56.0541C23.7017 55.1745 26.0855 56.1321 26.9651 58.193ZM52.4499 104.664L51.1303 96.4044L97.5455 76.5934L102.597 83.2603L52.4499 104.664ZM91.237 49.5831L94.3601 69.1302L47.9448 88.9411L35.9906 73.1634L54.4349 76.6076C55.6519 76.8345 56.9063 76.4937 57.8408 75.6815C58.7754 74.8692 59.2881 73.675 59.2327 72.4379L58.1686 48.6156L74.6344 65.8641C75.4893 66.76 76.7064 67.2159 77.9393 67.103C79.1726 66.99 80.2864 66.32 80.9644 65.2843L91.237 49.5831Z" fill="#39404C"/>
</svg>
