<svg width="146" height="146" viewBox="0 0 146 146" fill="none" xmlns="http://www.w3.org/2000/svg">
<path d="M141.874 89.6924L130.3 81.9261C130.965 77.6169 131.136 73.2639 130.811 68.9204L142.951 62.0796C145.021 60.9124 145.937 58.417 145.114 56.189L138.892 39.3535C138.068 37.1246 135.749 35.826 133.417 36.2816L119.742 38.9673C117.164 35.456 114.202 32.2593 110.895 29.4162L114.638 15.9961C115.276 13.708 114.158 11.2962 112 10.3026L95.6905 2.79476C93.5312 1.79853 90.9698 2.51939 89.6454 4.49167L81.8732 16.059C77.5702 15.3988 73.2084 15.2246 68.8605 15.5486L62.0145 3.41721C60.8461 1.34776 58.3496 0.431778 56.1194 1.25524L39.2729 7.47322C37.0428 8.29606 35.7411 10.6145 36.1997 12.9453L38.888 26.6097C35.3738 29.1861 32.1743 32.146 29.3293 35.4519L15.902 31.7104C13.6124 31.0752 11.1984 32.1904 10.2041 34.3469L2.69064 50.6457C1.6964 52.8029 2.41633 55.3625 4.38866 56.6868L15.9621 64.4539C15.2983 68.7637 15.1266 73.1166 15.4522 77.4587L3.31349 84.2998C1.24331 85.4669 0.326729 87.9629 1.15011 90.1904L7.37216 107.026C8.19554 109.255 10.5184 110.559 12.8479 110.098L26.5212 107.412C29.0973 110.922 32.0582 114.118 35.3687 116.964L31.6247 130.383C30.9871 132.67 32.1042 135.084 34.2628 136.077L50.5729 143.585C52.7322 144.579 55.2928 143.859 56.618 141.887L64.3908 130.321C68.6926 130.982 73.055 131.155 77.4035 130.831L84.2497 142.964C85.1282 144.521 86.7622 145.426 88.4669 145.426C89.0263 145.426 89.5935 145.329 90.1432 145.125L106.991 138.907C109.221 138.084 110.523 135.766 110.064 133.435L107.376 119.769C110.888 117.194 114.087 114.234 116.934 110.928L130.362 114.669C132.652 115.304 135.066 114.19 136.06 112.033L143.572 95.7333C144.566 93.5763 143.848 91.0168 141.874 89.6924ZM128.99 104.242L116.478 100.756C114.571 100.226 112.536 100.906 111.334 102.475C107.993 106.836 103.971 110.556 99.3789 113.534C97.7188 114.61 96.8812 116.587 97.2635 118.527L99.768 131.258L90.658 134.621L84.2804 123.318C83.4146 121.784 81.7949 120.857 80.0644 120.857C79.853 120.857 79.6396 120.87 79.4256 120.899C74.0316 121.616 68.4863 121.397 63.1477 120.261C61.2147 119.848 59.2228 120.654 58.1199 122.296L50.8779 133.071L42.0598 129.013L45.5476 116.508C46.0785 114.604 45.3976 112.569 43.8266 111.367C39.4632 108.029 35.7404 104.01 32.7604 99.4206C31.6845 97.762 29.7075 96.9259 27.765 97.3066L15.0264 99.8087L11.6615 90.7046L22.9709 84.3314C24.6939 83.3602 25.6524 81.4397 25.3916 79.4804C24.6716 74.0542 24.8864 68.5814 26.0305 63.2139C26.4426 61.2802 25.6361 59.291 23.9948 58.1887L13.211 50.9522L17.2735 42.139L29.7852 45.6252C31.6901 46.1537 33.7278 45.4746 34.93 43.9047C38.2664 39.547 42.2894 35.8265 46.8856 32.8457C48.5453 31.7698 49.3826 29.7934 49.0004 27.8535L46.4961 15.1233L55.6061 11.7605L61.9834 23.0624C62.9548 24.7843 64.8748 25.7434 66.8384 25.4822C72.2324 24.7668 77.7763 24.9841 83.1163 26.1206C85.0485 26.5317 87.0404 25.7265 88.144 24.0856L95.3853 13.3081L104.204 17.3674L100.716 29.8727C100.185 31.7775 100.866 33.8134 102.437 35.0142C106.796 38.3486 110.519 42.3675 113.501 46.9599C114.579 48.6185 116.556 49.4527 118.496 49.0741L131.237 46.5719L134.602 55.6753L123.292 62.0485C121.569 63.0199 120.61 64.9402 120.871 66.8996C121.592 72.3278 121.377 77.8007 120.232 83.166C119.819 85.0998 120.625 87.0896 122.268 88.1918L133.052 95.4284L128.99 104.242Z" fill="#39404C"/>
<path d="M73.1272 32.4106C68.3081 32.4106 63.5545 33.2631 58.9972 34.9453C37.895 42.7332 27.0679 66.2261 34.8609 87.3153C40.7519 103.257 56.1327 113.968 73.1345 113.97C73.1359 113.97 73.1359 113.97 73.1373 113.97C77.9546 113.97 82.708 113.117 87.2645 111.435C108.366 103.647 119.194 80.1544 111.401 59.0664C105.509 43.1227 90.1282 32.4106 73.1272 32.4106ZM83.9102 102.358C80.4306 103.642 76.8063 104.293 73.1373 104.293C73.1373 104.293 73.1359 104.293 73.1351 104.293C60.169 104.293 48.4376 96.1224 43.9438 83.9633C38.0001 67.8791 46.2579 49.9617 62.3521 44.0224C65.8311 42.7379 69.4561 42.0872 73.1271 42.0872C86.0933 42.0872 97.824 50.2579 102.318 62.4183C108.262 78.5012 100.003 96.418 83.9102 102.358Z" fill="#39404C"/>
</svg>
