<svg width="62" height="56" viewBox="0 0 62 56" fill="none" xmlns="http://www.w3.org/2000/svg">
<path d="M6.46982 11.4674C5.84095 10.838 4.82124 10.838 4.19237 11.4674L0.577757 15.0814C-0.0506585 15.7107 -0.0506585 16.7295 0.577757 17.359L2.92076 19.7019L8.81282 13.8102L6.46982 11.4674Z" fill="white"/>
<path d="M32.6492 43.5381L30.6405 35.6365L24.7485 41.529L32.6492 43.5381Z" fill="white"/>
<path d="M29.4351 34.4318L9.88413 14.8809L3.99219 20.7734L23.5426 40.3242L29.4351 34.4318ZM10.0443 17.399L27.0777 34.4326L25.7388 35.771L8.70547 18.7383L10.0443 17.399Z" fill="white"/>
<path d="M25.6723 13.5288H22.3369V16.712H25.6723V13.5288Z" fill="white"/>
<path d="M25.6723 21.2769H22.3369V24.4592H25.6723V21.2769Z" fill="white"/>
<path d="M48.9331 13.5288H29.271V16.712H48.9331V13.5288Z" fill="white"/>
<path d="M48.9331 21.2769H29.271V24.4592H48.9331V21.2769Z" fill="white"/>
<path d="M48.9328 29.0256H32.896V32.208H48.9328V29.0256Z" fill="white"/>
<path d="M52.0587 0.121094H25.4457C20.2965 0.121094 16.1084 4.30879 16.1084 9.45802V13.1762L19.5654 16.6342V9.45802C19.5654 6.21017 22.1988 3.57812 25.4457 3.57812H52.0587C55.3075 3.57812 57.9391 6.21017 57.9391 9.45802V38.3215H48.8387C46.1321 38.3215 43.9391 40.5163 43.9391 43.222V52.3228H25.4457C22.1987 52.3228 19.5654 49.6908 19.5654 46.4429V42.2309L18.8571 42.0506L19.5654 41.3422V38.8197L16.1084 35.3628V46.4429C16.1084 51.5913 20.2965 55.7799 25.4457 55.7799H43.9391H45.3704L46.3836 54.7672L60.3839 40.7669L61.3961 39.7543V38.3216V9.45802C61.3961 4.30879 57.208 0.121094 52.0587 0.121094Z" fill="white"/>
</svg>
