<svg width="1008" height="1392" viewBox="0 0 1008 1392" fill="none" xmlns="http://www.w3.org/2000/svg">
<g filter="url(#filter0_d_1083_1202)">
<path d="M353.5 1265.5L353.203 1266.97L353.5 1265.5ZM747.5 1168L748.774 1168.79L747.5 1168ZM998 1057L996.73 1056.2L998 1057ZM870.1 779.729L869.21 780.937L870.1 779.729ZM671 621L670.018 622.133L670.018 622.134L671 621ZM1208.5 351.5C1208.5 352.328 1209.17 353 1210 353C1210.83 353 1211.5 352.328 1211.5 351.5H1208.5ZM16.2327 1472.22C16.9504 1471.8 17.197 1470.89 16.7833 1470.17C16.3697 1469.45 15.4525 1469.2 14.7347 1469.62L16.2327 1472.22ZM29.9827 1454.8C29.4746 1455.45 29.5933 1456.39 30.2476 1456.9C30.902 1457.41 31.8443 1457.29 32.3523 1456.64L29.9827 1454.8ZM45.0155 1438.44C45.4656 1437.74 45.2667 1436.81 44.5712 1436.36C43.8758 1435.91 42.9471 1436.11 42.4969 1436.8L45.0155 1438.44ZM54.2376 1418.21C53.7986 1418.91 54.0122 1419.84 54.7147 1420.28C55.4172 1420.71 56.3426 1420.5 56.7817 1419.8L54.2376 1418.21ZM68.5202 1401.22C68.9688 1400.53 68.7678 1399.6 68.0713 1399.15C67.3748 1398.7 66.4466 1398.9 65.998 1399.6L68.5202 1401.22ZM78.2156 1381.22C77.7454 1381.9 77.9171 1382.83 78.5991 1383.31C79.2812 1383.78 80.2153 1383.6 80.6855 1382.92L78.2156 1381.22ZM93.537 1365.11C94.0374 1364.45 93.9079 1363.51 93.2477 1363.01C92.5875 1362.51 91.6467 1362.64 91.1462 1363.3L93.537 1365.11ZM104.956 1346.08C104.419 1346.71 104.495 1347.66 105.125 1348.2C105.756 1348.74 106.703 1348.66 107.24 1348.03L104.956 1346.08ZM121.999 1331.81C122.577 1331.22 122.566 1330.27 121.973 1329.69C121.38 1329.11 120.431 1329.12 119.852 1329.72L121.999 1331.81ZM135.88 1314.51C135.257 1315.05 135.194 1316 135.74 1316.62C136.286 1317.25 137.233 1317.31 137.857 1316.76L135.88 1314.51ZM154.924 1303.07C155.593 1302.58 155.739 1301.65 155.25 1300.98C154.761 1300.31 153.822 1300.16 153.153 1300.65L154.924 1303.07ZM171.612 1288.45C170.9 1288.87 170.665 1289.79 171.088 1290.5C171.511 1291.21 172.431 1291.45 173.144 1291.03L171.612 1288.45ZM192.447 1280.83C193.199 1280.48 193.524 1279.59 193.175 1278.84C192.826 1278.09 191.934 1277.76 191.182 1278.11L192.447 1280.83ZM211.753 1269.8C210.97 1270.07 210.554 1270.92 210.825 1271.71C211.095 1272.49 211.95 1272.91 212.733 1272.64L211.753 1269.8ZM233.683 1266.56C234.489 1266.37 234.988 1265.56 234.798 1264.76C234.607 1263.95 233.799 1263.45 232.993 1263.64L233.683 1266.56ZM254.714 1259.6C253.894 1259.71 253.32 1260.47 253.433 1261.29C253.546 1262.11 254.303 1262.68 255.124 1262.57L254.714 1259.6ZM276.875 1260.57C277.702 1260.53 278.341 1259.82 278.301 1259C278.261 1258.17 277.558 1257.53 276.731 1257.57L276.875 1260.57ZM298.838 1257.41C298.01 1257.38 297.317 1258.03 297.29 1258.86C297.263 1259.69 297.913 1260.38 298.741 1260.41L298.838 1257.41ZM320.565 1261.93C321.389 1262.01 322.127 1261.41 322.214 1260.59C322.301 1259.77 321.703 1259.03 320.879 1258.94L320.565 1261.93ZM342.747 1261.97C341.931 1261.83 341.156 1262.38 341.016 1263.2C340.877 1264.01 341.426 1264.79 342.242 1264.93L342.747 1261.97ZM363.945 1269.3C364.752 1269.48 365.558 1268.98 365.745 1268.17C365.931 1267.37 365.428 1266.56 364.621 1266.37L363.945 1269.3ZM385.838 1271.9C385.042 1271.67 384.21 1272.13 383.98 1272.92C383.75 1273.72 384.208 1274.55 385.004 1274.78L385.838 1271.9ZM405.853 1281.4C406.636 1281.67 407.49 1281.26 407.76 1280.47C408.03 1279.69 407.615 1278.84 406.832 1278.57L405.853 1281.4ZM427.42 1286.19C426.649 1285.89 425.778 1286.27 425.474 1287.04C425.17 1287.81 425.549 1288.68 426.319 1288.98L427.42 1286.19ZM446.52 1297.35C447.28 1297.68 448.163 1297.33 448.492 1296.57C448.821 1295.81 448.471 1294.93 447.71 1294.6L446.52 1297.35ZM467.721 1303.49C466.966 1303.15 466.078 1303.48 465.736 1304.24C465.394 1304.99 465.729 1305.88 466.484 1306.22L467.721 1303.49ZM486.486 1315.27C487.242 1315.61 488.129 1315.27 488.467 1314.51C488.805 1313.75 488.465 1312.87 487.709 1312.53L486.486 1315.27ZM507.797 1321.13C507.029 1320.82 506.155 1321.19 505.845 1321.96C505.536 1322.73 505.908 1323.6 506.677 1323.91L507.797 1321.13ZM527.393 1331.37C528.184 1331.62 529.024 1331.17 529.268 1330.38C529.513 1329.59 529.069 1328.75 528.277 1328.5L527.393 1331.37ZM549.35 1333.49C548.532 1333.36 547.765 1333.92 547.639 1334.74C547.512 1335.56 548.073 1336.33 548.892 1336.45L549.35 1333.49ZM571.016 1337.63C571.843 1337.58 572.476 1336.87 572.429 1336.05C572.383 1335.22 571.675 1334.59 570.848 1334.63L571.016 1337.63ZM592.014 1330.93C591.22 1331.16 590.768 1332 591.004 1332.79C591.24 1333.59 592.076 1334.04 592.87 1333.8L592.014 1330.93ZM613.304 1325.32C614.035 1324.93 614.312 1324.02 613.922 1323.29C613.533 1322.56 612.624 1322.28 611.893 1322.67L613.304 1325.32ZM630.127 1311.05C629.461 1311.54 629.32 1312.48 629.813 1313.14C630.306 1313.81 631.245 1313.95 631.911 1313.46L630.127 1311.05ZM648.923 1299.36C649.534 1298.8 649.576 1297.85 649.017 1297.24C648.457 1296.63 647.508 1296.58 646.897 1297.14L648.923 1299.36ZM662.406 1281.79C661.838 1282.39 661.867 1283.34 662.47 1283.91C663.073 1284.48 664.022 1284.45 664.59 1283.85L662.406 1281.79ZM679.139 1267.48C679.673 1266.85 679.593 1265.91 678.96 1265.37C678.327 1264.84 677.38 1264.92 676.846 1265.55L679.139 1267.48ZM690.556 1248.58C690.048 1249.23 690.167 1250.17 690.822 1250.68C691.476 1251.19 692.419 1251.07 692.926 1250.42L690.556 1248.58ZM706.104 1232.83C706.591 1232.16 706.441 1231.22 705.771 1230.73C705.1 1230.25 704.162 1230.4 703.676 1231.07L706.104 1232.83ZM716.336 1213.12C715.867 1213.8 716.04 1214.73 716.723 1215.2C717.406 1215.67 718.339 1215.5 718.808 1214.81L716.336 1213.12ZM731.012 1196.63C731.466 1195.94 731.274 1195.01 730.581 1194.55C729.889 1194.1 728.959 1194.29 728.504 1194.98L731.012 1196.63ZM740.261 1176.73C739.818 1177.43 740.027 1178.35 740.727 1178.79C741.428 1179.24 742.354 1179.03 742.797 1178.33L740.261 1176.73ZM754.559 1159.96C755.03 1159.28 754.859 1158.34 754.177 1157.87C753.496 1157.4 752.562 1157.57 752.091 1158.25L754.559 1159.96ZM765.146 1141.53C764.595 1142.15 764.65 1143.1 765.268 1143.65C765.887 1144.2 766.835 1144.15 767.386 1143.53L765.146 1141.53ZM782.36 1129.21C783.006 1128.69 783.111 1127.75 782.594 1127.1C782.076 1126.45 781.132 1126.35 780.485 1126.87L782.36 1129.21ZM798.405 1115.37C797.663 1115.73 797.359 1116.63 797.727 1117.38C798.095 1118.12 798.995 1118.42 799.737 1118.05L798.405 1115.37ZM819.13 1111.1C819.936 1110.91 820.436 1110.1 820.247 1109.3C820.057 1108.49 819.249 1107.99 818.443 1108.18L819.13 1111.1ZM839.542 1105.37C838.714 1105.41 838.073 1106.11 838.111 1106.94C838.148 1107.76 838.849 1108.4 839.677 1108.37L839.542 1105.37ZM860.532 1108.7C861.358 1108.76 862.071 1108.13 862.124 1107.3C862.176 1106.48 861.549 1105.76 860.722 1105.71L860.532 1108.7ZM881.721 1107.46C880.896 1107.39 880.167 1108 880.093 1108.82C880.019 1109.65 880.627 1110.38 881.452 1110.45L881.721 1107.46ZM902.523 1111.89C903.351 1111.91 904.044 1111.27 904.07 1110.44C904.097 1109.61 903.447 1108.92 902.619 1108.89L902.523 1111.89ZM923.395 1108.19C922.572 1108.28 921.982 1109.03 922.077 1109.85C922.172 1110.67 922.917 1111.26 923.74 1111.17L923.395 1108.19ZM944.522 1106.43C945.302 1106.15 945.709 1105.3 945.431 1104.52C945.153 1103.74 944.295 1103.33 943.514 1103.61L944.522 1106.43ZM961.88 1094.3C961.193 1094.77 961.011 1095.7 961.473 1096.39C961.936 1097.07 962.868 1097.26 963.555 1096.79L961.88 1094.3ZM979.797 1083.08C980.373 1082.48 980.359 1081.53 979.764 1080.96C979.17 1080.38 978.22 1080.39 977.643 1080.99L979.797 1083.08ZM990.888 1064.94C990.407 1065.62 990.565 1066.56 991.239 1067.04C991.914 1067.52 992.851 1067.36 993.331 1066.68L990.888 1064.94ZM1004.62 1048.58C1005.01 1047.85 1004.74 1046.94 1004.01 1046.55C1003.28 1046.16 1002.37 1046.43 1001.98 1047.16L1004.62 1048.58ZM1010.38 1028.07C1010.11 1028.86 1010.52 1029.71 1011.3 1029.99C1012.08 1030.26 1012.94 1029.85 1013.21 1029.06L1010.38 1028.07ZM1018.54 1008.4C1018.68 1007.58 1018.13 1006.81 1017.31 1006.67C1016.49 1006.53 1015.72 1007.08 1015.58 1007.9L1018.54 1008.4ZM1017.28 987.133C1017.29 987.961 1017.96 988.63 1018.79 988.628C1019.62 988.625 1020.29 987.951 1020.28 987.123L1017.28 987.133ZM1018.48 965.886C1018.34 965.068 1017.57 964.515 1016.75 964.65C1015.94 964.785 1015.38 965.557 1015.52 966.375L1018.48 965.886ZM1010.63 946.066C1010.88 946.856 1011.72 947.295 1012.51 947.046C1013.3 946.796 1013.74 945.954 1013.49 945.164L1010.63 946.066ZM1005.86 925.326C1005.52 924.571 1004.63 924.237 1003.87 924.578C1003.12 924.92 1002.78 925.809 1003.13 926.564L1005.86 925.326ZM993.509 907.956C993.924 908.673 994.842 908.917 995.559 908.501C996.275 908.086 996.52 907.168 996.104 906.451L993.509 907.956ZM984.682 888.557C984.209 887.877 983.274 887.709 982.594 888.183C981.914 888.656 981.747 889.591 982.22 890.271L984.682 888.557ZM969.593 873.444C970.112 874.09 971.057 874.193 971.702 873.673C972.348 873.154 972.45 872.21 971.931 871.564L969.593 873.444ZM958.184 855.47C957.629 854.855 956.68 854.807 956.065 855.363C955.451 855.918 955.403 856.867 955.958 857.481L958.184 855.47ZM941.464 842.235C942.049 842.822 942.998 842.823 943.585 842.238C944.172 841.653 944.173 840.703 943.588 840.117L941.464 842.235ZM928.329 825.461C927.72 824.899 926.771 824.938 926.21 825.547C925.648 826.156 925.687 827.105 926.296 827.667L928.329 825.461ZM910.495 813.638C911.124 814.177 912.071 814.103 912.61 813.474C913.148 812.845 913.075 811.898 912.446 811.359L910.495 813.638ZM896.202 797.899C895.556 797.38 894.612 797.483 894.093 798.129C893.575 798.775 893.678 799.72 894.324 800.238L896.202 797.899ZM877.728 787.302C878.388 787.802 879.329 787.672 879.829 787.012C880.329 786.352 880.2 785.411 879.539 784.911L877.728 787.302ZM862.463 772.209C861.798 771.715 860.859 771.853 860.364 772.518C859.87 773.183 860.008 774.122 860.673 774.617L862.463 772.209ZM843.67 761.882C844.331 762.381 845.272 762.25 845.771 761.588C846.27 760.927 846.138 759.987 845.477 759.488L843.67 761.882ZM828.583 746.651C827.925 746.148 826.984 746.273 826.481 746.931C825.977 747.589 826.102 748.53 826.76 749.034L828.583 746.651ZM809.942 736.082C810.596 736.589 811.539 736.47 812.046 735.815C812.554 735.16 812.434 734.218 811.779 733.71L809.942 736.082ZM795.06 720.671C794.408 720.16 793.465 720.273 792.954 720.925C792.443 721.577 792.556 722.52 793.208 723.031L795.06 720.671ZM776.535 709.872C777.184 710.387 778.128 710.279 778.643 709.63C779.158 708.981 779.049 708.037 778.401 707.522L776.535 709.872ZM761.821 694.286C761.175 693.768 760.231 693.871 759.713 694.517C759.194 695.163 759.297 696.107 759.943 696.626L761.821 694.286ZM743.419 683.286C744.062 683.808 745.006 683.71 745.529 683.067C746.051 682.423 745.952 681.479 745.309 680.957L743.419 683.286ZM728.846 667.521C728.206 666.995 727.26 667.089 726.735 667.729C726.209 668.37 726.303 669.315 726.943 669.84L728.846 667.521ZM710.601 656.356C711.238 656.885 712.184 656.797 712.713 656.16C713.242 655.522 713.154 654.577 712.516 654.048L710.601 656.356ZM696.211 640.44C695.576 639.907 694.63 639.99 694.098 640.624C693.565 641.259 693.647 642.205 694.282 642.738L696.211 640.44ZM678.029 628.997C678.66 629.535 679.606 629.459 680.144 628.828C680.681 628.198 680.605 627.251 679.975 626.714L678.029 628.997ZM663.819 612.504C663.214 611.937 662.265 611.968 661.698 612.573C661.132 613.177 661.163 614.127 661.767 614.693L663.819 612.504ZM646.027 598.917C646.593 599.521 647.543 599.552 648.147 598.985C648.752 598.419 648.782 597.47 648.216 596.865L646.027 598.917ZM633.577 580.353C633.044 579.719 632.098 579.637 631.464 580.17C630.83 580.703 630.748 581.65 631.281 582.284L633.577 580.353ZM617.389 564.914C617.891 565.573 618.832 565.7 619.491 565.198C620.15 564.696 620.278 563.755 619.776 563.096L617.389 564.914ZM606.783 545.209C606.311 544.528 605.377 544.358 604.696 544.83C604.015 545.301 603.845 546.236 604.317 546.917L606.783 545.209ZM592.063 528.368C592.504 529.069 593.43 529.279 594.131 528.838C594.832 528.397 595.043 527.471 594.602 526.77L592.063 528.368ZM583.245 507.813C582.835 507.093 581.919 506.842 581.199 507.252C580.479 507.661 580.228 508.577 580.638 509.297L583.245 507.813ZM570.083 489.725C570.459 490.463 571.363 490.756 572.101 490.38C572.839 490.004 573.132 489.101 572.756 488.363L570.083 489.725ZM563.21 468.438C562.871 467.682 561.983 467.344 561.227 467.684C560.472 468.023 560.134 468.91 560.473 469.666L563.21 468.438ZM551.91 449.133C552.208 449.906 553.076 450.291 553.849 449.994C554.622 449.696 555.008 448.828 554.71 448.055L551.91 449.133ZM547.399 427.232C547.149 426.442 546.307 426.004 545.517 426.254C544.727 426.504 544.289 427.347 544.539 428.137L547.399 427.232ZM538.549 406.689C538.743 407.494 539.553 407.99 540.358 407.796C541.164 407.602 541.659 406.792 541.465 405.986L538.549 406.689ZM537.16 384.364C537.032 383.545 536.266 382.985 535.447 383.112C534.628 383.24 534.068 384.007 534.195 384.825L537.16 384.364ZM531.819 362.651C531.865 363.478 532.574 364.111 533.401 364.065C534.228 364.018 534.861 363.31 534.814 362.483L531.819 362.651ZM534.677 340.415C534.703 339.587 534.053 338.895 533.225 338.868C532.397 338.842 531.705 339.491 531.678 340.319L534.677 340.415ZM533.104 318.065C533.025 318.889 533.629 319.622 534.453 319.702C535.278 319.782 536.011 319.178 536.09 318.353L533.104 318.065ZM538.927 296.409C539.06 295.591 538.505 294.821 537.687 294.688C536.87 294.555 536.099 295.11 535.966 295.928L538.927 296.409ZM540.262 274.024C540.076 274.831 540.58 275.637 541.387 275.822C542.194 276.008 542.999 275.505 543.185 274.697L540.262 274.024ZM548.849 253.321C549.087 252.528 548.637 251.692 547.844 251.453C547.05 251.215 546.214 251.665 545.976 252.459L548.849 253.321ZM553.091 231.307C552.801 232.083 553.195 232.947 553.971 233.237C554.748 233.527 555.612 233.132 555.901 232.356L553.091 231.307ZM564.312 211.893C564.652 211.138 564.315 210.25 563.56 209.91C562.804 209.57 561.916 209.907 561.576 210.663L564.312 211.893ZM571.39 190.624C571.001 191.356 571.28 192.264 572.011 192.652C572.743 193.041 573.651 192.762 574.039 192.031L571.39 190.624ZM585.044 172.841C585.48 172.136 585.261 171.212 584.557 170.777C583.852 170.341 582.927 170.56 582.492 171.265L585.044 172.841ZM594.832 152.669C594.352 153.344 594.51 154.281 595.185 154.761C595.86 155.241 596.796 155.083 597.276 154.408L594.832 152.669ZM610.679 136.813C611.203 136.17 611.106 135.225 610.464 134.702C609.821 134.179 608.876 134.276 608.353 134.918L610.679 136.813ZM623.001 118.081C622.437 118.688 622.472 119.637 623.079 120.201C623.686 120.765 624.635 120.73 625.199 120.123L623.001 118.081ZM640.772 104.412C641.374 103.843 641.401 102.893 640.832 102.291C640.263 101.689 639.313 101.663 638.711 102.232L640.772 104.412ZM655.42 87.4376C654.782 87.9662 654.693 88.9119 655.222 89.5497C655.751 90.1875 656.696 90.2759 657.334 89.7473L655.42 87.4376ZM674.815 76.195C675.486 75.7091 675.636 74.7712 675.15 74.1003C674.664 73.4293 673.727 73.2793 673.056 73.7652L674.815 76.195ZM691.55 61.2741C690.848 61.715 690.637 62.641 691.078 63.3424C691.519 64.0437 692.445 64.2548 693.146 63.8139L691.55 61.2741ZM712.251 52.6623C712.98 52.2684 713.252 51.3583 712.858 50.6295C712.464 49.9007 711.554 49.6291 710.825 50.0229L712.251 52.6623ZM730.795 40.0687C730.042 40.4136 729.711 41.3038 730.055 42.057C730.4 42.8103 731.29 43.1413 732.044 42.7964L730.795 40.0687ZM752.451 34.2586C753.225 33.9644 753.615 33.0981 753.32 32.3236C753.026 31.5492 752.16 31.16 751.385 31.4542L752.451 34.2586ZM772.501 24.2244C771.709 24.4666 771.263 25.3051 771.505 26.0974C771.748 26.8896 772.586 27.3355 773.378 27.0934L772.501 24.2244ZM794.727 21.3358C795.533 21.1468 796.034 20.3397 795.845 19.5331C795.656 18.7265 794.849 18.2259 794.042 18.415L794.727 21.3358ZM815.932 14.0454C815.114 14.1805 814.561 14.9527 814.697 15.77C814.832 16.5873 815.604 17.1403 816.421 17.0052L815.932 14.0454ZM838.358 14.1184C839.183 14.0375 839.785 13.3035 839.705 12.479C839.624 11.6546 838.89 11.0518 838.065 11.1328L838.358 14.1184ZM860.319 9.68145C859.491 9.70836 858.842 10.4014 858.869 11.2294C858.895 12.0574 859.589 12.7068 860.417 12.6799L860.319 9.68145ZM882.584 12.6799C883.412 12.7068 884.105 12.0574 884.131 11.2294C884.158 10.4014 883.509 9.70836 882.681 9.68145L882.584 12.6799ZM904.935 11.1328C904.111 11.0518 903.377 11.6546 903.296 12.479C903.215 13.3035 903.817 14.0375 904.642 14.1184L904.935 11.1328ZM926.579 17.0052C927.396 17.1403 928.168 16.5873 928.303 15.77C928.439 14.9527 927.886 14.1805 927.068 14.0454L926.579 17.0052ZM948.958 18.415C948.151 18.226 947.344 18.7266 947.155 19.5331C946.966 20.3397 947.467 21.1468 948.273 21.3358L948.958 18.415ZM969.622 27.0934C970.414 27.3356 971.252 26.8896 971.495 26.0974C971.737 25.3052 971.291 24.4666 970.499 24.2244L969.622 27.0934ZM991.615 31.4542C990.84 31.16 989.974 31.5492 989.68 32.3237C989.385 33.0981 989.775 33.9644 990.549 34.2586L991.615 31.4542ZM1010.96 42.7964C1011.71 43.1413 1012.6 42.8103 1012.94 42.0571C1013.29 41.3038 1012.96 40.4136 1012.21 40.0688L1010.96 42.7964ZM1032.17 50.023C1031.45 49.6291 1030.54 49.9007 1030.14 50.6295C1029.75 51.3583 1030.02 52.2684 1030.75 52.6623L1032.17 50.023ZM1049.85 63.8139C1050.56 64.2549 1051.48 64.0437 1051.92 63.3424C1052.36 62.641 1052.15 61.7151 1051.45 61.2741L1049.85 63.8139ZM1069.94 73.7653C1069.27 73.2794 1068.34 73.4294 1067.85 74.1003C1067.36 74.7713 1067.51 75.7091 1068.18 76.195L1069.94 73.7653ZM1085.67 89.7473C1086.3 90.276 1087.25 90.1875 1087.78 89.5497C1088.31 88.9119 1088.22 87.9663 1087.58 87.4376L1085.67 89.7473ZM1104.29 102.232C1103.69 101.663 1102.74 101.689 1102.17 102.291C1101.6 102.894 1101.63 103.843 1102.23 104.412L1104.29 102.232ZM1117.8 120.123C1118.36 120.73 1119.31 120.765 1119.92 120.201C1120.53 119.637 1120.56 118.688 1120 118.081L1117.8 120.123ZM1134.65 134.918C1134.12 134.276 1133.18 134.179 1132.54 134.702C1131.89 135.226 1131.8 136.17 1132.32 136.813L1134.65 134.918ZM1145.72 154.408C1146.2 155.083 1147.14 155.241 1147.82 154.761C1148.49 154.281 1148.65 153.344 1148.17 152.669L1145.72 154.408ZM1160.51 171.265C1160.07 170.56 1159.15 170.341 1158.44 170.777C1157.74 171.212 1157.52 172.136 1157.96 172.841L1160.51 171.265ZM1168.96 192.031C1169.35 192.763 1170.26 193.041 1170.99 192.652C1171.72 192.264 1172 191.356 1171.61 190.624L1168.96 192.031ZM1181.42 210.663C1181.08 209.907 1180.2 209.57 1179.44 209.91C1178.68 210.25 1178.35 211.138 1178.69 211.893L1181.42 210.663ZM1187.1 232.356C1187.39 233.132 1188.25 233.527 1189.03 233.237C1189.8 232.947 1190.2 232.083 1189.91 231.307L1187.1 232.356ZM1197.02 252.459C1196.79 251.665 1195.95 251.215 1195.16 251.453C1194.36 251.692 1193.91 252.528 1194.15 253.322L1197.02 252.459ZM1199.81 274.697C1200 275.505 1200.81 276.008 1201.61 275.823C1202.42 275.637 1202.92 274.832 1202.74 274.024L1199.81 274.697ZM1207.03 295.928C1206.9 295.11 1206.13 294.555 1205.31 294.688C1204.49 294.821 1203.94 295.591 1204.07 296.409L1207.03 295.928ZM1206.91 318.353C1206.99 319.178 1207.72 319.782 1208.55 319.702C1209.37 319.623 1209.98 318.89 1209.9 318.065L1206.91 318.353ZM1211.32 340.32C1211.3 339.492 1210.6 338.842 1209.77 338.868C1208.95 338.895 1208.3 339.587 1208.32 340.415L1211.32 340.32ZM4.8503 1474.99C8.75427 1475.38 12.5364 1474.35 16.2327 1472.22L14.7347 1469.62C11.4484 1471.51 8.29091 1472.32 5.1497 1472.01L4.8503 1474.99ZM32.3523 1456.64C36.4042 1451.42 40.5961 1445.26 45.0155 1438.44L42.4969 1436.8C38.0947 1443.61 33.9567 1449.68 29.9827 1454.8L32.3523 1456.64ZM56.7817 1419.8C60.497 1413.85 64.395 1407.63 68.5202 1401.22L65.998 1399.6C61.8606 1406.02 57.953 1412.26 54.2376 1418.21L56.7817 1419.8ZM80.6855 1382.92C84.7521 1377.02 89.0263 1371.06 93.537 1365.11L91.1462 1363.3C86.6042 1369.29 82.3035 1375.29 78.2156 1381.22L80.6855 1382.92ZM107.24 1348.03C111.92 1342.53 116.832 1337.11 121.999 1331.81L119.852 1329.72C114.633 1335.06 109.676 1340.54 104.956 1346.08L107.24 1348.03ZM137.857 1316.76C143.286 1312.01 148.968 1307.43 154.924 1303.07L153.153 1300.65C147.122 1305.06 141.371 1309.7 135.88 1314.51L137.857 1316.76ZM173.144 1291.03C179.309 1287.37 185.737 1283.95 192.447 1280.83L191.182 1278.11C184.378 1281.28 177.86 1284.74 171.612 1288.45L173.144 1291.03ZM212.733 1272.64C219.455 1270.31 226.434 1268.28 233.683 1266.56L232.993 1263.64C225.645 1265.38 218.57 1267.44 211.753 1269.8L212.733 1272.64ZM255.124 1262.57C262.139 1261.6 269.386 1260.93 276.875 1260.57L276.731 1257.57C269.154 1257.93 261.819 1258.62 254.714 1259.6L255.124 1262.57ZM298.741 1260.41C305.814 1260.64 313.086 1261.14 320.565 1261.93L320.879 1258.94C313.33 1258.15 305.985 1257.64 298.838 1257.41L298.741 1260.41ZM342.242 1264.93C345.851 1265.54 349.504 1266.22 353.203 1266.97L353.797 1264.03C350.069 1263.28 346.386 1262.59 342.747 1261.97L342.242 1264.93ZM353.203 1266.97C356.841 1267.7 360.421 1268.48 363.945 1269.3L364.621 1266.37C361.07 1265.55 357.463 1264.77 353.797 1264.03L353.203 1266.97ZM385.004 1274.78C392.186 1276.86 399.128 1279.08 405.853 1281.4L406.832 1278.57C400.063 1276.23 393.073 1273.99 385.838 1271.9L385.004 1274.78ZM426.319 1288.98C433.278 1291.73 440.001 1294.54 446.52 1297.35L447.71 1294.6C441.168 1291.77 434.415 1288.95 427.42 1286.19L426.319 1288.98ZM466.484 1306.22C473.347 1309.33 480.007 1312.38 486.486 1315.27L487.709 1312.53C481.239 1309.64 474.598 1306.6 467.721 1303.49L466.484 1306.22ZM506.677 1323.91C513.716 1326.75 520.601 1329.27 527.393 1331.37L528.277 1328.5C521.587 1326.44 514.783 1323.94 507.797 1321.13L506.677 1323.91ZM548.892 1336.45C556.265 1337.59 563.611 1338.04 571.016 1337.63L570.848 1334.63C563.677 1335.03 556.542 1334.6 549.35 1333.49L548.892 1336.45ZM592.87 1333.8C599.568 1331.81 606.359 1329.02 613.304 1325.32L611.893 1322.67C605.113 1326.28 598.507 1328.99 592.014 1330.93L592.87 1333.8ZM631.911 1313.46C637.453 1309.36 643.114 1304.67 648.923 1299.36L646.897 1297.14C641.157 1302.4 635.576 1307.02 630.127 1311.05L631.911 1313.46ZM664.59 1283.85C669.331 1278.81 674.176 1273.36 679.139 1267.48L676.846 1265.55C671.915 1271.39 667.106 1276.8 662.406 1281.79L664.59 1283.85ZM692.926 1250.42C697.227 1244.87 701.617 1239.01 706.104 1232.83L703.676 1231.07C699.206 1237.23 694.836 1243.06 690.556 1248.58L692.926 1250.42ZM718.808 1214.81C722.799 1209 726.865 1202.94 731.012 1196.63L728.504 1194.98C724.368 1201.28 720.314 1207.32 716.336 1213.12L718.808 1214.81ZM742.797 1178.33C744.771 1175.21 746.764 1172.03 748.774 1168.79L746.226 1167.21C744.219 1170.44 742.231 1173.61 740.261 1176.73L742.797 1178.33ZM748.774 1168.79C750.698 1165.7 752.626 1162.75 754.559 1159.96L752.091 1158.25C750.129 1161.09 748.174 1164.07 746.226 1167.21L748.774 1168.79ZM767.386 1143.53C772.358 1137.95 777.351 1133.22 782.36 1129.21L780.485 1126.87C775.336 1130.99 770.221 1135.84 765.146 1141.53L767.386 1143.53ZM799.737 1118.05C806.174 1114.86 812.641 1112.63 819.13 1111.1L818.443 1108.18C811.747 1109.76 805.062 1112.07 798.405 1115.37L799.737 1118.05ZM839.677 1108.37C846.61 1108.05 853.563 1108.26 860.532 1108.7L860.722 1105.71C853.69 1105.26 846.621 1105.05 839.542 1105.37L839.677 1108.37ZM881.452 1110.45C888.48 1111.08 895.517 1111.66 902.523 1111.89L902.619 1108.89C895.705 1108.67 888.742 1108.1 881.721 1107.46L881.452 1110.45ZM923.74 1111.17C930.712 1110.36 937.647 1108.88 944.522 1106.43L943.514 1103.61C936.885 1105.97 930.176 1107.4 923.395 1108.19L923.74 1111.17ZM963.555 1096.79C969.04 1093.1 974.456 1088.58 979.797 1083.08L977.643 1080.99C972.438 1086.35 967.181 1090.74 961.88 1094.3L963.555 1096.79ZM993.331 1066.68C995.323 1063.89 997.303 1060.93 999.27 1057.8L996.73 1056.2C994.792 1059.29 992.844 1062.2 990.888 1064.94L993.331 1066.68ZM999.27 1057.8C1001.16 1054.79 1002.95 1051.71 1004.62 1048.58L1001.98 1047.16C1000.34 1050.24 998.585 1053.25 996.73 1056.2L999.27 1057.8ZM1013.21 1029.06C1015.53 1022.41 1017.34 1015.52 1018.54 1008.4L1015.58 1007.9C1014.41 1014.85 1012.65 1021.57 1010.38 1028.07L1013.21 1029.06ZM1020.28 987.123C1020.26 980.227 1019.68 973.147 1018.48 965.886L1015.52 966.375C1016.69 973.479 1017.26 980.399 1017.28 987.133L1020.28 987.123ZM1013.49 945.164C1011.44 938.679 1008.91 932.065 1005.86 925.326L1003.13 926.564C1006.13 933.199 1008.62 939.701 1010.63 946.066L1013.49 945.164ZM996.104 906.451C992.697 900.575 988.897 894.61 984.682 888.557L982.22 890.271C986.39 896.26 990.145 902.155 993.509 907.956L996.104 906.451ZM971.931 871.564C967.669 866.263 963.091 860.898 958.184 855.47L955.958 857.481C960.828 862.869 965.369 868.19 969.593 873.444L971.931 871.564ZM943.588 840.117C938.764 835.279 933.681 830.394 928.329 825.461L926.296 827.667C931.618 832.573 936.671 837.429 941.464 842.235L943.588 840.117ZM912.446 811.359C907.25 806.91 901.838 802.423 896.202 797.899L894.324 800.238C899.936 804.743 905.324 809.21 910.495 813.638L912.446 811.359ZM879.539 784.911C876.739 782.789 873.889 780.659 870.991 778.522L869.21 780.937C872.099 783.066 874.938 785.188 877.728 787.302L879.539 784.911ZM870.991 778.522C868.138 776.419 865.295 774.314 862.463 772.209L860.673 774.617C863.508 776.724 866.354 778.831 869.21 780.937L870.991 778.522ZM845.477 759.488C839.781 755.19 834.146 750.907 828.583 746.651L826.76 749.034C832.328 753.293 837.969 757.581 843.67 761.882L845.477 759.488ZM811.779 733.71C806.105 729.312 800.527 724.961 795.06 720.671L793.208 723.031C798.68 727.325 804.263 731.68 809.942 736.082L811.779 733.71ZM778.401 707.522C772.717 703.01 767.184 698.591 761.821 694.286L759.943 696.626C765.31 700.934 770.847 705.356 776.535 709.872L778.401 707.522ZM745.309 680.957C739.555 676.286 734.057 671.797 728.846 667.521L726.943 669.84C732.158 674.119 737.66 678.612 743.419 683.286L745.309 680.957ZM712.516 654.048C706.489 649.047 701.03 644.486 696.211 640.44L694.282 642.738C699.105 646.787 704.569 651.352 710.601 656.356L712.516 654.048ZM679.975 626.714C677.379 624.502 675.38 622.789 674.03 621.63C673.355 621.05 672.843 620.609 672.499 620.312C672.328 620.164 672.198 620.052 672.112 619.978C672.068 619.94 672.036 619.912 672.014 619.893C672.003 619.884 671.995 619.877 671.99 619.872C671.987 619.87 671.985 619.868 671.984 619.867C671.983 619.867 671.983 619.866 671.982 619.866C671.982 619.866 671.982 619.866 671.982 619.866C671.982 619.866 671.982 619.865 671.982 619.865C671.982 619.865 671.982 619.865 671 621C670.018 622.134 670.018 622.134 670.018 622.134C670.018 622.134 670.018 622.134 670.018 622.134C670.018 622.134 670.019 622.134 670.019 622.134C670.019 622.134 670.02 622.135 670.02 622.135C670.022 622.137 670.024 622.138 670.027 622.141C670.032 622.146 670.04 622.153 670.052 622.162C670.073 622.181 670.106 622.21 670.15 622.247C670.237 622.323 670.367 622.435 670.54 622.584C670.885 622.882 671.399 623.324 672.075 623.905C673.428 625.067 675.43 626.783 678.029 628.997L679.975 626.714ZM671.982 619.866C669.28 617.525 666.556 615.069 663.819 612.504L661.767 614.693C664.532 617.284 667.285 619.766 670.018 622.133L671.982 619.866ZM648.216 596.865C643.328 591.65 638.436 586.134 633.577 580.353L631.281 582.284C636.173 588.103 641.1 593.66 646.027 598.917L648.216 596.865ZM619.776 563.096C615.376 557.319 611.036 551.347 606.783 545.209L604.317 546.917C608.595 553.092 612.962 559.101 617.389 564.914L619.776 563.096ZM594.602 526.77C590.699 520.57 586.904 514.243 583.245 507.813L580.638 509.297C584.32 515.766 588.137 522.132 592.063 528.368L594.602 526.77ZM572.756 488.363C569.407 481.788 566.216 475.138 563.21 468.438L560.473 469.666C563.5 476.413 566.712 483.108 570.083 489.725L572.756 488.363ZM554.71 448.055C552.044 441.13 549.598 434.18 547.399 427.232L544.539 428.137C546.758 435.146 549.224 442.154 551.91 449.133L554.71 448.055ZM541.465 405.986C539.718 398.735 538.272 391.517 537.16 384.364L534.195 384.825C535.321 392.065 536.783 399.364 538.549 406.689L541.465 405.986ZM534.814 362.483C534.606 358.793 534.5 355.131 534.5 351.5H531.5C531.5 355.189 531.608 358.908 531.819 362.651L534.814 362.483ZM534.5 351.5C534.5 347.791 534.559 344.096 534.677 340.415L531.678 340.319C531.56 344.032 531.5 347.759 531.5 351.5H534.5ZM536.09 318.353C536.803 310.966 537.751 303.649 538.927 296.409L535.966 295.928C534.78 303.232 533.823 310.613 533.104 318.065L536.09 318.353ZM543.185 274.697C544.847 267.481 546.737 260.353 548.849 253.321L545.976 252.459C543.846 259.553 541.938 266.744 540.262 274.024L543.185 274.697ZM555.901 232.356C558.488 225.424 561.295 218.601 564.312 211.893L561.576 210.663C558.532 217.43 555.701 224.314 553.091 231.307L555.901 232.356ZM574.039 192.031C577.505 185.504 581.176 179.104 585.044 172.841L582.492 171.265C578.589 177.583 574.886 184.039 571.39 190.624L574.039 192.031ZM597.276 154.408C601.556 148.394 606.027 142.525 610.679 136.813L608.353 134.918C603.66 140.681 599.15 146.601 594.832 152.669L597.276 154.408ZM625.199 120.123C630.219 114.717 635.413 109.477 640.772 104.412L638.711 102.232C633.305 107.342 628.065 112.628 623.001 118.081L625.199 120.123ZM657.334 89.7473C663.009 85.0437 668.839 80.5233 674.815 76.195L673.056 73.7652C667.026 78.132 661.144 82.6924 655.42 87.4376L657.334 89.7473ZM693.146 63.8139C699.381 59.8943 705.752 56.1741 712.251 52.6623L710.825 50.0229C704.268 53.5662 697.84 57.3196 691.55 61.2741L693.146 63.8139ZM732.044 42.7964C738.732 39.7341 745.537 36.8853 752.451 34.2586L751.385 31.4542C744.41 34.1045 737.543 36.9789 730.795 40.0687L732.044 42.7964ZM773.378 27.0934C780.4 24.9471 787.519 23.0251 794.727 21.3358L794.042 18.415C786.77 20.1195 779.587 22.0587 772.501 24.2244L773.378 27.0934ZM816.421 17.0052C823.658 15.8084 830.973 14.8435 838.358 14.1184L838.065 11.1328C830.614 11.8643 823.234 12.8378 815.932 14.0454L816.421 17.0052ZM860.417 12.6799C864.096 12.5603 867.791 12.5 871.5 12.5V9.5C867.759 9.5 864.031 9.56079 860.319 9.68145L860.417 12.6799ZM871.5 12.5C875.209 12.5 878.904 12.5603 882.584 12.6799L882.681 9.68145C878.969 9.56079 875.241 9.5 871.5 9.5V12.5ZM904.642 14.1184C912.027 14.8435 919.342 15.8084 926.579 17.0052L927.068 14.0454C919.766 12.8379 912.386 11.8644 904.935 11.1328L904.642 14.1184ZM948.273 21.3358C955.481 23.0251 962.6 24.9471 969.622 27.0934L970.499 24.2244C963.414 22.0588 956.231 20.1195 948.958 18.415L948.273 21.3358ZM990.549 34.2586C997.463 36.8853 1004.27 39.7341 1010.96 42.7964L1012.21 40.0688C1005.46 36.9789 998.59 34.1045 991.615 31.4542L990.549 34.2586ZM1030.75 52.6623C1037.25 56.1742 1043.62 59.8943 1049.85 63.8139L1051.45 61.2741C1045.16 57.3196 1038.73 53.5663 1032.17 50.023L1030.75 52.6623ZM1068.18 76.195C1074.16 80.5233 1079.99 85.0438 1085.67 89.7473L1087.58 87.4376C1081.86 82.6925 1075.97 78.132 1069.94 73.7653L1068.18 76.195ZM1102.23 104.412C1107.59 109.477 1112.78 114.717 1117.8 120.123L1120 118.081C1114.93 112.628 1109.69 107.342 1104.29 102.232L1102.23 104.412ZM1132.32 136.813C1136.97 142.525 1141.44 148.394 1145.72 154.408L1148.17 152.669C1143.85 146.601 1139.34 140.681 1134.65 134.918L1132.32 136.813ZM1157.96 172.841C1161.82 179.105 1165.5 185.504 1168.96 192.031L1171.61 190.624C1168.11 184.039 1164.41 177.583 1160.51 171.265L1157.96 172.841ZM1178.69 211.893C1181.71 218.601 1184.51 225.425 1187.1 232.356L1189.91 231.307C1187.3 224.314 1184.47 217.43 1181.42 210.663L1178.69 211.893ZM1194.15 253.322C1196.26 260.353 1198.15 267.481 1199.81 274.697L1202.74 274.024C1201.06 266.744 1199.15 259.553 1197.02 252.459L1194.15 253.322ZM1204.07 296.409C1205.25 303.649 1206.2 310.966 1206.91 318.353L1209.9 318.065C1209.18 310.614 1208.22 303.232 1207.03 295.928L1204.07 296.409ZM1208.32 340.415C1208.44 344.096 1208.5 347.791 1208.5 351.5H1211.5C1211.5 347.759 1211.44 344.032 1211.32 340.32L1208.32 340.415Z" fill="#39404D"/>
</g>
<g filter="url(#filter1_d_1083_1202)">
<circle cx="155.5" cy="1305.5" r="17.5" fill="#666666"/>
</g>
<g filter="url(#filter2_d_1083_1202)">
<circle cx="564.5" cy="1337.5" r="17.5" fill="#666666"/>
</g>
<g filter="url(#filter3_d_1083_1202)">
<circle cx="731.5" cy="671.5" r="17.5" fill="#666666"/>
</g>
<g filter="url(#filter4_d_1083_1202)">
<ellipse cx="911.5" cy="809.103" rx="17.5" ry="18.1649" fill="#666666"/>
</g>
<g filter="url(#filter5_d_1083_1202)">
<circle cx="662.5" cy="81.5" r="17.5" fill="#666666"/>
</g>
<g filter="url(#filter6_d_1083_1202)">
<circle cx="930.5" cy="17.5" r="17.5" fill="#666666"/>
</g>
<g filter="url(#filter7_d_1083_1202)">
<circle cx="582.5" cy="511.5" r="17.5" fill="#666666"/>
</g>
<defs>
<filter id="filter0_d_1083_1202" x="0.850342" y="9.5" width="1214.65" height="1473.57" filterUnits="userSpaceOnUse" color-interpolation-filters="sRGB">
<feFlood flood-opacity="0" result="BackgroundImageFix"/>
<feColorMatrix in="SourceAlpha" type="matrix" values="0 0 0 0 0 0 0 0 0 0 0 0 0 0 0 0 0 0 127 0" result="hardAlpha"/>
<feOffset dy="4"/>
<feGaussianBlur stdDeviation="2"/>
<feComposite in2="hardAlpha" operator="out"/>
<feColorMatrix type="matrix" values="0 0 0 0 0 0 0 0 0 0 0 0 0 0 0 0 0 0 0.25 0"/>
<feBlend mode="normal" in2="BackgroundImageFix" result="effect1_dropShadow_1083_1202"/>
<feBlend mode="normal" in="SourceGraphic" in2="effect1_dropShadow_1083_1202" result="shape"/>
</filter>
<filter id="filter1_d_1083_1202" x="134" y="1288" width="43" height="43" filterUnits="userSpaceOnUse" color-interpolation-filters="sRGB">
<feFlood flood-opacity="0" result="BackgroundImageFix"/>
<feColorMatrix in="SourceAlpha" type="matrix" values="0 0 0 0 0 0 0 0 0 0 0 0 0 0 0 0 0 0 127 0" result="hardAlpha"/>
<feOffset dy="4"/>
<feGaussianBlur stdDeviation="2"/>
<feComposite in2="hardAlpha" operator="out"/>
<feColorMatrix type="matrix" values="0 0 0 0 0 0 0 0 0 0 0 0 0 0 0 0 0 0 0.25 0"/>
<feBlend mode="normal" in2="BackgroundImageFix" result="effect1_dropShadow_1083_1202"/>
<feBlend mode="normal" in="SourceGraphic" in2="effect1_dropShadow_1083_1202" result="shape"/>
</filter>
<filter id="filter2_d_1083_1202" x="543" y="1320" width="43" height="43" filterUnits="userSpaceOnUse" color-interpolation-filters="sRGB">
<feFlood flood-opacity="0" result="BackgroundImageFix"/>
<feColorMatrix in="SourceAlpha" type="matrix" values="0 0 0 0 0 0 0 0 0 0 0 0 0 0 0 0 0 0 127 0" result="hardAlpha"/>
<feOffset dy="4"/>
<feGaussianBlur stdDeviation="2"/>
<feComposite in2="hardAlpha" operator="out"/>
<feColorMatrix type="matrix" values="0 0 0 0 0 0 0 0 0 0 0 0 0 0 0 0 0 0 0.25 0"/>
<feBlend mode="normal" in2="BackgroundImageFix" result="effect1_dropShadow_1083_1202"/>
<feBlend mode="normal" in="SourceGraphic" in2="effect1_dropShadow_1083_1202" result="shape"/>
</filter>
<filter id="filter3_d_1083_1202" x="710" y="654" width="43" height="43" filterUnits="userSpaceOnUse" color-interpolation-filters="sRGB">
<feFlood flood-opacity="0" result="BackgroundImageFix"/>
<feColorMatrix in="SourceAlpha" type="matrix" values="0 0 0 0 0 0 0 0 0 0 0 0 0 0 0 0 0 0 127 0" result="hardAlpha"/>
<feOffset dy="4"/>
<feGaussianBlur stdDeviation="2"/>
<feComposite in2="hardAlpha" operator="out"/>
<feColorMatrix type="matrix" values="0 0 0 0 0 0 0 0 0 0 0 0 0 0 0 0 0 0 0.25 0"/>
<feBlend mode="normal" in2="BackgroundImageFix" result="effect1_dropShadow_1083_1202"/>
<feBlend mode="normal" in="SourceGraphic" in2="effect1_dropShadow_1083_1202" result="shape"/>
</filter>
<filter id="filter4_d_1083_1202" x="890" y="790.938" width="43" height="44.3298" filterUnits="userSpaceOnUse" color-interpolation-filters="sRGB">
<feFlood flood-opacity="0" result="BackgroundImageFix"/>
<feColorMatrix in="SourceAlpha" type="matrix" values="0 0 0 0 0 0 0 0 0 0 0 0 0 0 0 0 0 0 127 0" result="hardAlpha"/>
<feOffset dy="4"/>
<feGaussianBlur stdDeviation="2"/>
<feComposite in2="hardAlpha" operator="out"/>
<feColorMatrix type="matrix" values="0 0 0 0 0 0 0 0 0 0 0 0 0 0 0 0 0 0 0.25 0"/>
<feBlend mode="normal" in2="BackgroundImageFix" result="effect1_dropShadow_1083_1202"/>
<feBlend mode="normal" in="SourceGraphic" in2="effect1_dropShadow_1083_1202" result="shape"/>
</filter>
<filter id="filter5_d_1083_1202" x="641" y="64" width="43" height="43" filterUnits="userSpaceOnUse" color-interpolation-filters="sRGB">
<feFlood flood-opacity="0" result="BackgroundImageFix"/>
<feColorMatrix in="SourceAlpha" type="matrix" values="0 0 0 0 0 0 0 0 0 0 0 0 0 0 0 0 0 0 127 0" result="hardAlpha"/>
<feOffset dy="4"/>
<feGaussianBlur stdDeviation="2"/>
<feComposite in2="hardAlpha" operator="out"/>
<feColorMatrix type="matrix" values="0 0 0 0 0 0 0 0 0 0 0 0 0 0 0 0 0 0 0.25 0"/>
<feBlend mode="normal" in2="BackgroundImageFix" result="effect1_dropShadow_1083_1202"/>
<feBlend mode="normal" in="SourceGraphic" in2="effect1_dropShadow_1083_1202" result="shape"/>
</filter>
<filter id="filter6_d_1083_1202" x="909" y="0" width="43" height="43" filterUnits="userSpaceOnUse" color-interpolation-filters="sRGB">
<feFlood flood-opacity="0" result="BackgroundImageFix"/>
<feColorMatrix in="SourceAlpha" type="matrix" values="0 0 0 0 0 0 0 0 0 0 0 0 0 0 0 0 0 0 127 0" result="hardAlpha"/>
<feOffset dy="4"/>
<feGaussianBlur stdDeviation="2"/>
<feComposite in2="hardAlpha" operator="out"/>
<feColorMatrix type="matrix" values="0 0 0 0 0 0 0 0 0 0 0 0 0 0 0 0 0 0 0.25 0"/>
<feBlend mode="normal" in2="BackgroundImageFix" result="effect1_dropShadow_1083_1202"/>
<feBlend mode="normal" in="SourceGraphic" in2="effect1_dropShadow_1083_1202" result="shape"/>
</filter>
<filter id="filter7_d_1083_1202" x="561" y="494" width="43" height="43" filterUnits="userSpaceOnUse" color-interpolation-filters="sRGB">
<feFlood flood-opacity="0" result="BackgroundImageFix"/>
<feColorMatrix in="SourceAlpha" type="matrix" values="0 0 0 0 0 0 0 0 0 0 0 0 0 0 0 0 0 0 127 0" result="hardAlpha"/>
<feOffset dy="4"/>
<feGaussianBlur stdDeviation="2"/>
<feComposite in2="hardAlpha" operator="out"/>
<feColorMatrix type="matrix" values="0 0 0 0 0 0 0 0 0 0 0 0 0 0 0 0 0 0 0.25 0"/>
<feBlend mode="normal" in2="BackgroundImageFix" result="effect1_dropShadow_1083_1202"/>
<feBlend mode="normal" in="SourceGraphic" in2="effect1_dropShadow_1083_1202" result="shape"/>
</filter>
</defs>
</svg>
