<svg width="562" height="527" viewBox="0 0 562 527" fill="none" xmlns="http://www.w3.org/2000/svg">
<path d="M476.319 366.736C470.228 364.199 463.139 362.714 455.717 362.714C447.384 362.714 439.484 364.574 432.41 367.904L432.743 367.76L349.149 405.186C349.192 404.508 349.525 403.917 349.525 403.239C349.322 383.474 333.191 367.529 313.327 367.529C312.329 367.529 311.36 367.572 310.376 367.645L310.506 367.63H255.775L186.909 347.533C186.012 347.259 184.971 347.101 183.886 347.101H183.857H152.476V336.173C152.476 330.204 147.615 325.36 141.626 325.36H85.4481C79.4585 325.36 74.5974 330.204 74.5974 336.173V512.172C74.5974 518.141 79.4585 522.985 85.4481 522.985H141.626C147.615 522.985 152.476 518.141 152.476 512.172V497.698C178.779 501.792 202.332 508.395 224.641 517.391L222.471 516.613C239.239 522.61 258.596 526.07 278.764 526.07C302.013 526.07 324.178 521.471 344.389 513.124L343.246 513.542C361.229 505.569 376.493 497.164 390.946 487.606L389.759 488.341C394.649 485.328 399.511 482.315 404.43 479.417C428.171 465.419 447.123 453.193 464.166 440.91C472.557 434.956 479.878 429.06 486.837 422.789L486.62 422.976C491.973 418.637 496.255 413.187 499.134 406.973L499.25 406.699C499.713 405.546 499.974 404.22 499.974 402.821C499.974 402.014 499.887 401.221 499.713 400.457L499.728 400.529C497.601 385.882 488.79 373.628 476.536 366.823L476.305 366.707L476.319 366.736ZM130.79 501.388H96.3133V347.014H130.79V501.388ZM471.328 407.665C465.367 413 458.871 418.19 452.115 422.99L451.435 423.452C434.985 435.302 416.539 447.196 393.362 460.878C388.327 463.833 383.365 466.904 378.359 469.974C365.989 478.25 351.768 486.136 336.895 492.839L335.014 493.589C318.347 500.408 298.99 504.373 278.721 504.373C261.316 504.373 244.606 501.461 229.024 496.083L230.095 496.4C207.598 487.001 181.426 479.821 154.14 476.073L152.476 475.885V368.74H182.294L251.16 388.837C252.057 389.111 253.099 389.27 254.184 389.27H254.213H310.491C323.266 389.27 327.809 396.795 327.809 403.254C327.809 409.713 323.266 417.238 310.491 417.238H211.982C205.992 417.238 201.131 422.082 201.131 428.051C201.131 434.019 205.992 438.863 211.982 438.863H324.554C326.16 438.863 327.679 438.517 329.053 437.897L328.981 437.926L441.756 387.439C445.908 385.536 450.769 384.411 455.891 384.411C459.739 384.411 463.428 385.031 466.886 386.199L466.64 386.127C472.167 389.428 476.16 394.835 477.491 401.192L477.52 401.336C475.567 403.629 473.527 405.69 471.342 407.593L471.27 407.651L471.328 407.665Z" fill="#39404C"/>
<path d="M317.653 18.5957C318.535 17.7144 318.535 16.2856 317.653 15.4043L303.292 1.04318C302.411 0.161911 300.982 0.161913 300.101 1.04319C299.219 1.92446 299.219 3.35328 300.101 4.23455L312.866 17L300.101 29.7655C299.219 30.6468 299.219 32.0756 300.101 32.9569C300.982 33.8381 302.411 33.8381 303.292 32.9568L317.653 18.5957ZM316.058 14.7434C300.987 14.7434 284.338 25.4807 271.608 40.3557C258.823 55.2953 249.487 74.9776 249.487 93.7254H254C254 76.3673 262.717 57.6869 275.037 43.2902C287.412 28.8291 302.921 19.2567 316.058 19.2566L316.058 14.7434Z" fill="#39404C"/>
<path d="M396.829 212.86C395.948 213.741 395.948 215.17 396.829 216.051L411.191 230.413C412.072 231.294 413.501 231.294 414.382 230.413C415.263 229.531 415.263 228.103 414.382 227.221L401.616 214.456L414.382 201.69C415.263 200.809 415.263 199.38 414.382 198.499C413.501 197.618 412.072 197.618 411.191 198.499L396.829 212.86ZM398.425 216.712C413.496 216.712 430.145 205.975 442.875 191.1C455.66 176.161 464.996 156.478 464.996 137.73H460.483C460.483 155.089 451.766 173.769 439.446 188.166C427.07 202.627 411.562 212.199 398.425 212.199L398.425 216.712Z" fill="#39404C"/>
<path d="M178.517 165.763C177.48 166.332 176.159 166.033 175.464 165.049C174.736 164.024 174.955 162.616 175.934 161.843C171.229 155.668 166.023 153.612 160.524 151.44C156.243 149.749 151.798 147.991 147.163 144.416C142.603 140.897 138.939 136.716 136.407 131.72C133.884 126.719 132.502 120.943 132.514 114.227C132.513 114.18 132.518 114.143 132.517 114.097C132.973 106.137 135.914 99.463 140.35 94.283C144.067 89.9281 148.847 86.6362 154.101 84.5118C159.337 82.397 165.042 81.4405 170.625 81.7611C177.725 82.1742 184.662 84.644 190.236 89.4034C193.248 91.982 196.031 95.1572 198.202 99.0914C200.363 103.007 201.893 107.645 202.399 113.126C203.081 120.464 201.781 125.907 200.57 131.001C199.455 135.694 198.415 140.058 199.361 145.44C200.281 145.211 201.274 145.551 201.86 146.369C202.607 147.432 202.352 148.905 201.289 149.651L200.631 150.118C201.021 151.19 201.494 152.311 202.052 153.482L202.264 153.326C203.326 152.58 204.801 152.836 205.547 153.898C206.294 154.96 206.039 156.434 204.976 157.18L204.31 157.652C204.39 157.785 204.471 157.919 204.551 158.052C205.035 158.83 205.448 159.609 205.787 160.379L205.898 160.299C206.979 159.567 208.445 159.85 209.182 160.917C209.915 161.998 209.632 163.462 208.565 164.199L207.115 165.191C207.489 168.628 206.643 171.829 205.005 174.378C203.881 176.135 202.377 177.587 200.645 178.62C198.886 179.666 196.875 180.271 194.778 180.325C192.374 180.373 189.855 179.699 187.454 178.101C186.698 178.106 185.951 177.744 185.487 177.073C185.303 176.806 185.188 176.515 185.128 176.219C184.217 175.335 183.345 174.302 182.504 173.102L182.444 173.145C181.382 173.891 179.907 173.635 179.161 172.573C178.414 171.511 178.669 170.037 179.732 169.291L180.191 168.961C179.648 167.817 179.087 166.753 178.517 165.763ZM119.281 145.879C118.217 146.463 116.889 146.085 116.296 145.025C115.702 143.966 116.089 142.635 117.149 142.042L125.029 137.631C126.088 137.038 127.421 137.425 128.014 138.484C128.608 139.544 128.221 140.875 127.161 141.468L119.281 145.879ZM215.234 86.3808C216.247 85.7189 217.61 86.0082 218.273 87.0204C218.935 88.0326 218.646 89.3952 217.634 90.057L210.081 95.0113C209.069 95.6731 207.705 95.3839 207.043 94.3717C206.38 93.3595 206.669 91.9969 207.682 91.335L215.234 86.3808ZM183.817 61.1807C183.955 59.9777 185.039 59.1155 186.243 59.2536C187.446 59.3918 188.309 60.4757 188.171 61.6787L187.153 70.6523C187.015 71.8553 185.931 72.7175 184.727 72.5793C183.524 72.4411 182.66 71.3572 182.798 70.1542L183.817 61.1807ZM143.389 67.1724C142.86 66.0797 143.316 64.7707 144.4 64.2471C145.493 63.7187 146.803 64.1756 147.327 65.2591L151.264 73.3829C151.793 74.4756 151.336 75.7845 150.252 76.3081C149.159 76.8365 147.849 76.3796 147.325 75.2961L143.389 67.1724ZM109.455 100.379C108.281 100.051 107.607 98.8345 107.931 97.6756C108.259 96.5027 109.476 95.8291 110.636 96.1533L119.336 98.6013C120.509 98.93 121.184 100.146 120.86 101.305C120.531 102.478 119.314 103.152 118.155 102.827L109.455 100.379ZM179.544 159.271L195.343 148.059C193.621 141.128 194.894 135.769 196.283 129.978C197.419 125.214 198.626 120.134 198.013 113.518C197.567 108.672 196.225 104.603 194.344 101.185C192.468 97.7755 190.028 94.9949 187.359 92.7182C182.559 88.6217 176.546 86.493 170.36 86.1335C165.414 85.8468 160.371 86.6838 155.749 88.5638C151.141 90.425 146.95 93.3201 143.681 97.1406C139.853 101.622 137.309 107.391 136.91 114.307C136.911 120.281 138.118 125.377 140.322 129.737C142.54 134.126 145.784 137.81 149.838 140.937C153.972 144.128 158.132 145.765 162.125 147.348C168.347 149.813 174.228 152.138 179.544 159.271ZM196.887 152.748L182.128 163.213C182.697 164.204 183.263 165.254 183.825 166.388L198.396 156.055C197.829 154.912 197.318 153.81 196.887 152.748ZM186.087 170.567C186.635 171.358 187.201 172.047 187.784 172.656L202.075 162.911C201.767 162.066 201.352 161.218 200.817 160.362L200.808 160.343L200.717 160.191L186.087 170.567ZM191.997 175.503C192.906 175.817 193.808 175.958 194.671 175.934C195.998 175.904 197.278 175.512 198.398 174.853C199.549 174.167 200.544 173.199 201.299 172.016C202.009 170.903 202.498 169.613 202.694 168.205L191.997 175.503Z" fill="#B39B6B"/>
<path d="M451.307 303.006C450.228 302.52 449.674 301.284 450.044 300.138C450.427 298.941 451.685 298.27 452.891 298.588C455.006 291.119 453.525 285.727 451.96 280.029C450.741 275.592 449.478 270.985 449.554 265.135C449.632 259.378 450.776 253.941 453.253 248.917C455.739 243.897 459.531 239.324 464.912 235.299C464.949 235.271 464.981 235.252 465.018 235.224C471.661 230.807 478.767 229.148 485.576 229.58C491.294 229.934 496.799 231.776 501.654 234.697C506.491 237.61 510.683 241.593 513.78 246.245C517.714 252.166 519.904 259.191 519.444 266.503C519.19 270.458 518.321 274.588 516.477 278.686C514.642 282.764 511.85 286.772 507.768 290.468C502.306 295.421 497.17 297.652 492.367 299.744C487.942 301.672 483.826 303.463 480.087 307.451C480.823 308.049 481.148 309.046 480.845 310.006C480.443 311.24 479.111 311.921 477.876 311.521L477.107 311.276C476.484 312.231 475.871 313.282 475.269 314.432L475.521 314.507C476.756 314.908 477.437 316.239 477.036 317.474C476.634 318.708 475.302 319.389 474.067 318.989L473.289 318.739C473.23 318.884 473.172 319.028 473.113 319.173C472.781 320.026 472.406 320.824 471.994 321.558L472.124 321.598C473.36 322.022 474.013 323.363 473.602 324.593C473.178 325.828 471.836 326.482 470.605 326.071L468.941 325.509C466.415 327.872 463.346 329.119 460.323 329.341C458.241 329.499 456.176 329.17 454.31 328.406C452.416 327.629 450.724 326.386 449.421 324.743C447.939 322.852 446.965 320.435 446.802 317.557C446.344 316.955 446.185 316.141 446.444 315.368C446.546 315.06 446.71 314.793 446.911 314.568C447.071 313.309 447.374 311.992 447.829 310.599L447.759 310.577C446.524 310.176 445.843 308.845 446.244 307.61C446.645 306.376 447.978 305.695 449.213 306.095L449.753 306.264C450.342 305.143 450.856 304.056 451.307 303.006ZM431.638 243.74C430.531 243.24 430.036 241.952 430.527 240.842C431.019 239.731 432.316 239.241 433.427 239.731L441.689 243.377C442.8 243.867 443.291 245.164 442.799 246.275C442.308 247.385 441.011 247.876 439.9 247.385L431.638 243.74ZM536.877 284.658C538.015 285.07 538.602 286.332 538.19 287.47C537.778 288.607 536.515 289.195 535.377 288.783L526.876 285.725C525.739 285.314 525.151 284.051 525.563 282.914C525.975 281.776 527.239 281.189 528.377 281.6L536.877 284.658ZM538.171 244.423C539.216 243.81 540.557 244.159 541.17 245.203C541.782 246.248 541.433 247.588 540.388 248.201L532.596 252.777C531.55 253.39 530.209 253.041 529.597 251.997C528.984 250.952 529.333 249.611 530.379 248.999L538.171 244.423ZM509.094 215.724C509.65 214.645 510.972 214.224 512.042 214.775C513.121 215.331 513.543 216.652 512.991 217.721L508.855 225.746C508.298 226.825 506.976 227.246 505.906 226.694C504.827 226.139 504.406 224.818 504.958 223.748L509.094 215.724ZM462.142 208.56C461.7 207.425 462.268 206.156 463.39 205.719C464.525 205.277 465.795 205.844 466.232 206.965L469.499 215.386C469.941 216.521 469.373 217.79 468.251 218.227C467.115 218.669 465.845 218.102 465.408 216.981L462.142 208.56ZM457.118 299.927L475.578 305.814C480.09 300.276 485.142 298.074 490.61 295.704C495.105 293.751 499.894 291.664 504.82 287.201C508.429 283.933 510.879 280.417 512.485 276.861C514.085 273.314 514.845 269.696 515.064 266.195C515.459 259.901 513.55 253.818 510.122 248.66C507.381 244.536 503.682 241.01 499.402 238.447C495.145 235.884 490.311 234.275 485.29 233.958C479.406 233.592 473.262 235.024 467.488 238.859C462.709 242.449 459.356 246.473 457.191 250.853C455.012 255.261 454.012 260.066 453.945 265.183C453.875 270.402 455.064 274.709 456.195 278.849C457.96 285.3 459.632 291.396 457.118 299.927ZM472.754 309.864L455.515 304.359C455.065 305.409 454.564 306.492 453.994 307.622L471.014 313.056C471.588 311.916 472.164 310.846 472.754 309.864ZM452.009 311.939C451.706 312.852 451.494 313.718 451.357 314.55L467.738 320.113C468.229 319.359 468.659 318.519 469.022 317.577L469.031 317.558L469.099 317.395L452.009 311.939ZM451.609 319.625C451.904 320.54 452.333 321.346 452.871 322.02C453.692 323.062 454.774 323.85 455.974 324.348C457.215 324.856 458.586 325.069 459.987 324.962C461.303 324.861 462.63 324.477 463.874 323.787L451.609 319.625Z" fill="#B39B6B"/>
<rect x="-63.0574" y="347.597" width="135.398" height="156.836" fill="#39404C"/>
</svg>
