<svg width="562" height="527" viewBox="0 0 562 527" fill="none" xmlns="http://www.w3.org/2000/svg">
<path d="M376.218 249.661L359.309 246.94C357.842 241.652 355.737 236.58 353.027 231.796L363.061 217.918C364.454 215.993 364.241 213.342 362.56 211.663L347.482 196.594C345.8 194.912 343.148 194.702 341.223 196.093L327.335 206.12C322.549 203.412 317.473 201.31 312.182 199.843L309.458 182.944C309.08 180.599 307.055 178.875 304.678 178.875H283.352C280.975 178.875 278.95 180.599 278.572 182.944L275.848 199.842C270.558 201.309 265.483 203.411 260.695 206.12L246.808 196.092C244.882 194.702 242.23 194.913 240.549 196.593L225.469 211.662C223.789 213.342 223.576 215.993 224.968 217.918L235.002 231.796C232.292 236.581 230.188 241.653 228.72 246.94L211.811 249.661C209.464 250.039 207.739 252.062 207.739 254.438V275.751C207.739 278.126 209.464 280.15 211.81 280.528L228.72 283.249C230.189 288.537 232.292 293.608 235.002 298.393L224.968 312.271C223.576 314.196 223.789 316.846 225.469 318.526L240.549 333.596C242.229 335.275 244.881 335.486 246.808 334.096L260.695 324.068C265.483 326.776 270.558 328.878 275.848 330.346L278.572 347.245C278.949 349.59 280.975 351.313 283.352 351.313H304.678C307.055 351.313 309.08 349.59 309.458 347.245L312.182 330.345C317.473 328.878 322.548 326.776 327.334 324.068L341.223 334.096C343.149 335.487 345.801 335.276 347.482 333.596L362.561 318.527C364.242 316.847 364.454 314.197 363.062 312.272L353.027 298.393C355.737 293.61 357.841 288.538 359.309 283.249L376.219 280.528C378.565 280.15 380.291 278.126 380.291 275.751V254.438C380.291 252.062 378.565 250.039 376.218 249.661ZM370.608 271.63L354.622 274.203C352.67 274.517 351.105 275.987 350.67 277.915C349.216 284.358 346.683 290.462 343.143 296.058C342.086 297.729 342.153 299.875 343.311 301.478L352.798 314.598L343.551 323.839L330.421 314.359C328.817 313.201 326.67 313.134 324.998 314.191C319.398 317.729 313.29 320.259 306.844 321.711C304.915 322.146 303.444 323.71 303.129 325.661L300.555 341.637H287.475L284.901 325.662C284.586 323.711 283.115 322.147 281.186 321.712C274.741 320.26 268.632 317.729 263.03 314.191C261.358 313.134 259.211 313.201 257.608 314.359L244.479 323.839L235.232 314.598L244.718 301.478C245.876 299.875 245.943 297.73 244.886 296.059C241.345 290.46 238.813 284.356 237.36 277.915C236.925 275.987 235.36 274.517 233.407 274.203L217.422 271.63V258.559L233.407 255.987C235.36 255.673 236.925 254.202 237.36 252.274C238.813 245.834 241.345 239.73 244.886 234.13C245.943 232.459 245.876 230.314 244.718 228.711L235.232 215.591L244.48 206.35L257.609 215.83C259.212 216.988 261.359 217.055 263.031 215.998C268.634 212.458 274.742 209.928 281.186 208.477C283.115 208.042 284.586 206.477 284.901 204.526L287.476 188.552H300.555L303.13 204.526C303.444 206.478 304.915 208.042 306.844 208.477C313.291 209.929 319.398 212.459 324.999 215.998C326.671 217.054 328.818 216.988 330.421 215.83L343.551 206.35L352.798 215.591L343.312 228.712C342.153 230.314 342.086 232.46 343.143 234.131C346.685 239.728 349.217 245.832 350.67 252.274C351.105 254.202 352.67 255.672 354.623 255.987L370.608 258.559V271.63H370.608Z" fill="#39404C"/>
<path d="M294.014 217.587C267.802 217.587 246.477 238.898 246.477 265.094C246.477 291.289 267.802 312.6 294.014 312.6C320.228 312.6 341.553 291.289 341.553 265.094C341.553 238.898 320.228 217.587 294.014 217.587ZM294.014 302.924C273.141 302.924 256.159 285.953 256.159 265.094C256.159 244.234 273.141 227.263 294.014 227.263C314.888 227.263 331.871 244.234 331.871 265.094C331.871 285.953 314.888 302.924 294.014 302.924Z" fill="#39404C"/>
<path d="M428.874 127.692L417.3 119.926C417.965 115.617 418.136 111.264 417.811 106.92L429.951 100.08C432.021 98.9124 432.937 96.417 432.114 94.189L425.892 77.3535C425.068 75.1246 422.749 73.826 420.417 74.2816L406.742 76.9673C404.164 73.456 401.202 70.2593 397.895 67.4162L401.638 53.9961C402.276 51.708 401.158 49.2962 399 48.3026L382.691 40.7948C380.531 39.7985 377.97 40.5194 376.645 42.4917L368.873 54.059C364.57 53.3988 360.208 53.2246 355.86 53.5486L349.014 41.4172C347.846 39.3478 345.35 38.4318 343.119 39.2552L326.273 45.4732C324.043 46.2961 322.741 48.6145 323.2 50.9453L325.888 64.6097C322.374 67.1861 319.174 70.146 316.329 73.4519L302.902 69.7104C300.612 69.0752 298.198 70.1904 297.204 72.3469L289.691 88.6457C288.696 90.8029 289.416 93.3625 291.389 94.6868L302.962 102.454C302.298 106.764 302.127 111.117 302.452 115.459L290.313 122.3C288.243 123.467 287.327 125.963 288.15 128.19L294.372 145.026C295.196 147.255 297.518 148.559 299.848 148.098L313.521 145.412C316.097 148.922 319.058 152.118 322.369 154.964L318.625 168.383C317.987 170.67 319.104 173.084 321.263 174.077L337.573 181.585C339.732 182.579 342.293 181.859 343.618 179.887L351.391 168.321C355.693 168.982 360.055 169.155 364.404 168.831L371.25 180.964C372.128 182.521 373.762 183.426 375.467 183.426C376.026 183.426 376.594 183.329 377.143 183.125L393.991 176.907C396.221 176.084 397.523 173.766 397.064 171.435L394.376 157.769C397.888 155.194 401.087 152.234 403.934 148.928L417.362 152.669C419.652 153.304 422.066 152.19 423.06 150.033L430.572 133.733C431.566 131.576 430.848 129.017 428.874 127.692ZM415.99 142.242L403.478 138.756C401.571 138.226 399.536 138.906 398.334 140.475C394.993 144.836 390.971 148.556 386.379 151.534C384.719 152.61 383.881 154.587 384.263 156.527L386.768 169.258L377.658 172.621L371.28 161.318C370.415 159.784 368.795 158.857 367.064 158.857C366.853 158.857 366.64 158.87 366.426 158.899C361.032 159.616 355.486 159.397 350.148 158.261C348.215 157.848 346.223 158.654 345.12 160.296L337.878 171.071L329.06 167.013L332.548 154.508C333.079 152.604 332.398 150.569 330.827 149.367C326.463 146.029 322.74 142.01 319.76 137.421C318.685 135.762 316.708 134.926 314.765 135.307L302.026 137.809L298.661 128.705L309.971 122.331C311.694 121.36 312.652 119.44 312.392 117.48C311.672 112.054 311.886 106.581 313.03 101.214C313.443 99.2802 312.636 97.291 310.995 96.1887L300.211 88.9522L304.274 80.139L316.785 83.6252C318.69 84.1537 320.728 83.4746 321.93 81.9047C325.266 77.547 329.289 73.8265 333.886 70.8457C335.545 69.7698 336.383 67.7934 336 65.8535L333.496 53.1233L342.606 49.7605L348.983 61.0624C349.955 62.7843 351.875 63.7434 353.838 63.4822C359.232 62.7668 364.776 62.9841 370.116 64.1206C372.049 64.5317 374.04 63.7265 375.144 62.0856L382.385 51.3081L391.204 55.3674L387.716 67.8727C387.185 69.7775 387.866 71.8134 389.437 73.0142C393.796 76.3486 397.519 80.3675 400.501 84.9599C401.579 86.6185 403.556 87.4527 405.496 87.0741L418.237 84.5719L421.602 93.6753L410.292 100.049C408.569 101.02 407.61 102.94 407.871 104.9C408.592 110.328 408.377 115.801 407.232 121.166C406.819 123.1 407.625 125.09 409.268 126.192L420.052 133.428L415.99 142.242Z" fill="#39404C"/>
<path d="M360.127 70.4106C355.308 70.4106 350.554 71.2631 345.997 72.9453C324.895 80.7332 314.068 104.226 321.861 125.315C327.752 141.257 343.133 151.968 360.135 151.97C360.136 151.97 360.136 151.97 360.137 151.97C364.955 151.97 369.708 151.117 374.264 149.435C395.366 141.647 406.194 118.154 398.401 97.0664C392.509 81.1227 377.128 70.4106 360.127 70.4106ZM370.91 140.358C367.431 141.642 363.806 142.293 360.137 142.293C360.137 142.293 360.136 142.293 360.135 142.293C347.169 142.293 335.438 134.122 330.944 121.963C325 105.879 333.258 87.9617 349.352 82.0224C352.831 80.7379 356.456 80.0872 360.127 80.0872C373.093 80.0872 384.824 88.2579 389.318 100.418C395.262 116.501 387.003 134.418 370.91 140.358Z" fill="#39404C"/>
<path d="M476.319 366.736C470.228 364.199 463.139 362.714 455.717 362.714C447.384 362.714 439.484 364.574 432.41 367.904L432.743 367.76L349.149 405.186C349.192 404.508 349.525 403.917 349.525 403.239C349.322 383.474 333.191 367.529 313.327 367.529C312.329 367.529 311.36 367.572 310.376 367.645L310.506 367.63H255.775L186.909 347.533C186.012 347.259 184.971 347.101 183.886 347.101H183.857H152.476V336.173C152.476 330.204 147.615 325.36 141.626 325.36H85.4481C79.4585 325.36 74.5974 330.204 74.5974 336.173V512.172C74.5974 518.141 79.4585 522.985 85.4481 522.985H141.626C147.615 522.985 152.476 518.141 152.476 512.172V497.698C178.779 501.792 202.332 508.395 224.641 517.391L222.471 516.613C239.239 522.61 258.596 526.07 278.764 526.07C302.013 526.07 324.178 521.471 344.389 513.124L343.246 513.542C361.229 505.569 376.493 497.164 390.946 487.606L389.759 488.341C394.649 485.328 399.511 482.315 404.43 479.417C428.171 465.419 447.123 453.193 464.166 440.91C472.557 434.956 479.878 429.06 486.837 422.789L486.62 422.976C491.973 418.637 496.255 413.187 499.134 406.973L499.25 406.699C499.713 405.546 499.974 404.22 499.974 402.821C499.974 402.014 499.887 401.221 499.713 400.457L499.728 400.529C497.601 385.882 488.79 373.628 476.536 366.823L476.305 366.707L476.319 366.736ZM130.79 501.388H96.3133V347.014H130.79V501.388ZM471.328 407.665C465.367 413 458.871 418.19 452.115 422.99L451.435 423.452C434.985 435.302 416.539 447.196 393.362 460.878C388.327 463.833 383.365 466.904 378.359 469.974C365.989 478.25 351.768 486.136 336.895 492.839L335.014 493.589C318.347 500.408 298.99 504.373 278.721 504.373C261.316 504.373 244.606 501.461 229.024 496.083L230.095 496.4C207.598 487.001 181.426 479.821 154.14 476.073L152.476 475.885V368.74H182.294L251.16 388.837C252.057 389.111 253.099 389.27 254.184 389.27H254.213H310.491C323.266 389.27 327.809 396.795 327.809 403.254C327.809 409.713 323.266 417.238 310.491 417.238H211.982C205.992 417.238 201.131 422.082 201.131 428.051C201.131 434.019 205.992 438.863 211.982 438.863H324.554C326.16 438.863 327.679 438.517 329.053 437.897L328.981 437.926L441.756 387.439C445.908 385.536 450.769 384.411 455.891 384.411C459.739 384.411 463.428 385.031 466.886 386.199L466.64 386.127C472.167 389.428 476.16 394.835 477.491 401.192L477.52 401.336C475.567 403.629 473.527 405.69 471.342 407.593L471.27 407.651L471.328 407.665Z" fill="#39404C"/>
<path d="M317.653 18.5957C318.535 17.7144 318.535 16.2856 317.653 15.4043L303.292 1.04318C302.411 0.161911 300.982 0.161913 300.101 1.04319C299.219 1.92446 299.219 3.35328 300.101 4.23455L312.866 17L300.101 29.7655C299.219 30.6468 299.219 32.0756 300.101 32.9569C300.982 33.8381 302.411 33.8381 303.292 32.9568L317.653 18.5957ZM316.058 14.7434C300.987 14.7434 284.338 25.4807 271.608 40.3557C258.823 55.2953 249.487 74.9776 249.487 93.7254H254C254 76.3673 262.717 57.6869 275.037 43.2902C287.412 28.8291 302.921 19.2567 316.058 19.2566L316.058 14.7434Z" fill="#39404C"/>
<path d="M396.829 212.86C395.948 213.741 395.948 215.17 396.829 216.051L411.191 230.413C412.072 231.294 413.501 231.294 414.382 230.413C415.263 229.531 415.263 228.103 414.382 227.221L401.616 214.456L414.382 201.69C415.263 200.809 415.263 199.38 414.382 198.499C413.501 197.618 412.072 197.618 411.191 198.499L396.829 212.86ZM398.425 216.712C413.496 216.712 430.145 205.975 442.875 191.1C455.66 176.161 464.996 156.478 464.996 137.73H460.483C460.483 155.089 451.766 173.769 439.446 188.166C427.07 202.627 411.562 212.199 398.425 212.199L398.425 216.712Z" fill="#39404C"/>
<path d="M178.517 165.763C177.48 166.332 176.159 166.033 175.464 165.049C174.736 164.024 174.955 162.616 175.934 161.843C171.229 155.668 166.023 153.612 160.524 151.44C156.243 149.749 151.798 147.991 147.163 144.416C142.603 140.897 138.939 136.716 136.407 131.72C133.884 126.719 132.502 120.943 132.514 114.227C132.513 114.18 132.518 114.143 132.517 114.097C132.973 106.137 135.914 99.463 140.35 94.283C144.067 89.9281 148.847 86.6362 154.101 84.5118C159.337 82.397 165.042 81.4405 170.625 81.7611C177.725 82.1742 184.662 84.644 190.236 89.4034C193.248 91.982 196.031 95.1572 198.202 99.0914C200.363 103.007 201.893 107.645 202.399 113.126C203.081 120.464 201.781 125.907 200.57 131.001C199.455 135.694 198.415 140.058 199.361 145.44C200.281 145.211 201.274 145.551 201.86 146.369C202.607 147.432 202.352 148.905 201.289 149.651L200.631 150.118C201.021 151.19 201.494 152.311 202.052 153.482L202.264 153.326C203.326 152.58 204.801 152.836 205.547 153.898C206.294 154.96 206.039 156.434 204.976 157.18L204.31 157.652C204.39 157.785 204.471 157.919 204.551 158.052C205.035 158.83 205.448 159.609 205.787 160.379L205.898 160.299C206.979 159.567 208.445 159.85 209.182 160.917C209.915 161.998 209.632 163.462 208.565 164.199L207.115 165.191C207.489 168.628 206.643 171.829 205.005 174.378C203.881 176.135 202.377 177.587 200.645 178.62C198.886 179.666 196.875 180.271 194.778 180.325C192.374 180.373 189.855 179.699 187.454 178.101C186.698 178.106 185.951 177.744 185.487 177.073C185.303 176.806 185.188 176.515 185.128 176.219C184.217 175.335 183.345 174.302 182.504 173.102L182.444 173.145C181.382 173.891 179.907 173.635 179.161 172.573C178.414 171.511 178.669 170.037 179.732 169.291L180.191 168.961C179.648 167.817 179.087 166.753 178.517 165.763ZM119.281 145.879C118.217 146.463 116.889 146.085 116.296 145.025C115.702 143.966 116.089 142.635 117.149 142.042L125.029 137.631C126.088 137.038 127.421 137.425 128.014 138.484C128.608 139.544 128.221 140.875 127.161 141.468L119.281 145.879ZM215.234 86.3808C216.247 85.7189 217.61 86.0082 218.273 87.0204C218.935 88.0326 218.646 89.3952 217.634 90.057L210.081 95.0113C209.069 95.6731 207.705 95.3839 207.043 94.3717C206.38 93.3595 206.669 91.9969 207.682 91.335L215.234 86.3808ZM183.817 61.1807C183.955 59.9777 185.039 59.1155 186.243 59.2536C187.446 59.3918 188.309 60.4757 188.171 61.6787L187.153 70.6523C187.015 71.8553 185.931 72.7175 184.727 72.5793C183.524 72.4411 182.66 71.3572 182.798 70.1542L183.817 61.1807ZM143.389 67.1724C142.86 66.0797 143.316 64.7707 144.4 64.2471C145.493 63.7187 146.803 64.1756 147.327 65.2591L151.264 73.3829C151.793 74.4756 151.336 75.7845 150.252 76.3081C149.159 76.8365 147.849 76.3796 147.325 75.2961L143.389 67.1724ZM109.455 100.379C108.281 100.051 107.607 98.8345 107.931 97.6756C108.259 96.5027 109.476 95.8291 110.636 96.1533L119.336 98.6013C120.509 98.93 121.184 100.146 120.86 101.305C120.531 102.478 119.314 103.152 118.155 102.827L109.455 100.379ZM179.544 159.271L195.343 148.059C193.621 141.128 194.894 135.769 196.283 129.978C197.419 125.214 198.626 120.134 198.013 113.518C197.567 108.672 196.225 104.603 194.344 101.185C192.468 97.7755 190.028 94.9949 187.359 92.7182C182.559 88.6217 176.546 86.493 170.36 86.1335C165.414 85.8468 160.371 86.6838 155.749 88.5638C151.141 90.425 146.95 93.3201 143.681 97.1406C139.853 101.622 137.309 107.391 136.91 114.307C136.911 120.281 138.118 125.377 140.322 129.737C142.54 134.126 145.784 137.81 149.838 140.937C153.972 144.128 158.132 145.765 162.125 147.348C168.347 149.813 174.228 152.138 179.544 159.271ZM196.887 152.748L182.128 163.213C182.697 164.204 183.263 165.254 183.825 166.388L198.396 156.055C197.829 154.912 197.318 153.81 196.887 152.748ZM186.087 170.567C186.635 171.358 187.201 172.047 187.784 172.656L202.075 162.911C201.767 162.066 201.352 161.218 200.817 160.362L200.808 160.343L200.717 160.191L186.087 170.567ZM191.997 175.503C192.906 175.817 193.808 175.958 194.671 175.934C195.998 175.904 197.278 175.512 198.398 174.853C199.549 174.167 200.544 173.199 201.299 172.016C202.009 170.903 202.498 169.613 202.694 168.205L191.997 175.503Z" fill="#B39B6B"/>
<path d="M451.307 303.006C450.228 302.52 449.674 301.284 450.044 300.138C450.427 298.941 451.685 298.27 452.891 298.588C455.006 291.119 453.525 285.727 451.96 280.029C450.741 275.592 449.478 270.985 449.554 265.135C449.632 259.378 450.776 253.941 453.253 248.917C455.739 243.897 459.531 239.324 464.912 235.299C464.949 235.271 464.981 235.252 465.018 235.224C471.661 230.807 478.767 229.148 485.576 229.58C491.294 229.934 496.799 231.776 501.654 234.697C506.491 237.61 510.683 241.593 513.78 246.245C517.714 252.166 519.904 259.191 519.444 266.503C519.19 270.458 518.321 274.588 516.477 278.686C514.642 282.764 511.85 286.772 507.768 290.468C502.306 295.421 497.17 297.652 492.367 299.744C487.942 301.672 483.826 303.463 480.087 307.451C480.823 308.049 481.148 309.046 480.845 310.006C480.443 311.24 479.111 311.921 477.876 311.521L477.107 311.276C476.484 312.231 475.871 313.282 475.269 314.432L475.521 314.507C476.756 314.908 477.437 316.239 477.036 317.474C476.634 318.708 475.302 319.389 474.067 318.989L473.289 318.739C473.23 318.884 473.172 319.028 473.113 319.173C472.781 320.026 472.406 320.824 471.994 321.558L472.124 321.598C473.36 322.022 474.013 323.363 473.602 324.593C473.178 325.828 471.836 326.482 470.605 326.071L468.941 325.509C466.415 327.872 463.346 329.119 460.323 329.341C458.241 329.499 456.176 329.17 454.31 328.406C452.416 327.629 450.724 326.386 449.421 324.743C447.939 322.852 446.965 320.435 446.802 317.557C446.344 316.955 446.185 316.141 446.444 315.368C446.546 315.06 446.71 314.793 446.911 314.568C447.071 313.309 447.374 311.992 447.829 310.599L447.759 310.577C446.524 310.176 445.843 308.845 446.244 307.61C446.645 306.376 447.978 305.695 449.213 306.095L449.753 306.264C450.342 305.143 450.856 304.056 451.307 303.006ZM431.638 243.74C430.531 243.24 430.036 241.952 430.527 240.842C431.019 239.731 432.316 239.241 433.427 239.731L441.689 243.377C442.8 243.867 443.291 245.164 442.799 246.275C442.308 247.385 441.011 247.876 439.9 247.385L431.638 243.74ZM536.877 284.658C538.015 285.07 538.602 286.332 538.19 287.47C537.778 288.607 536.515 289.195 535.377 288.783L526.876 285.725C525.739 285.314 525.151 284.051 525.563 282.914C525.975 281.776 527.239 281.189 528.377 281.6L536.877 284.658ZM538.171 244.423C539.216 243.81 540.557 244.159 541.17 245.203C541.782 246.248 541.433 247.588 540.388 248.201L532.596 252.777C531.55 253.39 530.209 253.041 529.597 251.997C528.984 250.952 529.333 249.611 530.379 248.999L538.171 244.423ZM509.094 215.724C509.65 214.645 510.972 214.224 512.042 214.775C513.121 215.331 513.543 216.652 512.991 217.721L508.855 225.746C508.298 226.825 506.976 227.246 505.906 226.694C504.827 226.139 504.406 224.818 504.958 223.748L509.094 215.724ZM462.142 208.56C461.7 207.425 462.268 206.156 463.39 205.719C464.525 205.277 465.795 205.844 466.232 206.965L469.499 215.386C469.941 216.521 469.373 217.79 468.251 218.227C467.115 218.669 465.845 218.102 465.408 216.981L462.142 208.56ZM457.118 299.927L475.578 305.814C480.09 300.276 485.142 298.074 490.61 295.704C495.105 293.751 499.894 291.664 504.82 287.201C508.429 283.933 510.879 280.417 512.485 276.861C514.085 273.314 514.845 269.696 515.064 266.195C515.459 259.901 513.55 253.818 510.122 248.66C507.381 244.536 503.682 241.01 499.402 238.447C495.145 235.884 490.311 234.275 485.29 233.958C479.406 233.592 473.262 235.024 467.488 238.859C462.709 242.449 459.356 246.473 457.191 250.853C455.012 255.261 454.012 260.066 453.945 265.183C453.875 270.402 455.064 274.709 456.195 278.849C457.96 285.3 459.632 291.396 457.118 299.927ZM472.754 309.864L455.515 304.359C455.065 305.409 454.564 306.492 453.994 307.622L471.014 313.056C471.588 311.916 472.164 310.846 472.754 309.864ZM452.009 311.939C451.706 312.852 451.494 313.718 451.357 314.55L467.738 320.113C468.229 319.359 468.659 318.519 469.022 317.577L469.031 317.558L469.099 317.395L452.009 311.939ZM451.609 319.625C451.904 320.54 452.333 321.346 452.871 322.02C453.692 323.062 454.774 323.85 455.974 324.348C457.215 324.856 458.586 325.069 459.987 324.962C461.303 324.861 462.63 324.477 463.874 323.787L451.609 319.625Z" fill="#B39B6B"/>
<rect x="-63.0574" y="347.597" width="135.398" height="156.836" fill="#39404C"/>
</svg>
