<svg width="20" height="18" viewBox="0 0 20 18" fill="none" xmlns="http://www.w3.org/2000/svg">
<path d="M15.0551 7.78567V2.82734C15.0551 2.43614 14.6998 2.11902 14.2615 2.11902H11.087C10.6487 2.11902 10.2934 2.43614 10.2934 2.82734V4.95235H8.70608C8.70608 4.56115 8.35076 4.24402 7.91245 4.24402H4.73788C4.29957 4.24402 3.94426 4.56115 3.94426 4.95235V7.78567C3.50595 7.78567 3.15063 8.1028 3.15063 8.494C3.15063 8.8852 3.50595 9.20232 3.94426 9.20232H4.73788H7.91242H11.0869H14.2615H15.0551C15.4935 9.20232 15.8488 8.8852 15.8488 8.494C15.8488 8.1028 15.4935 7.78567 15.0551 7.78567ZM5.53151 5.66067H7.11879V7.78567H5.53151V5.66067ZM8.70608 6.36899H10.2934V7.78567H8.70608V6.36899ZM11.8806 7.78567V5.66067V3.53567H13.4679V7.78567H11.8806Z" fill="white"/>
<path d="M19.0473 11.118V2.47695C19.0473 1.3852 18.0554 0.5 16.8322 0.5H2.21503C0.991835 0.499967 0 1.3852 0 2.47695V11.125C0 11.1274 0.000372017 11.1297 0.000409219 11.132V12.6897C0.000409219 13.7815 0.991463 14.6667 2.21465 14.6667H6.12627L5.72944 16.0834H5.55544C5.11713 16.0834 4.76182 16.4005 4.76182 16.7917C4.76182 17.1829 5.11713 17.5 5.55544 17.5H6.34907H12.6982H13.4918C13.9301 17.5 14.2854 17.1829 14.2854 16.7917C14.2854 16.4005 13.9301 16.0834 13.4918 16.0834H13.3178L12.921 14.6667H16.8326C18.0558 14.6667 19.0476 13.7814 19.0476 12.6897V11.125C19.0477 11.1226 19.0473 11.1203 19.0473 11.118ZM1.58729 2.47695C1.58729 2.1676 1.86846 1.91665 2.21506 1.91665H16.8322C17.1789 1.91665 17.46 2.1676 17.46 2.47695V10.4167H1.58729V2.47695ZM11.6817 16.0834H7.36557L7.7624 14.6667H11.2849L11.6817 16.0834ZM17.4604 12.6897C17.4604 12.9991 17.1792 13.25 16.8326 13.25H11.9045H7.14273H2.21465C1.86834 13.25 1.58769 12.9993 1.58769 12.6897V11.8333H17.4604V12.6897H17.4604Z" fill="white"/>
</svg>
