<svg width="22" height="21" viewBox="0 0 22 21" fill="none" xmlns="http://www.w3.org/2000/svg">
<path d="M15.7151 5.32719C15.7151 5.61958 16.0217 5.91197 16.4502 5.91197C17.0626 5.91197 17.2464 5.67806 17.2464 5.32719C17.2464 5.26872 17.2464 5.26872 17.2464 5.2105C17.1854 5.03507 17.0013 4.91811 16.8181 4.80115C16.7566 4.80115 16.6343 4.74268 16.512 4.74268C16.0827 4.74294 15.7151 4.97659 15.7151 5.32719Z" fill="white"/>
<path d="M17.0018 3.39729C16.94 3.04642 16.6953 2.75403 16.3892 2.75403C16.0826 2.75403 15.8988 3.04642 15.9607 3.39729C16.0225 3.74815 16.2667 4.04054 16.573 4.04054C16.8181 4.04054 17.0628 3.74815 17.0018 3.39729Z" fill="white"/>
<path d="M14.2451 7.78319L15.2866 6.78906C15.899 7.25689 16.6349 7.54928 17.4311 7.54928C19.3299 7.54928 20.8618 6.08706 20.8618 4.27451C20.8612 2.46169 19.3299 1 17.4308 1C15.5322 1 14.0001 2.46195 14.0001 4.27477C14.0001 5.09346 14.3061 5.79494 14.7965 6.3215L13.7548 7.31589C13.9385 7.49106 14.1223 7.66675 14.2451 7.78319ZM17.9822 3.2219H18.6558V2.57891H18.9008V3.22216H19.575V3.45608H18.9008V4.0996H18.6558V3.45582H17.9822V3.2219ZM16.4506 4.33299C16.4506 4.27451 16.4506 4.21603 16.5124 4.15755C16.4506 4.15755 16.4506 4.15755 16.3902 4.15755C15.8998 4.15755 15.5322 3.80668 15.5322 3.39734C15.5322 2.98799 16.022 2.63712 16.5124 2.63712H17.6146L17.3695 2.81256H17.002C17.247 2.8713 17.3695 3.16369 17.3695 3.45582C17.3695 3.68973 17.247 3.86516 17.0629 4.0406C16.8792 4.15755 16.8179 4.21603 16.8179 4.33299C16.8179 4.44994 17.002 4.62538 17.1242 4.68385C17.4302 4.85929 17.4918 5.0932 17.4918 5.38559C17.4918 5.79467 17.1242 6.1458 16.3893 6.1458C15.777 6.1458 15.2253 5.91189 15.2253 5.50255C15.2253 5.0932 15.7152 4.74233 16.3278 4.74233C16.3893 4.74233 16.45 4.74233 16.5116 4.74233C16.5116 4.56716 16.4506 4.4502 16.4506 4.33299Z" fill="white"/>
<path d="M17.4307 14.4499C16.6345 14.4499 15.8381 14.742 15.2862 15.2101L14.245 14.2157C14.1222 14.3911 13.9384 14.5076 13.8162 14.6245L14.8579 15.6189C14.3678 16.2032 14.0615 16.9057 14.0615 17.6659C14.0615 19.4785 15.5936 20.9407 17.4925 20.9407C19.3911 20.9407 20.9235 19.4785 20.9235 17.6659C20.8611 15.8531 19.3298 14.4499 17.4307 14.4499ZM16.4505 19.1866H15.7766V17.1396H16.4505V19.1866ZM16.1441 16.8477C15.8991 16.8477 15.7156 16.672 15.7156 16.4963C15.7156 16.3209 15.8994 16.1455 16.1441 16.1455C16.3889 16.1455 16.5727 16.3209 16.5727 16.4963C16.5114 16.7305 16.3892 16.8477 16.1441 16.8477ZM19.2073 19.1866H18.4109V18.1342C18.4109 17.8421 18.2886 17.6664 18.043 17.6664C17.8592 17.6664 17.737 17.7834 17.6754 17.9003C17.6754 17.9596 17.6754 18.0176 17.6754 18.076V19.1874H16.9403C16.9403 19.1874 16.9403 17.3161 16.9403 17.1404H17.6754V17.4328C17.737 17.3161 17.982 17.0819 18.3496 17.0819C18.8394 17.0819 19.2073 17.374 19.2073 18.0176V19.1866Z" fill="white"/>
<path d="M6.64847 14.2163L5.60701 15.2107C4.99438 14.7426 4.25923 14.4505 3.46281 14.4505C1.56367 14.4505 0.0321045 15.913 0.0321045 17.725C0.0321045 19.5378 1.56367 21 3.46281 21C5.36168 21 6.89352 19.5378 6.89352 17.725C6.89352 16.9648 6.58721 16.2048 6.09711 15.6783L7.13857 14.6839C6.95479 14.5082 6.771 14.3325 6.64847 14.2163ZM4.93339 17.1984C4.93339 18.1926 4.13698 19.3034 2.72794 19.3034C2.29937 19.3034 1.87026 19.1864 1.56394 18.952C1.62521 18.952 1.68647 18.952 1.74773 18.952C2.11531 18.952 2.42162 18.8353 2.72794 18.6599C2.42162 18.6599 2.11531 18.4259 1.99278 18.1333C2.05405 18.1333 2.11504 18.1333 2.11504 18.1333C2.17657 18.1333 2.23756 18.1333 2.2991 18.1333C1.93125 18.0743 1.68647 17.7824 1.68647 17.4316C1.809 17.4903 1.93152 17.5482 2.05405 17.5482C1.87026 17.4316 1.68647 17.1974 1.68647 16.9635C1.68647 16.847 1.74773 16.7296 1.809 16.6126C2.17657 17.0807 2.72766 17.3728 3.40155 17.3728C3.40155 17.3138 3.40155 17.2561 3.40155 17.1974C3.40155 16.788 3.7694 16.4372 4.19797 16.4372C4.44302 16.4372 4.6268 16.5539 4.7496 16.6711C4.93339 16.6123 5.11718 16.5541 5.2397 16.4956C5.17817 16.6711 5.05564 16.7878 4.87186 16.9045C5.05564 16.9045 5.17817 16.8457 5.30069 16.7878C5.17817 16.9632 5.05564 17.0799 4.93312 17.1386C4.93339 17.1397 4.93339 17.1397 4.93339 17.1984Z" fill="white"/>
<path d="M3.46281 7.54951C4.25923 7.54951 5.05537 7.25712 5.60701 6.7893L6.64847 7.78342C6.771 7.60799 6.95479 7.4913 7.07731 7.37434L6.03557 6.38021C6.52567 5.79543 6.83199 5.0937 6.83199 4.33348C6.83199 2.52067 5.30042 1.05872 3.40128 1.05872C1.50241 1.05872 0.0321045 2.52067 0.0321045 4.33348C0.0321045 6.0873 1.56367 7.54951 3.46281 7.54951ZM2.6664 3.74818H3.03398V3.39731C3.03398 2.92949 3.21776 2.6371 3.83039 2.6371H4.32049V3.22188H4.01418C3.76913 3.22188 3.76913 3.28036 3.76913 3.45579V3.74818H4.32049L4.25923 4.33296H3.70732V5.97035H2.97217V4.33296H2.60486V3.74818H2.6664Z" fill="white"/>
<path d="M13.5714 12.6369C13.5096 12.5205 13.3874 12.4612 13.3264 12.4612C12.775 12.2858 12.2852 12.1693 11.7338 11.9936C11.6725 11.9936 11.55 11.8769 11.55 11.6428C11.55 11.5256 11.55 11.4671 11.4278 11.4671C11.366 11.4671 11.4278 11.4671 11.366 11.4086C11.305 11.1747 11.305 11.0575 11.305 10.9992C11.305 10.941 11.366 10.9405 11.366 10.8823C11.55 10.6484 11.611 10.2978 11.611 10.1806C11.611 10.1806 11.6725 10.1806 11.6725 10.1218C11.7338 10.0049 11.7338 10.0049 11.7338 9.82917C11.7956 9.71273 11.7956 9.5373 11.6725 9.5373C11.611 9.59578 11.611 9.5373 11.611 9.42034V8.71861C11.611 8.48469 11.4269 8.30952 11.305 8.25104C11.1206 8.13383 11.0599 8.07535 10.9984 8.07535C10.9368 8.01687 10.9368 7.95839 10.9984 7.89991C11.0596 7.8417 11.1206 7.8417 11.1206 7.78296C11.1206 7.78296 11.1206 7.78296 11.0591 7.78296C10.9976 7.78296 10.6305 7.84196 10.4467 7.89991C10.1404 7.95839 9.83412 8.07535 9.5888 8.25104C9.40501 8.36774 9.28248 8.54317 9.28248 8.77761C9.28248 8.89404 9.28248 9.24517 9.28248 9.47934C9.28248 9.53834 9.28248 9.5963 9.22122 9.53834C9.03743 9.53834 9.15996 9.77226 9.15996 9.83021C9.15996 9.94717 9.22122 10.0059 9.28221 10.1229C9.28221 10.1816 9.34375 10.1816 9.34375 10.1816C9.40501 10.357 9.46627 10.7079 9.5888 10.8833C9.5888 10.8833 9.65033 10.9421 9.65033 11.0003C9.65033 11.1172 9.65033 11.2927 9.5888 11.4096C9.5888 11.4096 9.5888 11.4684 9.52753 11.4684C9.40501 11.4684 9.40501 11.5269 9.40501 11.6438C9.40501 11.8192 9.28248 11.9949 9.22122 11.9949C8.91491 12.1114 7.99624 12.404 7.68965 12.4625C7.50587 12.5215 7.4446 12.5795 7.38334 12.6379L7.07703 13.3397C8.30201 13.3397 8.91491 14.0414 10.2014 14.2753H10.814C12.1006 14.0999 13.0192 13.3397 13.8772 13.3397L13.5714 12.6369Z" fill="white"/>
</svg>
