<svg width="22" height="18" viewBox="0 0 22 18" fill="none" xmlns="http://www.w3.org/2000/svg">
<path d="M5.5 4.90629H2.75V6.87504H5.5V4.90629ZM4.8125 6.21879H3.4375V5.56254H4.8125V6.21879ZM5.5 7.53129H2.75V9.50004H5.5V7.53129ZM4.8125 8.84379H3.4375V8.18754H4.8125V8.84379ZM4.125 10.1563C2.98581 10.1563 2.0625 11.0376 2.0625 12.125C2.0625 13.2124 2.98581 14.0938 4.125 14.0938C5.26419 14.0938 6.1875 13.2124 6.1875 12.125C6.1875 11.0376 5.26419 10.1563 4.125 10.1563ZM4.125 13.4375C3.36669 13.4375 2.75 12.8489 2.75 12.125C2.75 11.4012 3.36669 10.8125 4.125 10.8125C4.88331 10.8125 5.5 11.4012 5.5 12.125C5.5 12.8489 4.88331 13.4375 4.125 13.4375ZM14.8816 6.64273L15.3677 7.1067L13.9927 8.4192L13.5066 7.95523L14.8816 6.64273ZM21.3125 1.62504H20.2221L19.0486 0.504823C18.7798 0.248229 18.3452 0.248229 18.0764 0.504823L16.9029 1.62504H0.6875C0.308 1.62504 0 1.91904 0 2.28129V16.7188C0 17.081 0.308 17.375 0.6875 17.375H21.3125C21.692 17.375 22 17.081 22 16.7188V2.28129C22 1.91904 21.692 1.62504 21.3125 1.62504ZM11 8.18754V10.8125H13.75L19.25 5.56254V14.0938H7.5625V4.90629H14.4375L11 8.18754ZM11.6875 8.65151L13.2639 10.1563H11.6875V8.65151ZM13.8504 9.78814L12.0725 8.09107L18.5625 1.89673L20.3404 3.59379L13.8504 9.78814ZM1.375 16.0625V2.93754H16.5L15.125 4.25004H6.875V14.75H19.9375V4.90629L20.625 4.25004V16.0625H1.375Z" fill="white"/>
</svg>
