<svg width="22" height="21" viewBox="0 0 22 21" fill="none" xmlns="http://www.w3.org/2000/svg">
<path d="M5.23811 10.6666H7.33335C7.52609 10.6666 7.68254 10.5173 7.68254 10.3333C7.68254 10.1493 7.52609 10 7.33335 10H5.5873V9.33332H5.93649C6.12924 9.33332 6.28569 9.18398 6.28569 9C6.28569 8.81602 6.12924 8.66668 5.93649 8.66668H5.5873V7.99996H5.93649C6.12924 7.99996 6.28569 7.85062 6.28569 7.66664C6.28569 7.48266 6.12924 7.33332 5.93649 7.33332H5.5873V6.66664H7.33335C7.52609 6.66664 7.68254 6.5173 7.68254 6.33332C7.68254 6.14934 7.52609 6 7.33335 6H5.5873V5.33332H5.93649C6.12924 5.33332 6.28569 5.18398 6.28569 5C6.28569 4.81602 6.12924 4.66668 5.93649 4.66668H5.5873V3.99996H5.93649C6.12924 3.99996 6.28569 3.85062 6.28569 3.66664C6.28569 3.48266 6.12924 3.33332 5.93649 3.33332H5.5873V2.66664H7.33335C7.52609 2.66664 7.68254 2.5173 7.68254 2.33332C7.68254 2.14934 7.52609 1.99996 7.33335 1.99996H5.5873V0.666641H10.4762V10.3333C10.4762 10.5173 10.6327 10.6666 10.8254 10.6666C11.0181 10.6666 11.1746 10.5173 11.1746 10.3333V0.33332C11.1746 0.149336 11.0181 0 10.8254 0H5.23811C5.04536 0 4.88892 0.149336 4.88892 0.33332V10.3333C4.88892 10.5173 5.04536 10.6666 5.23811 10.6666Z" fill="white"/>
<path d="M0.349193 10.6667C0.541938 10.6667 0.698385 10.5173 0.698385 10.3334V1.66668C0.698385 1.18066 1.23685 0.66668 1.746 0.66668H3.84124C4.03399 0.66668 4.19044 0.517344 4.19044 0.333359C4.19044 0.149375 4.03403 0 3.84128 0H1.74605C0.848571 0 0 0.81 0 1.66668V10.3334C0 10.5173 0.156447 10.6667 0.349193 10.6667Z" fill="white"/>
<path d="M15.7142 4C15.5214 4 15.365 4.14934 15.365 4.33332V10.3333C15.365 10.5173 15.5214 10.6666 15.7142 10.6666C15.9069 10.6666 16.0634 10.5173 16.0634 10.3333V4.33332C16.0634 4.14934 15.9069 4 15.7142 4Z" fill="white"/>
<path d="M13.6191 4.33332V10.3333C13.6191 10.5173 13.7756 10.6666 13.9683 10.6666C14.1611 10.6666 14.3175 10.5173 14.3175 10.3333V4.33332C14.3175 4.14934 14.1611 4 13.9683 4C13.7756 4 13.6191 4.14934 13.6191 4.33332Z" fill="white"/>
<path d="M14.3175 19.3333H13.9683V18.9999C13.9683 18.816 13.8118 18.6666 13.6191 18.6666C13.4263 18.6666 13.2699 18.816 13.2699 18.9999V19.3333H12.5714V18.9999C12.5714 18.816 12.415 18.6666 12.2222 18.6666C12.0295 18.6666 11.873 18.816 11.873 18.9999V19.3333H11.1746V18.9999C11.1746 18.816 11.0182 18.6666 10.8254 18.6666C10.6327 18.6666 10.4762 18.816 10.4762 18.9999V19.3333H9.7778V18.9999C9.7778 18.816 9.62136 18.6666 9.42861 18.6666C9.23586 18.6666 9.07942 18.816 9.07942 18.9999V19.3333H8.38095V18.9999C8.38095 18.816 8.2245 18.6666 8.03176 18.6666C7.83901 18.6666 7.68256 18.816 7.68256 18.9999V19.3333H6.98414V18.9999C6.98414 18.816 6.82769 18.6666 6.63495 18.6666C6.4422 18.6666 6.28575 18.816 6.28575 18.9999V19.3333H5.58733V18.9999C5.58733 18.816 5.43088 18.6666 5.23813 18.6666C5.04539 18.6666 4.88894 18.816 4.88894 18.9999V19.3333H4.19047V18.9999C4.19047 18.816 4.03403 18.6666 3.84128 18.6666C3.64854 18.6666 3.49209 18.816 3.49209 18.9999V19.3333H2.79366V18.9999C2.79366 18.816 2.63722 18.6666 2.44447 18.6666C2.25172 18.6666 2.09524 18.816 2.09524 18.9999V19.3333H1.74604C1.5533 19.3333 1.39685 19.4826 1.39685 19.6666C1.39685 19.8506 1.55326 19.9999 1.74604 19.9999H14.3175C14.5102 19.9999 14.6667 19.8506 14.6667 19.6666C14.6667 19.4826 14.5102 19.3333 14.3175 19.3333Z" fill="white"/>
<path d="M12.2223 10.6667C12.415 10.6667 12.5715 10.5174 12.5715 10.3334V3.09573L13.9683 0.962412L15.0844 2.66675H13.6191C13.4263 2.66675 13.2699 2.81608 13.2699 3.00007C13.2699 3.18405 13.4263 3.33339 13.6191 3.33339H15.7143C15.8414 3.33339 15.9581 3.26772 16.0199 3.16171C16.0814 3.05569 16.0779 2.92604 16.0105 2.82339L14.2644 0.156748C14.1366 -0.038252 13.8 -0.038252 13.6722 0.156748L11.9261 2.82339C11.8915 2.8764 11.873 2.93737 11.873 3.00007V10.3334C11.873 10.5174 12.0295 10.6667 12.2223 10.6667Z" fill="white"/>
<path d="M19.2063 0H15.7143C15.5215 0 15.3651 0.149336 15.3651 0.33332C15.3651 0.517305 15.5215 0.666641 15.7143 0.666641H19.2063C19.7155 0.666641 20.254 1.18062 20.254 1.66664V13.6666C20.254 14.1527 19.7155 14.6666 19.2063 14.6666H1.74605C1.23689 14.6666 0.698426 14.1527 0.698426 13.6666V12H19.2064C19.3991 12 19.5556 11.8507 19.5556 11.6667C19.5556 11.4827 19.3991 11.3334 19.2064 11.3334H0.349193C0.156447 11.3334 0 11.4827 0 11.6667V13.6667C0 14.5234 0.848571 15.3334 1.74605 15.3334H19.2064C20.1039 15.3334 20.9524 14.5234 20.9524 13.6667V1.66668C20.9524 0.81 20.1038 0 19.2063 0Z" fill="white"/>
<path d="M9.77771 13.3333C9.77771 13.701 10.0909 14 10.4761 14C10.8613 14 11.1746 13.701 11.1746 13.3333C11.1746 12.9657 10.8613 12.6666 10.4761 12.6666C10.091 12.6667 9.77771 12.9657 9.77771 13.3333Z" fill="white"/>
<path d="M12.2222 18C12.415 18 12.5714 17.8506 12.5714 17.6666V16.3333C12.5714 16.1493 12.415 16 12.2222 16C12.0295 16 11.873 16.1493 11.873 16.3333V17.6666C11.873 17.8506 12.0295 18 12.2222 18Z" fill="white"/>
<path d="M9.07937 17.6666V16.3333C9.07937 16.1493 8.92292 16 8.73017 16C8.53743 16 8.38098 16.1493 8.38098 16.3333V17.6666C8.38098 17.8506 8.53743 18 8.73017 18C8.92292 18 9.07937 17.8506 9.07937 17.6666Z" fill="white"/>
<path d="M18.1587 18H17.4603C16.6899 18 16.0635 18.598 16.0635 19.3333V19.6666C16.0635 19.8506 16.2199 20 16.4127 20H19.2063C19.3991 20 19.5555 19.8506 19.5555 19.6666V19.3333C19.5556 18.598 18.9291 18 18.1587 18ZM16.7619 19.3333C16.7619 18.9657 17.0751 18.6666 17.4603 18.6666H18.1588C18.5439 18.6666 18.8572 18.9656 18.8572 19.3333H16.7619Z" fill="white"/>
</svg>
