<svg width="23" height="14" viewBox="0 0 23 14" fill="none" xmlns="http://www.w3.org/2000/svg">
<path d="M17.898 2.76849C17.4981 2.77429 17.1 2.83081 16.7118 2.93696C15.9781 1.80742 14.9565 0.942755 13.7763 0.452356C12.596 -0.0380429 11.3102 -0.132147 10.0813 0.181947C8.85248 0.496041 7.73587 1.20422 6.87275 2.21691C6.00963 3.2296 5.43877 4.50129 5.23238 5.87113C4.70701 5.64269 4.14221 5.54512 3.57853 5.5854C3.01484 5.62569 2.46625 5.80285 1.97214 6.10415C1.47802 6.40545 1.05065 6.82343 0.720685 7.32807C0.390724 7.83272 0.166364 8.41151 0.0637129 9.0229C-0.0389385 9.6343 -0.0173354 10.2631 0.126971 10.8642C0.271278 11.4653 0.534709 12.0238 0.898353 12.4996C1.262 12.9754 1.71683 13.3566 2.23021 13.616C2.74358 13.8754 3.30276 14.0064 3.8676 13.9998H17.898C19.2512 13.9998 20.5489 13.4081 21.5057 12.355C22.4625 11.3018 23 9.87348 23 8.38413C23 6.89477 22.4625 5.46641 21.5057 4.41327C20.5489 3.36014 19.2512 2.76849 17.898 2.76849Z" fill="white"/>
</svg>
