<svg width="21" height="19" viewBox="0 0 21 19" fill="none" xmlns="http://www.w3.org/2000/svg">
<path fill-rule="evenodd" clip-rule="evenodd" d="M0 2.71429C0 1.21523 1.2821 0 2.86364 0H18.1364C19.7179 0 21 1.21523 21 2.71429V12.6667C21 14.1658 19.7179 15.381 18.1364 15.381H15.2727V17.1905H16.2273C16.7545 17.1905 17.1818 17.5955 17.1818 18.0952C17.1818 18.5949 16.7545 19 16.2273 19H14.3182H6.68182H4.77273C4.24555 19 3.81818 18.5949 3.81818 18.0952C3.81818 17.5955 4.24555 17.1905 4.77273 17.1905H5.72727V15.381H2.86364C1.2821 15.381 0 14.1658 0 12.6667V2.71429ZM13.3636 17.1905V15.381H7.63636V17.1905H13.3636ZM18.1364 13.5714H14.3182H6.68182H2.86364C2.33646 13.5714 1.90909 13.1664 1.90909 12.6667V2.71429C1.90909 2.2146 2.33646 1.80952 2.86364 1.80952H18.1364C18.6636 1.80952 19.0909 2.2146 19.0909 2.71429V12.6667C19.0909 13.1664 18.6636 13.5714 18.1364 13.5714ZM3.34091 2.71429C3.07732 2.71429 2.86364 2.91683 2.86364 3.16667V11.3095C2.86364 11.5593 3.07732 11.7619 3.34091 11.7619H17.6591C17.9226 11.7619 18.1364 11.5593 18.1364 11.3095V3.16667C18.1364 2.91683 17.9226 2.71429 17.6591 2.71429H3.34091Z" fill="white"/>
</svg>
