<svg width="21" height="15" viewBox="0 0 21 15" fill="none" xmlns="http://www.w3.org/2000/svg">
<path fill-rule="evenodd" clip-rule="evenodd" d="M5.75188 3.84203C6.17562 3.40714 6.17562 2.70268 5.75188 2.26779L5.73765 2.25298C5.31392 1.81809 4.6274 1.81809 4.20367 2.25298L0.317801 6.24014C-0.105934 6.67503 -0.105934 7.38085 0.317801 7.81574L4.20367 11.8026C4.6274 12.2375 5.31392 12.2375 5.73765 11.8026L5.75188 11.7881C6.17562 11.3532 6.17562 10.6487 5.75188 10.2139L3.41532 7.81574C2.99159 7.38085 2.99159 6.67503 3.41532 6.24014L5.75188 3.84203ZM20.6822 6.24014L16.7963 2.25298C16.3737 1.81809 15.6861 1.81809 15.2624 2.25298L15.2481 2.26779C14.8244 2.70268 14.8244 3.40714 15.2481 3.84203L17.5858 6.24014C18.0095 6.67503 18.0095 7.38085 17.5858 7.81574L15.2481 10.2139C14.8244 10.6487 14.8244 11.3532 15.2481 11.7881L15.2624 11.8026C15.6861 12.2375 16.3737 12.2375 16.7963 11.8026L20.6822 7.81574C21.1059 7.38085 21.1059 6.67503 20.6822 6.24014ZM14.1577 1.58246L8.56245 13.7533C8.38119 14.1359 8.06317 14.6087 7.65289 14.6087H7.63117C6.83339 14.6087 6.3135 13.5072 6.66625 12.7645L12.2289 0.708926C12.4102 0.327425 13.0821 0.0282583 13.0821 0.0282583V0C14.1675 0 14.5094 0.83979 14.1577 1.58246Z" fill="white"/>
</svg>
