<svg width="22" height="15" viewBox="0 0 22 15" fill="none" xmlns="http://www.w3.org/2000/svg">
<path d="M21.0833 11.4315V0.349976H0.916667V11.4315H0V13.3063L2.10189 14.8944H19.8981L22 13.3063V11.4315H21.0833ZM1.83333 1.04257H20.1667V11.4315H1.83333V1.04257ZM21.0833 13.0196L19.5186 14.2018H2.48145L0.916667 13.0196V12.1241H21.0833V13.0196Z" fill="white"/>
<path d="M13.2917 12.8167H12.375V13.5092H13.2917V12.8167Z" fill="white"/>
<path d="M9.62504 12.8167H8.70837V13.5092H9.62504V12.8167Z" fill="white"/>
<path d="M11.4583 12.8167H10.5416V13.5092H11.4583V12.8167Z" fill="white"/>
<path d="M17.8007 1.86024C17.6727 1.74323 17.4587 1.704 17.2739 1.76115L4.3779 5.75709C4.21632 5.80714 4.10621 5.9228 4.09457 6.05469C4.08338 6.18658 4.17245 6.31204 4.32419 6.37799L6.51022 7.32367V10.1839C6.51022 10.33 6.63197 10.4605 6.81414 10.5099C6.86471 10.5234 6.91663 10.5302 6.96855 10.5302C7.10283 10.5302 7.23398 10.4855 7.3226 10.4037L9.34092 8.54833L11.227 9.36445C11.2986 9.39523 11.3769 9.41011 11.4544 9.41011C11.6047 9.41011 11.752 9.35397 11.8393 9.25218L17.8325 2.26978C17.9417 2.14262 17.9287 1.97691 17.8007 1.86024ZM7.42689 9.21701V7.37122L10.5506 6.34552L7.42689 9.21701ZM11.3062 8.60051L9.93143 8.00544L12.4663 5.67525C12.601 5.55181 12.6055 5.37461 12.478 5.24678C12.3504 5.11861 12.123 5.07329 11.9297 5.13788L7.02495 6.74796L5.59355 6.12875L16.2659 2.82202L11.3062 8.60051Z" fill="white"/>
</svg>
