<svg width="60" height="60" viewBox="0 0 60 60" fill="none" xmlns="http://www.w3.org/2000/svg">
<path d="M0 48.3036C0 51.3932 1.1 54.0074 3.3 56.1463C5.5 58.2852 8.16 59.3745 11.28 59.4141H48.78C51.86 59.4141 54.5 58.3248 56.7 56.1463C58.9 53.9678 60 51.3536 60 48.3036V18.5966C60 15.5071 58.9 12.873 56.7 10.6945C54.5 8.51602 51.86 7.42676 48.78 7.42676H36.84C36.04 5.24824 34.68 3.46582 32.76 2.07949C30.84 0.693164 28.68 0 26.28 0H11.28C8.16 0 5.5 1.08926 3.3 3.26777C1.1 5.44629 0 8.08031 0 11.1698L0 48.3036ZM7.5 48.3036V11.1698C7.5 10.14 7.86 9.26859 8.58 8.55562C9.3 7.84266 10.2 7.46637 11.28 7.42676H26.28C27.28 7.42676 28.16 7.80305 28.92 8.55562C29.68 9.3082 30.04 10.1796 30 11.1698V14.8535H48.78C49.78 14.8535 50.66 15.2298 51.42 15.9824C52.18 16.735 52.54 17.6064 52.5 18.5966V22.2803H18.78C17.74 22.2803 16.84 22.6566 16.08 23.4091C15.32 24.1617 14.96 25.0331 15 26.0234V51.9873H11.28C10.24 51.9873 9.34 51.6308 8.58 50.9179C7.82 50.2049 7.46 49.3335 7.5 48.3036Z" fill="white"/>
</svg>
