<svg width="1004" height="1392" viewBox="0 0 1004 1392" fill="none" xmlns="http://www.w3.org/2000/svg">
<path d="M349.5 1265.5L349.203 1266.97L349.203 1266.97L349.5 1265.5ZM743.5 1168L744.774 1168.79L744.774 1168.79L743.5 1168ZM994 1057L992.73 1056.2L992.73 1056.2L994 1057ZM866.1 779.729L865.21 780.937L865.21 780.937L866.1 779.729ZM667 621L666.018 622.133L666.018 622.134L667 621ZM1204.5 351.5C1204.5 352.328 1205.17 353 1206 353C1206.83 353 1207.5 352.328 1207.5 351.5H1204.5ZM12.2327 1472.22C12.9504 1471.8 13.197 1470.89 12.7833 1470.17C12.3697 1469.45 11.4525 1469.2 10.7347 1469.62L12.2327 1472.22ZM25.9827 1454.8C25.4746 1455.45 25.5933 1456.39 26.2476 1456.9C26.902 1457.41 27.8443 1457.29 28.3523 1456.64L25.9827 1454.8ZM41.0155 1438.44C41.4656 1437.74 41.2667 1436.81 40.5712 1436.36C39.8758 1435.91 38.9471 1436.11 38.4969 1436.8L41.0155 1438.44ZM50.2376 1418.21C49.7986 1418.91 50.0122 1419.84 50.7147 1420.28C51.4172 1420.71 52.3426 1420.5 52.7817 1419.8L50.2376 1418.21ZM64.5202 1401.22C64.9688 1400.53 64.7678 1399.6 64.0713 1399.15C63.3748 1398.7 62.4466 1398.9 61.998 1399.6L64.5202 1401.22ZM74.2156 1381.22C73.7454 1381.9 73.9171 1382.83 74.5991 1383.31C75.2812 1383.78 76.2153 1383.6 76.6855 1382.92L74.2156 1381.22ZM89.537 1365.11C90.0374 1364.45 89.9079 1363.51 89.2477 1363.01C88.5875 1362.51 87.6467 1362.64 87.1462 1363.3L89.537 1365.11ZM100.956 1346.08C100.419 1346.71 100.495 1347.66 101.125 1348.2C101.756 1348.74 102.703 1348.66 103.24 1348.03L100.956 1346.08ZM117.999 1331.81C118.577 1331.22 118.566 1330.27 117.973 1329.69C117.38 1329.11 116.431 1329.12 115.852 1329.72L117.999 1331.81ZM131.88 1314.51C131.257 1315.05 131.194 1316 131.74 1316.62C132.286 1317.25 133.233 1317.31 133.857 1316.76L131.88 1314.51ZM150.924 1303.07C151.593 1302.58 151.739 1301.64 151.25 1300.98C150.761 1300.31 149.822 1300.16 149.153 1300.65L150.924 1303.07ZM167.612 1288.45C166.9 1288.87 166.665 1289.79 167.088 1290.5C167.511 1291.22 168.431 1291.45 169.144 1291.03L167.612 1288.45ZM188.447 1280.83C189.199 1280.48 189.524 1279.59 189.175 1278.84C188.826 1278.09 187.934 1277.76 187.182 1278.11L188.447 1280.83ZM207.753 1269.8C206.97 1270.07 206.554 1270.92 206.825 1271.71C207.095 1272.49 207.95 1272.91 208.733 1272.64L207.753 1269.8ZM229.683 1266.56C230.489 1266.37 230.988 1265.56 230.798 1264.76C230.607 1263.95 229.799 1263.45 228.993 1263.64L229.683 1266.56ZM250.714 1259.6C249.894 1259.71 249.32 1260.47 249.433 1261.29C249.546 1262.11 250.303 1262.68 251.124 1262.57L250.714 1259.6ZM272.875 1260.57C273.702 1260.53 274.341 1259.82 274.301 1259C274.261 1258.17 273.558 1257.53 272.731 1257.57L272.875 1260.57ZM294.838 1257.41C294.01 1257.38 293.317 1258.03 293.29 1258.86C293.263 1259.69 293.913 1260.38 294.741 1260.41L294.838 1257.41ZM316.565 1261.93C317.389 1262.01 318.127 1261.41 318.214 1260.59C318.301 1259.77 317.703 1259.03 316.879 1258.94L316.565 1261.93ZM338.747 1261.97C337.931 1261.83 337.156 1262.38 337.016 1263.2C336.877 1264.01 337.426 1264.79 338.242 1264.93L338.747 1261.97ZM359.945 1269.3C360.752 1269.48 361.558 1268.98 361.745 1268.17C361.931 1267.37 361.428 1266.56 360.621 1266.37L359.945 1269.3ZM381.838 1271.9C381.042 1271.67 380.21 1272.13 379.98 1272.92C379.75 1273.72 380.208 1274.55 381.004 1274.78L381.838 1271.9ZM401.853 1281.4C402.636 1281.67 403.49 1281.26 403.76 1280.47C404.03 1279.69 403.615 1278.84 402.832 1278.57L401.853 1281.4ZM423.42 1286.19C422.649 1285.89 421.778 1286.27 421.474 1287.04C421.17 1287.81 421.549 1288.68 422.319 1288.98L423.42 1286.19ZM442.52 1297.35C443.28 1297.68 444.163 1297.33 444.492 1296.57C444.821 1295.81 444.471 1294.93 443.71 1294.6L442.52 1297.35ZM463.721 1303.49C462.966 1303.15 462.078 1303.48 461.736 1304.24C461.394 1304.99 461.729 1305.88 462.484 1306.22L463.721 1303.49ZM482.486 1315.27C483.242 1315.61 484.129 1315.27 484.467 1314.51C484.805 1313.75 484.465 1312.87 483.709 1312.53L482.486 1315.27ZM503.797 1321.13C503.029 1320.82 502.155 1321.19 501.845 1321.96C501.536 1322.73 501.908 1323.6 502.677 1323.91L503.797 1321.13ZM523.393 1331.37C524.184 1331.62 525.024 1331.17 525.268 1330.38C525.513 1329.59 525.069 1328.75 524.277 1328.5L523.393 1331.37ZM545.35 1333.49C544.532 1333.36 543.765 1333.92 543.639 1334.74C543.512 1335.56 544.073 1336.33 544.892 1336.45L545.35 1333.49ZM567.016 1337.63C567.843 1337.58 568.476 1336.87 568.429 1336.05C568.383 1335.22 567.675 1334.59 566.848 1334.63L567.016 1337.63ZM588.014 1330.93C587.22 1331.16 586.768 1332 587.004 1332.79C587.24 1333.59 588.075 1334.04 588.869 1333.8L588.014 1330.93ZM609.304 1325.32C610.035 1324.93 610.312 1324.02 609.922 1323.29C609.533 1322.56 608.624 1322.28 607.893 1322.67L609.304 1325.32ZM626.127 1311.05C625.461 1311.54 625.32 1312.48 625.813 1313.14C626.306 1313.81 627.245 1313.95 627.911 1313.46L626.127 1311.05ZM644.923 1299.36C645.534 1298.8 645.576 1297.85 645.017 1297.24C644.457 1296.63 643.508 1296.58 642.897 1297.14L644.923 1299.36ZM658.406 1281.79C657.838 1282.39 657.867 1283.34 658.47 1283.91C659.073 1284.48 660.022 1284.45 660.59 1283.85L658.406 1281.79ZM675.139 1267.48C675.673 1266.85 675.593 1265.91 674.96 1265.37C674.327 1264.84 673.38 1264.92 672.846 1265.55L675.139 1267.48ZM686.556 1248.58C686.048 1249.23 686.167 1250.17 686.822 1250.68C687.476 1251.19 688.419 1251.07 688.926 1250.42L686.556 1248.58ZM702.104 1232.83C702.591 1232.16 702.441 1231.22 701.771 1230.73C701.1 1230.25 700.162 1230.4 699.676 1231.07L702.104 1232.83ZM712.336 1213.12C711.867 1213.8 712.04 1214.73 712.723 1215.2C713.406 1215.67 714.339 1215.5 714.808 1214.81L712.336 1213.12ZM727.012 1196.63C727.466 1195.94 727.274 1195.01 726.581 1194.55C725.889 1194.1 724.959 1194.29 724.504 1194.98L727.012 1196.63ZM736.261 1176.73C735.818 1177.43 736.027 1178.35 736.727 1178.79C737.428 1179.24 738.354 1179.03 738.797 1178.33L736.261 1176.73ZM750.559 1159.96C751.03 1159.28 750.859 1158.34 750.177 1157.87C749.496 1157.4 748.562 1157.57 748.091 1158.25L750.559 1159.96ZM761.146 1141.53C760.595 1142.15 760.65 1143.1 761.268 1143.65C761.887 1144.2 762.835 1144.15 763.386 1143.53L761.146 1141.53ZM778.36 1129.21C779.006 1128.69 779.111 1127.75 778.594 1127.1C778.076 1126.45 777.132 1126.35 776.485 1126.87L778.36 1129.21ZM794.405 1115.37C793.663 1115.73 793.359 1116.63 793.727 1117.38C794.095 1118.12 794.995 1118.42 795.737 1118.05L794.405 1115.37ZM815.13 1111.1C815.936 1110.91 816.436 1110.1 816.247 1109.3C816.057 1108.49 815.249 1107.99 814.443 1108.18L815.13 1111.1ZM835.542 1105.37C834.714 1105.41 834.073 1106.11 834.111 1106.94C834.148 1107.76 834.849 1108.4 835.677 1108.37L835.542 1105.37ZM856.532 1108.7C857.358 1108.76 858.071 1108.13 858.124 1107.3C858.176 1106.48 857.549 1105.76 856.722 1105.71L856.532 1108.7ZM877.721 1107.46C876.896 1107.39 876.167 1108 876.093 1108.82C876.019 1109.65 876.627 1110.38 877.452 1110.45L877.721 1107.46ZM898.523 1111.89C899.351 1111.91 900.044 1111.27 900.07 1110.44C900.097 1109.61 899.447 1108.92 898.619 1108.89L898.523 1111.89ZM919.395 1108.19C918.572 1108.28 917.982 1109.03 918.077 1109.85C918.172 1110.67 918.917 1111.26 919.74 1111.17L919.395 1108.19ZM940.522 1106.43C941.302 1106.15 941.709 1105.3 941.431 1104.52C941.153 1103.74 940.295 1103.33 939.514 1103.61L940.522 1106.43ZM957.88 1094.3C957.193 1094.77 957.011 1095.7 957.473 1096.39C957.936 1097.07 958.868 1097.26 959.555 1096.79L957.88 1094.3ZM975.797 1083.08C976.373 1082.48 976.359 1081.53 975.764 1080.96C975.17 1080.38 974.22 1080.39 973.643 1080.99L975.797 1083.08ZM986.888 1064.94C986.407 1065.62 986.565 1066.56 987.239 1067.04C987.914 1067.52 988.851 1067.36 989.331 1066.68L986.888 1064.94ZM1000.62 1048.58C1001.01 1047.85 1000.74 1046.94 1000.01 1046.55C999.276 1046.16 998.368 1046.43 997.977 1047.16L1000.62 1048.58ZM1006.38 1028.07C1006.11 1028.86 1006.52 1029.71 1007.3 1029.99C1008.08 1030.26 1008.94 1029.85 1009.21 1029.06L1006.38 1028.07ZM1014.54 1008.4C1014.68 1007.58 1014.13 1006.81 1013.31 1006.67C1012.49 1006.53 1011.72 1007.08 1011.58 1007.9L1014.54 1008.4ZM1013.28 987.133C1013.29 987.961 1013.96 988.63 1014.79 988.628C1015.62 988.625 1016.29 987.951 1016.28 987.123L1013.28 987.133ZM1014.48 965.886C1014.34 965.069 1013.57 964.515 1012.75 964.65C1011.94 964.785 1011.38 965.557 1011.52 966.375L1014.48 965.886ZM1006.63 946.066C1006.88 946.856 1007.72 947.295 1008.51 947.046C1009.3 946.796 1009.74 945.954 1009.49 945.164L1006.63 946.066ZM1001.86 925.326C1001.52 924.571 1000.63 924.236 999.873 924.578C999.118 924.92 998.784 925.809 999.126 926.564L1001.86 925.326ZM989.509 907.956C989.924 908.673 990.842 908.917 991.559 908.501C992.275 908.086 992.52 907.168 992.104 906.451L989.509 907.956ZM980.682 888.557C980.209 887.877 979.274 887.709 978.594 888.183C977.914 888.656 977.747 889.591 978.22 890.271L980.682 888.557ZM965.593 873.444C966.112 874.09 967.057 874.193 967.702 873.673C968.348 873.154 968.45 872.21 967.931 871.564L965.593 873.444ZM954.184 855.47C953.629 854.855 952.68 854.807 952.065 855.363C951.451 855.918 951.403 856.867 951.958 857.481L954.184 855.47ZM937.464 842.235C938.049 842.822 938.998 842.823 939.585 842.238C940.172 841.653 940.173 840.703 939.588 840.117L937.464 842.235ZM924.329 825.461C923.72 824.899 922.771 824.938 922.21 825.547C921.648 826.156 921.687 827.105 922.296 827.667L924.329 825.461ZM906.495 813.638C907.124 814.177 908.071 814.103 908.61 813.474C909.148 812.845 909.075 811.898 908.446 811.359L906.495 813.638ZM892.202 797.899C891.556 797.38 890.612 797.483 890.093 798.129C889.575 798.775 889.678 799.72 890.324 800.238L892.202 797.899ZM873.728 787.302C874.388 787.802 875.329 787.672 875.829 787.012C876.329 786.352 876.2 785.411 875.539 784.911L873.728 787.302ZM858.463 772.209C857.798 771.715 856.858 771.853 856.364 772.518C855.87 773.183 856.009 774.122 856.673 774.617L858.463 772.209ZM839.67 761.882C840.332 762.381 841.272 762.25 841.771 761.588C842.27 760.927 842.138 759.987 841.477 759.488L839.67 761.882ZM824.583 746.651C823.925 746.148 822.984 746.273 822.481 746.931C821.977 747.589 822.102 748.53 822.76 749.034L824.583 746.651ZM805.942 736.082C806.596 736.589 807.539 736.47 808.046 735.815C808.554 735.16 808.434 734.218 807.779 733.71L805.942 736.082ZM791.06 720.671C790.408 720.16 789.465 720.274 788.954 720.925C788.443 721.577 788.556 722.52 789.208 723.031L791.06 720.671ZM772.535 709.872C773.184 710.387 774.128 710.279 774.643 709.63C775.158 708.981 775.049 708.037 774.401 707.522L772.535 709.872ZM757.821 694.286C757.175 693.768 756.231 693.871 755.713 694.517C755.194 695.163 755.297 696.107 755.943 696.626L757.821 694.286ZM739.419 683.286C740.062 683.808 741.006 683.71 741.529 683.067C742.051 682.423 741.952 681.479 741.309 680.957L739.419 683.286ZM724.846 667.521C724.206 666.995 723.26 667.089 722.735 667.729C722.209 668.369 722.303 669.315 722.943 669.84L724.846 667.521ZM706.601 656.356C707.238 656.885 708.184 656.797 708.713 656.16C709.242 655.522 709.154 654.577 708.516 654.048L706.601 656.356ZM692.211 640.44C691.576 639.907 690.63 639.99 690.098 640.624C689.565 641.259 689.647 642.205 690.282 642.738L692.211 640.44ZM674.029 628.997C674.66 629.535 675.606 629.459 676.144 628.828C676.681 628.198 676.605 627.251 675.975 626.714L674.029 628.997ZM659.819 612.504C659.214 611.937 658.265 611.968 657.698 612.573C657.132 613.177 657.163 614.127 657.767 614.693L659.819 612.504ZM642.027 598.917C642.593 599.521 643.543 599.552 644.147 598.985C644.752 598.419 644.782 597.47 644.216 596.865L642.027 598.917ZM629.577 580.353C629.044 579.719 628.098 579.637 627.464 580.17C626.83 580.703 626.748 581.65 627.281 582.284L629.577 580.353ZM613.389 564.914C613.891 565.573 614.832 565.7 615.491 565.198C616.15 564.696 616.278 563.755 615.776 563.096L613.389 564.914ZM602.783 545.209C602.311 544.528 601.377 544.358 600.696 544.83C600.015 545.301 599.845 546.236 600.317 546.917L602.783 545.209ZM588.063 528.368C588.504 529.069 589.43 529.279 590.131 528.838C590.832 528.397 591.043 527.471 590.601 526.77L588.063 528.368ZM579.245 507.813C578.835 507.093 577.919 506.842 577.199 507.252C576.479 507.661 576.228 508.577 576.638 509.297L579.245 507.813ZM566.083 489.725C566.459 490.463 567.363 490.756 568.101 490.38C568.839 490.004 569.132 489.101 568.756 488.363L566.083 489.725ZM559.21 468.438C558.871 467.682 557.983 467.344 557.227 467.684C556.472 468.023 556.134 468.91 556.473 469.666L559.21 468.438ZM547.91 449.133C548.208 449.906 549.076 450.291 549.849 449.994C550.622 449.696 551.008 448.828 550.71 448.055L547.91 449.133ZM543.399 427.232C543.149 426.442 542.307 426.004 541.517 426.254C540.727 426.504 540.289 427.347 540.539 428.137L543.399 427.232ZM534.549 406.689C534.743 407.494 535.553 407.99 536.358 407.796C537.164 407.602 537.659 406.792 537.465 405.986L534.549 406.689ZM533.16 384.364C533.032 383.545 532.266 382.985 531.447 383.112C530.628 383.24 530.068 384.006 530.195 384.825L533.16 384.364ZM527.819 362.651C527.865 363.478 528.574 364.111 529.401 364.065C530.228 364.018 530.861 363.31 530.814 362.483L527.819 362.651ZM530.677 340.415C530.703 339.587 530.053 338.895 529.225 338.868C528.397 338.842 527.705 339.491 527.678 340.319L530.677 340.415ZM529.104 318.065C529.025 318.889 529.629 319.622 530.453 319.702C531.278 319.782 532.011 319.178 532.09 318.353L529.104 318.065ZM534.927 296.409C535.06 295.591 534.505 294.821 533.687 294.688C532.87 294.555 532.099 295.11 531.966 295.928L534.927 296.409ZM536.262 274.024C536.076 274.831 536.58 275.637 537.387 275.822C538.194 276.008 538.999 275.505 539.185 274.697L536.262 274.024ZM544.849 253.321C545.087 252.528 544.637 251.692 543.844 251.453C543.05 251.215 542.214 251.665 541.976 252.459L544.849 253.321ZM549.091 231.307C548.801 232.083 549.195 232.947 549.971 233.237C550.748 233.527 551.612 233.132 551.901 232.356L549.091 231.307ZM560.312 211.893C560.652 211.138 560.315 210.25 559.56 209.91C558.804 209.57 557.916 209.907 557.576 210.663L560.312 211.893ZM567.39 190.624C567.001 191.356 567.28 192.264 568.011 192.652C568.743 193.041 569.651 192.762 570.039 192.031L567.39 190.624ZM581.044 172.841C581.48 172.136 581.261 171.212 580.557 170.777C579.852 170.341 578.927 170.56 578.492 171.265L581.044 172.841ZM590.832 152.669C590.352 153.344 590.51 154.281 591.185 154.761C591.86 155.241 592.796 155.083 593.277 154.408L590.832 152.669ZM606.679 136.813C607.203 136.17 607.106 135.225 606.464 134.702C605.821 134.179 604.876 134.276 604.353 134.918L606.679 136.813ZM619.001 118.081C618.437 118.688 618.472 119.637 619.079 120.201C619.686 120.765 620.635 120.73 621.199 120.123L619.001 118.081ZM636.772 104.412C637.374 103.843 637.401 102.893 636.832 102.291C636.263 101.689 635.313 101.663 634.711 102.232L636.772 104.412ZM651.42 87.4376C650.782 87.9662 650.693 88.9119 651.222 89.5497C651.751 90.1875 652.696 90.2759 653.334 89.7473L651.42 87.4376ZM670.815 76.195C671.486 75.7091 671.636 74.7712 671.15 74.1003C670.664 73.4293 669.727 73.2793 669.056 73.7652L670.815 76.195ZM687.55 61.2741C686.848 61.715 686.637 62.641 687.078 63.3424C687.519 64.0437 688.445 64.2548 689.146 63.8139L687.55 61.2741ZM708.251 52.6623C708.98 52.2684 709.252 51.3583 708.858 50.6295C708.464 49.9007 707.554 49.6291 706.825 50.0229L708.251 52.6623ZM726.795 40.0687C726.042 40.4136 725.711 41.3038 726.055 42.057C726.4 42.8103 727.29 43.1413 728.044 42.7964L726.795 40.0687ZM748.451 34.2586C749.225 33.9644 749.615 33.0981 749.32 32.3236C749.026 31.5492 748.16 31.16 747.386 31.4542L748.451 34.2586ZM768.501 24.2244C767.709 24.4666 767.263 25.3051 767.505 26.0974C767.748 26.8896 768.586 27.3355 769.378 27.0934L768.501 24.2244ZM790.727 21.3358C791.533 21.1468 792.034 20.3397 791.845 19.5331C791.656 18.7265 790.849 18.2259 790.042 18.415L790.727 21.3358ZM811.932 14.0454C811.114 14.1805 810.561 14.9527 810.697 15.77C810.832 16.5873 811.604 17.1403 812.421 17.0052L811.932 14.0454ZM834.358 14.1184C835.183 14.0375 835.785 13.3035 835.705 12.479C835.624 11.6546 834.89 11.0518 834.065 11.1328L834.358 14.1184ZM856.319 9.68145C855.491 9.70836 854.842 10.4014 854.869 11.2294C854.895 12.0574 855.589 12.7068 856.417 12.6799L856.319 9.68145ZM878.584 12.6799C879.412 12.7068 880.105 12.0574 880.131 11.2294C880.158 10.4014 879.509 9.70836 878.681 9.68145L878.584 12.6799ZM900.935 11.1328C900.111 11.0518 899.377 11.6546 899.296 12.479C899.215 13.3035 899.817 14.0375 900.642 14.1184L900.935 11.1328ZM922.579 17.0052C923.396 17.1403 924.168 16.5873 924.303 15.77C924.439 14.9527 923.886 14.1805 923.068 14.0454L922.579 17.0052ZM944.958 18.415C944.151 18.226 943.344 18.7266 943.155 19.5331C942.966 20.3397 943.467 21.1468 944.273 21.3358L944.958 18.415ZM965.622 27.0934C966.414 27.3356 967.252 26.8896 967.495 26.0974C967.737 25.3051 967.291 24.4666 966.499 24.2244L965.622 27.0934ZM987.615 31.4542C986.84 31.16 985.974 31.5492 985.68 32.3237C985.385 33.0981 985.775 33.9644 986.549 34.2586L987.615 31.4542ZM1006.96 42.7964C1007.71 43.1413 1008.6 42.8103 1008.94 42.0571C1009.29 41.3038 1008.96 40.4136 1008.21 40.0688L1006.96 42.7964ZM1028.17 50.023C1027.45 49.6291 1026.54 49.9007 1026.14 50.6295C1025.75 51.3583 1026.02 52.2684 1026.75 52.6623L1028.17 50.023ZM1045.85 63.8139C1046.56 64.2549 1047.48 64.0437 1047.92 63.3424C1048.36 62.641 1048.15 61.7151 1047.45 61.2741L1045.85 63.8139ZM1065.94 73.7653C1065.27 73.2794 1064.34 73.4294 1063.85 74.1003C1063.36 74.7713 1063.51 75.7091 1064.18 76.195L1065.94 73.7653ZM1081.67 89.7473C1082.3 90.276 1083.25 90.1875 1083.78 89.5497C1084.31 88.9119 1084.22 87.9663 1083.58 87.4376L1081.67 89.7473ZM1100.29 102.232C1099.69 101.663 1098.74 101.689 1098.17 102.291C1097.6 102.894 1097.63 103.843 1098.23 104.412L1100.29 102.232ZM1113.8 120.123C1114.36 120.73 1115.31 120.765 1115.92 120.201C1116.53 119.637 1116.56 118.688 1116 118.081L1113.8 120.123ZM1130.65 134.918C1130.12 134.276 1129.18 134.179 1128.54 134.702C1127.89 135.226 1127.8 136.17 1128.32 136.813L1130.65 134.918ZM1141.72 154.408C1142.2 155.083 1143.14 155.241 1143.82 154.761C1144.49 154.281 1144.65 153.344 1144.17 152.669L1141.72 154.408ZM1156.51 171.265C1156.07 170.56 1155.15 170.341 1154.44 170.777C1153.74 171.212 1153.52 172.136 1153.96 172.841L1156.51 171.265ZM1164.96 192.031C1165.35 192.763 1166.26 193.041 1166.99 192.652C1167.72 192.264 1168 191.356 1167.61 190.624L1164.96 192.031ZM1177.42 210.663C1177.08 209.907 1176.2 209.57 1175.44 209.91C1174.68 210.25 1174.35 211.138 1174.69 211.893L1177.42 210.663ZM1183.1 232.356C1183.39 233.132 1184.25 233.527 1185.03 233.237C1185.8 232.947 1186.2 232.083 1185.91 231.307L1183.1 232.356ZM1193.02 252.459C1192.79 251.665 1191.95 251.215 1191.16 251.453C1190.36 251.692 1189.91 252.528 1190.15 253.322L1193.02 252.459ZM1195.81 274.697C1196 275.505 1196.81 276.008 1197.61 275.823C1198.42 275.637 1198.92 274.832 1198.74 274.024L1195.81 274.697ZM1203.03 295.928C1202.9 295.11 1202.13 294.555 1201.31 294.688C1200.5 294.821 1199.94 295.591 1200.07 296.409L1203.03 295.928ZM1202.91 318.353C1202.99 319.178 1203.72 319.782 1204.55 319.702C1205.37 319.623 1205.98 318.89 1205.9 318.065L1202.91 318.353ZM1207.32 340.32C1207.3 339.492 1206.6 338.842 1205.77 338.868C1204.95 338.895 1204.3 339.587 1204.32 340.415L1207.32 340.32ZM0.8503 1474.99C4.75427 1475.38 8.53635 1474.35 12.2327 1472.22L10.7347 1469.62C7.4484 1471.51 4.29091 1472.32 1.1497 1472.01L0.8503 1474.99ZM28.3523 1456.64C32.4042 1451.42 36.5961 1445.26 41.0155 1438.44L38.4969 1436.8C34.0947 1443.61 29.9567 1449.68 25.9827 1454.8L28.3523 1456.64ZM52.7817 1419.8C56.497 1413.85 60.395 1407.63 64.5202 1401.22L61.998 1399.6C57.8606 1406.02 53.953 1412.26 50.2376 1418.21L52.7817 1419.8ZM76.6855 1382.92C80.7521 1377.02 85.0263 1371.06 89.537 1365.11L87.1462 1363.3C82.6042 1369.29 78.3035 1375.29 74.2156 1381.22L76.6855 1382.92ZM103.24 1348.03C107.92 1342.53 112.832 1337.11 117.999 1331.81L115.852 1329.72C110.633 1335.06 105.676 1340.54 100.956 1346.08L103.24 1348.03ZM133.857 1316.76C139.286 1312.01 144.968 1307.43 150.924 1303.07L149.153 1300.65C143.122 1305.06 137.371 1309.7 131.88 1314.51L133.857 1316.76ZM169.144 1291.03C175.309 1287.37 181.737 1283.95 188.447 1280.83L187.182 1278.11C180.378 1281.28 173.86 1284.74 167.612 1288.45L169.144 1291.03ZM208.733 1272.64C215.455 1270.31 222.434 1268.28 229.683 1266.56L228.993 1263.64C221.645 1265.38 214.57 1267.44 207.753 1269.8L208.733 1272.64ZM251.124 1262.57C258.139 1261.6 265.386 1260.93 272.875 1260.57L272.731 1257.57C265.154 1257.93 257.819 1258.62 250.714 1259.6L251.124 1262.57ZM294.741 1260.41C301.814 1260.64 309.086 1261.14 316.565 1261.93L316.879 1258.94C309.33 1258.15 301.985 1257.64 294.838 1257.41L294.741 1260.41ZM338.242 1264.93C341.851 1265.54 345.504 1266.22 349.203 1266.97L349.797 1264.03C346.069 1263.28 342.386 1262.59 338.747 1261.97L338.242 1264.93ZM349.203 1266.97C352.841 1267.7 356.421 1268.48 359.945 1269.3L360.621 1266.37C357.07 1265.55 353.463 1264.77 349.797 1264.03L349.203 1266.97ZM381.004 1274.78C388.186 1276.86 395.128 1279.08 401.853 1281.4L402.832 1278.57C396.063 1276.23 389.073 1273.99 381.838 1271.9L381.004 1274.78ZM422.319 1288.98C429.278 1291.73 436.001 1294.54 442.52 1297.35L443.71 1294.6C437.168 1291.77 430.415 1288.95 423.42 1286.19L422.319 1288.98ZM462.484 1306.22C469.347 1309.33 476.007 1312.38 482.486 1315.27L483.709 1312.53C477.239 1309.64 470.598 1306.6 463.721 1303.49L462.484 1306.22ZM502.677 1323.91C509.716 1326.75 516.601 1329.27 523.393 1331.37L524.277 1328.5C517.587 1326.44 510.783 1323.94 503.797 1321.13L502.677 1323.91ZM544.892 1336.45C552.265 1337.59 559.611 1338.04 567.016 1337.63L566.848 1334.63C559.677 1335.03 552.542 1334.6 545.35 1333.49L544.892 1336.45ZM588.869 1333.8C595.568 1331.81 602.359 1329.02 609.304 1325.32L607.893 1322.67C601.113 1326.28 594.507 1328.99 588.014 1330.93L588.869 1333.8ZM627.911 1313.46C633.453 1309.36 639.114 1304.67 644.923 1299.36L642.897 1297.14C637.157 1302.4 631.576 1307.02 626.127 1311.05L627.911 1313.46ZM660.59 1283.85C665.331 1278.81 670.176 1273.36 675.139 1267.48L672.846 1265.55C667.915 1271.39 663.106 1276.8 658.406 1281.79L660.59 1283.85ZM688.926 1250.42C693.227 1244.87 697.617 1239.01 702.104 1232.83L699.676 1231.07C695.207 1237.23 690.836 1243.06 686.556 1248.58L688.926 1250.42ZM714.808 1214.81C718.799 1209 722.865 1202.94 727.012 1196.63L724.504 1194.98C720.368 1201.28 716.314 1207.32 712.336 1213.12L714.808 1214.81ZM738.797 1178.33C740.771 1175.21 742.764 1172.03 744.774 1168.79L742.226 1167.21C740.219 1170.44 738.231 1173.61 736.261 1176.73L738.797 1178.33ZM744.774 1168.79C746.698 1165.7 748.626 1162.75 750.559 1159.96L748.091 1158.25C746.129 1161.09 744.174 1164.07 742.226 1167.21L744.774 1168.79ZM763.386 1143.53C768.358 1137.95 773.351 1133.22 778.36 1129.21L776.485 1126.87C771.336 1130.99 766.221 1135.84 761.146 1141.53L763.386 1143.53ZM795.737 1118.05C802.174 1114.87 808.641 1112.63 815.13 1111.1L814.443 1108.18C807.747 1109.76 801.062 1112.07 794.405 1115.37L795.737 1118.05ZM835.677 1108.37C842.61 1108.05 849.563 1108.26 856.532 1108.7L856.722 1105.71C849.69 1105.26 842.621 1105.05 835.542 1105.37L835.677 1108.37ZM877.452 1110.45C884.48 1111.08 891.517 1111.66 898.523 1111.89L898.619 1108.89C891.705 1108.67 884.742 1108.1 877.721 1107.46L877.452 1110.45ZM919.74 1111.17C926.712 1110.36 933.647 1108.88 940.522 1106.43L939.514 1103.61C932.885 1105.97 926.176 1107.4 919.395 1108.19L919.74 1111.17ZM959.555 1096.79C965.04 1093.1 970.456 1088.58 975.797 1083.08L973.643 1080.99C968.438 1086.35 963.181 1090.74 957.88 1094.3L959.555 1096.79ZM989.331 1066.68C991.323 1063.89 993.303 1060.93 995.27 1057.8L992.73 1056.2C990.792 1059.29 988.844 1062.2 986.888 1064.94L989.331 1066.68ZM995.27 1057.8C997.162 1054.79 998.95 1051.71 1000.62 1048.58L997.977 1047.16C996.338 1050.24 994.585 1053.25 992.73 1056.2L995.27 1057.8ZM1009.21 1029.06C1011.53 1022.41 1013.34 1015.52 1014.54 1008.4L1011.58 1007.9C1010.41 1014.85 1008.65 1021.57 1006.38 1028.07L1009.21 1029.06ZM1016.28 987.123C1016.26 980.227 1015.68 973.147 1014.48 965.886L1011.52 966.375C1012.69 973.479 1013.26 980.399 1013.28 987.133L1016.28 987.123ZM1009.49 945.164C1007.44 938.679 1004.91 932.065 1001.86 925.326L999.126 926.564C1002.13 933.199 1004.62 939.7 1006.63 946.066L1009.49 945.164ZM992.104 906.451C988.697 900.575 984.897 894.61 980.682 888.557L978.22 890.271C982.39 896.26 986.145 902.155 989.509 907.956L992.104 906.451ZM967.931 871.564C963.669 866.263 959.091 860.898 954.184 855.47L951.958 857.481C956.828 862.869 961.369 868.19 965.593 873.444L967.931 871.564ZM939.588 840.117C934.764 835.279 929.681 830.394 924.329 825.461L922.296 827.667C927.618 832.573 932.671 837.429 937.464 842.235L939.588 840.117ZM908.446 811.359C903.25 806.91 897.838 802.423 892.202 797.899L890.324 800.238C895.936 804.743 901.324 809.21 906.495 813.638L908.446 811.359ZM875.539 784.911C872.739 782.789 869.889 780.659 866.991 778.522L865.21 780.937C868.099 783.066 870.938 785.188 873.728 787.302L875.539 784.911ZM866.991 778.522C864.138 776.419 861.295 774.314 858.463 772.209L856.673 774.617C859.508 776.724 862.354 778.831 865.21 780.937L866.991 778.522ZM841.477 759.488C835.781 755.19 830.146 750.907 824.583 746.651L822.76 749.034C828.328 753.293 833.969 757.581 839.67 761.882L841.477 759.488ZM807.779 733.71C802.105 729.313 796.527 724.961 791.06 720.671L789.208 723.031C794.68 727.324 800.263 731.68 805.942 736.082L807.779 733.71ZM774.401 707.522C768.717 703.01 763.184 698.591 757.821 694.286L755.943 696.626C761.31 700.934 766.847 705.356 772.535 709.872L774.401 707.522ZM741.309 680.957C735.555 676.286 730.057 671.797 724.846 667.521L722.943 669.84C728.158 674.119 733.66 678.612 739.419 683.286L741.309 680.957ZM708.516 654.048C702.489 649.047 697.03 644.486 692.211 640.44L690.282 642.738C695.105 646.787 700.569 651.352 706.601 656.356L708.516 654.048ZM675.975 626.714C673.379 624.502 671.38 622.789 670.03 621.63C669.355 621.05 668.843 620.609 668.499 620.312C668.328 620.164 668.198 620.052 668.112 619.978C668.068 619.94 668.036 619.912 668.014 619.893C668.003 619.884 667.995 619.877 667.99 619.872C667.987 619.87 667.985 619.868 667.984 619.867C667.983 619.867 667.983 619.866 667.982 619.866C667.982 619.866 667.982 619.866 667.982 619.866C667.982 619.866 667.982 619.866 667.982 619.865C667.982 619.865 667.982 619.865 667 621C666.018 622.134 666.018 622.134 666.018 622.134C666.018 622.134 666.018 622.134 666.018 622.134C666.018 622.134 666.019 622.134 666.019 622.134C666.019 622.134 666.02 622.135 666.02 622.135C666.022 622.137 666.024 622.138 666.027 622.141C666.032 622.146 666.04 622.153 666.051 622.162C666.073 622.181 666.106 622.21 666.15 622.248C666.237 622.323 666.367 622.435 666.54 622.584C666.885 622.882 667.399 623.324 668.075 623.905C669.428 625.067 671.43 626.783 674.029 628.997L675.975 626.714ZM667.982 619.866C665.28 617.525 662.556 615.069 659.819 612.504L657.767 614.693C660.532 617.284 663.285 619.766 666.018 622.133L667.982 619.866ZM644.216 596.865C639.328 591.65 634.436 586.134 629.577 580.353L627.281 582.284C632.173 588.103 637.1 593.66 642.027 598.917L644.216 596.865ZM615.776 563.096C611.376 557.319 607.036 551.347 602.783 545.209L600.317 546.917C604.595 553.092 608.962 559.101 613.389 564.914L615.776 563.096ZM590.601 526.77C586.699 520.57 582.904 514.243 579.245 507.813L576.638 509.297C580.32 515.766 584.137 522.132 588.063 528.368L590.601 526.77ZM568.756 488.363C565.407 481.788 562.216 475.138 559.21 468.438L556.473 469.666C559.5 476.413 562.712 483.108 566.083 489.725L568.756 488.363ZM550.71 448.055C548.044 441.13 545.598 434.18 543.399 427.232L540.539 428.137C542.758 435.146 545.224 442.154 547.91 449.133L550.71 448.055ZM537.465 405.986C535.718 398.735 534.272 391.517 533.16 384.364L530.195 384.825C531.321 392.065 532.783 399.364 534.549 406.689L537.465 405.986ZM530.814 362.483C530.606 358.793 530.5 355.131 530.5 351.5H527.5C527.5 355.189 527.608 358.908 527.819 362.651L530.814 362.483ZM530.5 351.5C530.5 347.791 530.559 344.096 530.677 340.415L527.678 340.319C527.56 344.032 527.5 347.759 527.5 351.5H530.5ZM532.09 318.353C532.803 310.966 533.751 303.649 534.927 296.409L531.966 295.928C530.78 303.232 529.823 310.613 529.104 318.065L532.09 318.353ZM539.185 274.697C540.847 267.481 542.738 260.353 544.849 253.321L541.976 252.459C539.846 259.553 537.938 266.744 536.262 274.024L539.185 274.697ZM551.901 232.356C554.488 225.424 557.295 218.601 560.312 211.893L557.576 210.663C554.532 217.429 551.701 224.314 549.091 231.307L551.901 232.356ZM570.039 192.031C573.505 185.504 577.176 179.104 581.044 172.841L578.492 171.265C574.589 177.583 570.886 184.039 567.39 190.624L570.039 192.031ZM593.277 154.408C597.556 148.394 602.027 142.525 606.679 136.813L604.353 134.918C599.66 140.681 595.15 146.601 590.832 152.669L593.277 154.408ZM621.199 120.123C626.219 114.717 631.413 109.477 636.772 104.412L634.711 102.232C629.305 107.342 624.065 112.628 619.001 118.081L621.199 120.123ZM653.334 89.7473C659.009 85.0437 664.839 80.5233 670.815 76.195L669.056 73.7652C663.026 78.132 657.144 82.6924 651.42 87.4376L653.334 89.7473ZM689.146 63.8139C695.381 59.8943 701.752 56.1741 708.251 52.6623L706.825 50.0229C700.268 53.5662 693.84 57.3196 687.55 61.2741L689.146 63.8139ZM728.044 42.7964C734.732 39.7341 741.537 36.8853 748.451 34.2586L747.386 31.4542C740.41 34.1045 733.543 36.9789 726.795 40.0687L728.044 42.7964ZM769.378 27.0934C776.4 24.9471 783.519 23.0251 790.727 21.3358L790.042 18.415C782.77 20.1195 775.587 22.0587 768.501 24.2244L769.378 27.0934ZM812.421 17.0052C819.658 15.8084 826.973 14.8435 834.358 14.1184L834.065 11.1328C826.614 11.8643 819.234 12.8378 811.932 14.0454L812.421 17.0052ZM856.417 12.6799C860.096 12.5603 863.791 12.5 867.5 12.5V9.5C863.759 9.5 860.031 9.56079 856.319 9.68145L856.417 12.6799ZM867.5 12.5C871.209 12.5 874.904 12.5603 878.584 12.6799L878.681 9.68145C874.969 9.56079 871.241 9.5 867.5 9.5V12.5ZM900.642 14.1184C908.027 14.8435 915.342 15.8084 922.579 17.0052L923.068 14.0454C915.766 12.8379 908.386 11.8644 900.935 11.1328L900.642 14.1184ZM944.273 21.3358C951.481 23.0251 958.6 24.9471 965.622 27.0934L966.499 24.2244C959.414 22.0588 952.231 20.1195 944.958 18.415L944.273 21.3358ZM986.549 34.2586C993.463 36.8853 1000.27 39.7341 1006.96 42.7964L1008.21 40.0688C1001.46 36.9789 994.59 34.1045 987.615 31.4542L986.549 34.2586ZM1026.75 52.6623C1033.25 56.1742 1039.62 59.8943 1045.85 63.8139L1047.45 61.2741C1041.16 57.3196 1034.73 53.5663 1028.17 50.023L1026.75 52.6623ZM1064.18 76.195C1070.16 80.5233 1075.99 85.0438 1081.67 89.7473L1083.58 87.4376C1077.86 82.6925 1071.97 78.132 1065.94 73.7653L1064.18 76.195ZM1098.23 104.412C1103.59 109.477 1108.78 114.717 1113.8 120.123L1116 118.081C1110.93 112.628 1105.69 107.342 1100.29 102.232L1098.23 104.412ZM1128.32 136.813C1132.97 142.525 1137.44 148.394 1141.72 154.408L1144.17 152.669C1139.85 146.601 1135.34 140.681 1130.65 134.918L1128.32 136.813ZM1153.96 172.841C1157.82 179.105 1161.5 185.504 1164.96 192.031L1167.61 190.624C1164.11 184.039 1160.41 177.583 1156.51 171.265L1153.96 172.841ZM1174.69 211.893C1177.71 218.601 1180.51 225.425 1183.1 232.356L1185.91 231.307C1183.3 224.314 1180.47 217.43 1177.42 210.663L1174.69 211.893ZM1190.15 253.322C1192.26 260.353 1194.15 267.481 1195.81 274.697L1198.74 274.024C1197.06 266.744 1195.15 259.553 1193.02 252.459L1190.15 253.322ZM1200.07 296.409C1201.25 303.649 1202.2 310.966 1202.91 318.353L1205.9 318.065C1205.18 310.614 1204.22 303.232 1203.03 295.928L1200.07 296.409ZM1204.32 340.415C1204.44 344.096 1204.5 347.791 1204.5 351.5H1207.5C1207.5 347.759 1207.44 344.032 1207.32 340.32L1204.32 340.415Z" fill="#39404D"/>
<circle cx="151.5" cy="1305.5" r="17.5" fill="#666666"/>
<circle cx="560.5" cy="1337.5" r="17.5" fill="#666666"/>
<circle cx="727.5" cy="671.5" r="17.5" fill="#666666"/>
<ellipse cx="907.5" cy="809.103" rx="17.5" ry="18.1649" fill="#666666"/>
<circle cx="658.5" cy="81.5" r="17.5" fill="#666666"/>
<circle cx="926.5" cy="17.5" r="17.5" fill="#666666"/>
<circle cx="578.5" cy="511.5" r="17.5" fill="#666666"/>
</svg>
